  0
SECTION
  2
HEADER
  9
$ACADVER
  1
AC1014
  9
$ACADMAINTVER
 70
     9
  9
$DWGCODEPAGE
  3
ANSI_1252
  9
$INSBASE
 10
0.0
 20
0.0
 30
0.0
  9
$EXTMIN
 10
-419.579798396769
 20
32.3285592843999
 30
0.0
  9
$EXTMAX
 10
-51.5797983967689
 20
263.97416167193
 30
0.0
  9
$LIMMIN
 10
0.0
 20
0.0
  9
$LIMMAX
 10
12.0
 20
9.0
  9
$ORTHOMODE
 70
     0
  9
$REGENMODE
 70
     1
  9
$FILLMODE
 70
     1
  9
$QTEXTMODE
 70
     0
  9
$MIRRTEXT
 70
     1
  9
$DRAGMODE
 70
     2
  9
$LTSCALE
 40
1.0
  9
$OSMODE
 70
    37
  9
$ATTMODE
 70
     1
  9
$TEXTSIZE
 40
0.2
  9
$TRACEWID
 40
0.05
  9
$TEXTSTYLE
  7
STANDARD
  9
$CLAYER
  8
0
  9
$CELTYPE
  6
BYLAYER
  9
$CECOLOR
 62
   256
  9
$CELTSCALE
 40
1.0
  9
$DELOBJ
 70
     1
  9
$DISPSILH
 70
     0
  9
$DIMSCALE
 40
1.0
  9
$DIMASZ
 40
0.18
  9
$DIMEXO
 40
0.0625
  9
$DIMDLI
 40
0.38
  9
$DIMRND
 40
0.0
  9
$DIMDLE
 40
0.0
  9
$DIMEXE
 40
0.18
  9
$DIMTP
 40
0.0
  9
$DIMTM
 40
0.0
  9
$DIMTXT
 40
0.18
  9
$DIMCEN
 40
0.09
  9
$DIMTSZ
 40
0.0
  9
$DIMTOL
 70
     0
  9
$DIMLIM
 70
     0
  9
$DIMTIH
 70
     1
  9
$DIMTOH
 70
     1
  9
$DIMSE1
 70
     0
  9
$DIMSE2
 70
     0
  9
$DIMTAD
 70
     0
  9
$DIMZIN
 70
     0
  9
$DIMBLK
  1

  9
$DIMASO
 70
     1
  9
$DIMSHO
 70
     1
  9
$DIMPOST
  1

  9
$DIMAPOST
  1

  9
$DIMALT
 70
     0
  9
$DIMALTD
 70
     2
  9
$DIMALTF
 40
25.4
  9
$DIMLFAC
 40
1.0
  9
$DIMTOFL
 70
     0
  9
$DIMTVP
 40
0.0
  9
$DIMTIX
 70
     0
  9
$DIMSOXD
 70
     0
  9
$DIMSAH
 70
     0
  9
$DIMBLK1
  1

  9
$DIMBLK2
  1

  9
$DIMSTYLE
  2
STANDARD
  9
$DIMCLRD
 70
     0
  9
$DIMCLRE
 70
     0
  9
$DIMCLRT
 70
     0
  9
$DIMTFAC
 40
1.0
  9
$DIMGAP
 40
0.09
  9
$DIMJUST
 70
     0
  9
$DIMSD1
 70
     0
  9
$DIMSD2
 70
     0
  9
$DIMTOLJ
 70
     1
  9
$DIMTZIN
 70
     0
  9
$DIMALTZ
 70
     0
  9
$DIMALTTZ
 70
     0
  9
$DIMFIT
 70
     3
  9
$DIMUPT
 70
     0
  9
$DIMUNIT
 70
     2
  9
$DIMDEC
 70
     4
  9
$DIMTDEC
 70
     4
  9
$DIMALTU
 70
     2
  9
$DIMALTTD
 70
     2
  9
$DIMTXSTY
  7
STANDARD
  9
$DIMAUNIT
 70
     0
  9
$LUNITS
 70
     2
  9
$LUPREC
 70
     4
  9
$SKETCHINC
 40
0.1
  9
$FILLETRAD
 40
0.5
  9
$AUNITS
 70
     0
  9
$AUPREC
 70
     0
  9
$MENU
  1
.
  9
$ELEVATION
 40
0.0
  9
$PELEVATION
 40
0.0
  9
$THICKNESS
 40
0.0
  9
$LIMCHECK
 70
     0
  9
$CHAMFERA
 40
0.5
  9
$CHAMFERB
 40
0.5
  9
$CHAMFERC
 40
1.0
  9
$CHAMFERD
 40
0.0
  9
$SKPOLY
 70
     0
  9
$TDCREATE
 40
2454110.731332998
  9
$TDUPDATE
 40
2454110.731333009
  9
$TDINDWG
 40
0.0000000116
  9
$TDUSRTIMER
 40
0.0000000116
  9
$USRTIMER
 70
     1
  9
$ANGBASE
 50
0.0
  9
$ANGDIR
 70
     0
  9
$PDMODE
 70
     0
  9
$PDSIZE
 40
0.0
  9
$PLINEWID
 40
0.0
  9
$COORDS
 70
     1
  9
$SPLFRAME
 70
     0
  9
$SPLINETYPE
 70
     6
  9
$SPLINESEGS
 70
     8
  9
$ATTDIA
 70
     0
  9
$ATTREQ
 70
     1
  9
$HANDLING
 70
     1
  9
$HANDSEED
  5
3D7
  9
$SURFTAB1
 70
     6
  9
$SURFTAB2
 70
     6
  9
$SURFTYPE
 70
     6
  9
$SURFU
 70
     6
  9
$SURFV
 70
     6
  9
$UCSNAME
  2

  9
$UCSORG
 10
0.0
 20
0.0
 30
0.0
  9
$UCSXDIR
 10
1.0
 20
0.0
 30
0.0
  9
$UCSYDIR
 10
0.0
 20
1.0
 30
0.0
  9
$PUCSNAME
  2

  9
$PUCSORG
 10
0.0
 20
0.0
 30
0.0
  9
$PUCSXDIR
 10
1.0
 20
0.0
 30
0.0
  9
$PUCSYDIR
 10
0.0
 20
1.0
 30
0.0
  9
$USERI1
 70
     0
  9
$USERI2
 70
     0
  9
$USERI3
 70
     0
  9
$USERI4
 70
     0
  9
$USERI5
 70
     0
  9
$USERR1
 40
14.0
  9
$USERR2
 40
0.0
  9
$USERR3
 40
0.0
  9
$USERR4
 40
0.0
  9
$USERR5
 40
0.0
  9
$WORLDVIEW
 70
     1
  9
$SHADEDGE
 70
     3
  9
$SHADEDIF
 70
    70
  9
$TILEMODE
 70
     1
  9
$MAXACTVP
 70
    64
  9
$PINSBASE
 10
0.0
 20
0.0
 30
0.0
  9
$PLIMCHECK
 70
     0
  9
$PEXTMIN
 10
1.00000000000000E+20
 20
1.00000000000000E+20
 30
1.00000000000000E+20
  9
$PEXTMAX
 10
-1.00000000000000E+20
 20
-1.00000000000000E+20
 30
-1.00000000000000E+20
  9
$PLIMMIN
 10
0.0
 20
0.0
  9
$PLIMMAX
 10
12.0
 20
9.0
  9
$UNITMODE
 70
     0
  9
$VISRETAIN
 70
     1
  9
$PLINEGEN
 70
     0
  9
$PSLTSCALE
 70
     1
  9
$TREEDEPTH
 70
  3020
  9
$PICKSTYLE
 70
     1
  9
$CMLSTYLE
  2
STANDARD
  9
$CMLJUST
 70
     0
  9
$CMLSCALE
 40
1.0
  9
$PROXYGRAPHICS
 70
     1
  9
$MEASUREMENT
 70
     1
  0
ENDSEC
  0
SECTION
  2
CLASSES
  0
CLASS
  1
ACDBDICTIONARYWDFLT
  2
AcDbDictionaryWithDefault
  3
ObjectDBX Classes
 90
        0
280
     0
281
     0
  0
CLASS
  1

  2
exOdDbCircle
  3

 90
        0
280
     0
281
     1
  0
CLASS
  1
XRECORD
  2
AcDbXrecord
  3
AutoCAD 2000
 90
        0
280
     0
281
     0
  0
CLASS
  1
LWPOLYLINE
  2
AcDbPolyline
  3
AutoCAD 2000
 90
        0
280
     0
281
     1
  0
CLASS
  1
HATCH
  2
AcDbHatch
  3
AutoCAD 2000
 90
        0
280
     0
281
     1
  0
CLASS
  1
ACDBPLACEHOLDER
  2
AcDbPlaceHolder
  3
ObjectDBX Classes
 90
        0
280
     0
281
     0
  0
CLASS
  1
LAYOUT
  2
AcDbLayout
  3
ObjectDBX Classes
 90
        0
280
     0
281
     0
  0
ENDSEC
  0
SECTION
  2
TABLES
  0
TABLE
  2
VPORT
  5
8
330
0
100
AcDbSymbolTable
 70
     1
  0
VPORT
  5
29
330
8
100
AcDbSymbolTableRecord
100
AcDbViewportTableRecord
  2
*ACTIVE
 70
     0
 10
0.0
 20
0.0
 11
1.0
 21
1.0
 12
-235.579798396769
 22
148.151360478165
 13
0.0
 23
0.0
 14
0.5
 24
0.5
 15
0.5
 25
0.5
 16
0.0
 26
0.0
 36
1.0
 17
0.0
 27
0.0
 37
0.0
 40
254.8101626262832
 41
1.60267857142857
 42
50.0
 43
0.0
 44
0.0
 50
0.0
 51
0.0
 71
     0
 72
   100
 73
     1
 74
     3
 75
     0
 76
     0
 77
     0
 78
     0
  0
ENDTAB
  0
TABLE
  2
LTYPE
  5
5
330
0
100
AcDbSymbolTable
 70
     8
  0
LTYPE
  5
14
330
5
100
AcDbSymbolTableRecord
100
AcDbLinetypeTableRecord
  2
BYBLOCK
 70
     0
  3

 72
    65
 73
     0
 40
0.0
  0
LTYPE
  5
15
330
5
100
AcDbSymbolTableRecord
100
AcDbLinetypeTableRecord
  2
BYLAYER
 70
     0
  3

 72
    65
 73
     0
 40
0.0
  0
LTYPE
  5
16
330
5
100
AcDbSymbolTableRecord
100
AcDbLinetypeTableRecord
  2
CONTINUOUS
 70
     0
  3
Solid line
 72
    65
 73
     0
 40
0.0
  0
LTYPE
  5
2A
330
5
100
AcDbSymbolTableRecord
100
AcDbLinetypeTableRecord
  2
DASHED
 70
     0
  3
Dashed
 72
    65
 73
     2
 40
15.0
 49
7.0
 74
     0
 49
-8.0
 74
     0
  0
LTYPE
  5
2B
330
5
100
AcDbSymbolTableRecord
100
AcDbLinetypeTableRecord
  2
DOTTED
 70
     0
  3
Dotted
 72
    65
 73
     2
 40
1.0
 49
0.0
 74
     0
 49
-1.0
 74
     0
  0
LTYPE
  5
2C
330
5
100
AcDbSymbolTableRecord
100
AcDbLinetypeTableRecord
  2
DOT_CENTER
 70
     0
  3
Dot_Center
 72
    65
 73
     4
 40
14.0
 49
12.0
 74
     0
 49
-1.0
 74
     0
 49
0.0
 74
     0
 49
-1.0
 74
     0
  0
LTYPE
  5
2D
330
5
100
AcDbSymbolTableRecord
100
AcDbLinetypeTableRecord
  2
LONG_DASHED
 70
     0
  3
Long_Dashed
 72
    65
 73
     2
 40
15.0
 49
10.0
 74
     0
 49
-5.0
 74
     0
  0
LTYPE
  5
2E
330
5
100
AcDbSymbolTableRecord
100
AcDbLinetypeTableRecord
  2
DASH_CENTER
 70
     0
  3
Dash_Center
 72
    65
 73
     4
 40
14.0
 49
11.0
 74
     0
 49
-1.0
 74
     0
 49
1.0
 74
     0
 49
-1.0
 74
     0
  0
LTYPE
  5
2F
330
5
100
AcDbSymbolTableRecord
100
AcDbLinetypeTableRecord
  2
PHANTOM
 70
     0
  3
Phantom
 72
    65
 73
     6
 40
13.0
 49
10.0
 74
     0
 49
-1.0
 74
     0
 49
0.0
 74
     0
 49
-1.0
 74
     0
 49
0.0
 74
     0
 49
-1.0
 74
     0
  0
LTYPE
  5
30
330
5
100
AcDbSymbolTableRecord
100
AcDbLinetypeTableRecord
  2
CENTER_DASH_DASH
 70
     0
  3
Center_Dash_Dash
 72
    65
 73
     6
 40
14.0
 49
9.0
 74
     0
 49
-1.0
 74
     0
 49
1.0
 74
     0
 49
-1.0
 74
     0
 49
1.0
 74
     0
 49
-1.0
 74
     0
  0
ENDTAB
  0
TABLE
  2
LAYER
  5
2
330
0
100
AcDbSymbolTable
 70
     2
  0
LAYER
  5
10
330
2
100
AcDbSymbolTableRecord
100
AcDbLayerTableRecord
  2
0
 70
     0
 62
     7
  6
CONTINUOUS
  0
LAYER
  5
31
330
2
100
AcDbSymbolTableRecord
100
AcDbLayerTableRecord
  2
1
 70
     0
 62
     7
  6
CONTINUOUS
  0
ENDTAB
  0
TABLE
  2
STYLE
  5
3
330
0
100
AcDbSymbolTable
 70
     2
  0
STYLE
  5
11
330
3
100
AcDbSymbolTableRecord
100
AcDbTextStyleTableRecord
  2
STANDARD
 70
     0
 40
0.0
 41
1.0
 50
0.0
 71
     0
 42
0.2
  3
txt
  4

  0
STYLE
  5
3B5
330
3
100
AcDbSymbolTableRecord
100
AcDbTextStyleTableRecord
  2
CONVERTER_1
 70
     0
 40
0.0
 41
0.9
 50
0.0
 71
     0
 42
0.2
  3
txt.shx
  4

  0
ENDTAB
  0
TABLE
  2
VIEW
  5
6
330
0
100
AcDbSymbolTable
 70
     0
  0
ENDTAB
  0
TABLE
  2
UCS
  5
7
330
0
100
AcDbSymbolTable
 70
     0
  0
ENDTAB
  0
TABLE
  2
APPID
  5
9
330
0
100
AcDbSymbolTable
 70
     1
  0
APPID
  5
12
330
9
100
AcDbSymbolTableRecord
100
AcDbRegAppTableRecord
  2
ACAD
 70
     0
  0
ENDTAB
  0
TABLE
  2
DIMSTYLE
  5
A
330
0
100
AcDbSymbolTable
 70
     1
  0
DIMSTYLE
105
27
330
A
100
AcDbSymbolTableRecord
100
AcDbDimStyleTableRecord
  2
STANDARD
 70
     0
  3

  4

  5

  6

  7

 40
1.0
 41
0.18
 42
0.0625
 43
0.38
 44
0.18
 45
0.0
 46
0.0
 47
0.0
 48
0.0
140
0.18
141
0.09
142
0.0
143
25.4
144
1.0
145
0.0
146
1.0
147
0.09
 71
     0
 72
     0
 73
     1
 74
     1
 75
     0
 76
     0
 77
     0
 78
     0
170
     0
171
     2
172
     0
173
     0
174
     0
175
     0
176
     0
177
     0
178
     0
270
     2
271
     4
272
     4
273
     2
274
     2
340
11
275
     0
280
     0
281
     0
282
     0
283
     1
284
     0
285
     0
286
     0
287
     3
288
     0
  0
ENDTAB
  0
TABLE
  2
BLOCK_RECORD
  5
1
330
0
100
AcDbSymbolTable
 70
     1
  0
BLOCK_RECORD
  5
1F
330
1
100
AcDbSymbolTableRecord
100
AcDbBlockTableRecord
  2
*MODEL_SPACE
  0
BLOCK_RECORD
  5
1B
330
1
100
AcDbSymbolTableRecord
100
AcDbBlockTableRecord
  2
*PAPER_SPACE
  0
ENDTAB
  0
ENDSEC
  0
SECTION
  2
BLOCKS
  0
BLOCK
  5
20
330
1F
100
AcDbEntity
  8
0
100
AcDbBlockBegin
  2
*MODEL_SPACE
 70
     0
 71
     0
 10
0.0
 20
0.0
 30
0.0
  3
*MODEL_SPACE
  1

  0
ENDBLK
  5
21
330
1F
100
AcDbEntity
  8
0
100
AcDbBlockEnd
  0
BLOCK
  5
1C
330
1B
100
AcDbEntity
 67
     1
  8
0
100
AcDbBlockBegin
  2
*PAPER_SPACE
 70
     0
 71
     0
 10
0.0
 20
0.0
 30
0.0
  3
*PAPER_SPACE
  1

  0
ENDBLK
  5
1D
330
1B
100
AcDbEntity
 67
     1
  8
0
100
AcDbBlockEnd
  0
ENDSEC
  0
SECTION
  2
ENTITIES
  0
LINE
  5
32
330
1F
100
AcDbEntity
  8
1
  6
CONTINUOUS
 62
     7
100
AcDbLine
 10
-315.672321108658
 20
226.211538572177
 30
0.0
 11
-325.487275684881
 21
226.211538572177
 31
0.0
  0
LINE
  5
33
330
1F
100
AcDbEntity
  8
1
  6
CONTINUOUS
 62
     7
100
AcDbLine
 10
-310.764843820546
 20
217.711538572177
 30
0.0
 11
-315.672321108658
 21
226.211538572177
 31
0.0
  0
LINE
  5
34
330
1F
100
AcDbEntity
  8
1
  6
CONTINUOUS
 62
     7
100
AcDbLine
 10
-315.672321108658
 20
209.211538572177
 30
0.0
 11
-310.764843820546
 21
217.711538572177
 31
0.0
  0
LINE
  5
35
330
1F
100
AcDbEntity
  8
1
  6
CONTINUOUS
 62
     7
100
AcDbLine
 10
-325.487275684881
 20
209.211538572177
 30
0.0
 11
-315.672321108658
 21
209.211538572177
 31
0.0
  0
LINE
  5
36
330
1F
100
AcDbEntity
  8
1
  6
CONTINUOUS
 62
     7
100
AcDbLine
 10
-330.394752972993
 20
217.711538572177
 30
0.0
 11
-325.487275684881
 21
209.211538572177
 31
0.0
  0
LINE
  5
37
330
1F
100
AcDbEntity
  8
1
  6
CONTINUOUS
 62
     7
100
AcDbLine
 10
-325.487275684881
 20
226.211538572177
 30
0.0
 11
-330.394752972993
 21
217.711538572177
 31
0.0
  0
LINE
  5
38
330
1F
100
AcDbEntity
  8
1
  6
CONTINUOUS
 62
     7
100
AcDbLine
 10
-324.815092514416
 20
217.711538572177
 30
0.0
 11
-316.344504279122
 21
217.711538572177
 31
0.0
  0
LINE
  5
39
330
1F
100
AcDbEntity
  8
1
  6
CONTINUOUS
 62
     7
100
AcDbLine
 10
-320.579798396769
 20
221.946832689824
 30
0.0
 11
-320.579798396769
 21
213.47624445453
 31
0.0
  0
LINE
  5
3A
330
1F
100
AcDbEntity
  8
1
  6
CONTINUOUS
 62
     7
100
AcDbLine
 10
-286.579798396769
 20
221.946832689824
 30
0.0
 11
-286.579798396769
 21
213.47624445453
 31
0.0
  0
LINE
  5
3B
330
1F
100
AcDbEntity
  8
1
  6
CONTINUOUS
 62
     7
100
AcDbLine
 10
-290.815092514416
 20
217.711538572177
 30
0.0
 11
-282.344504279122
 21
217.711538572177
 31
0.0
  0
LINE
  5
3C
330
1F
100
AcDbEntity
  8
1
  6
CONTINUOUS
 62
     7
100
AcDbLine
 10
-291.487275684881
 20
226.211538572177
 30
0.0
 11
-296.394752972993
 21
217.711538572177
 31
0.0
  0
LINE
  5
3D
330
1F
100
AcDbEntity
  8
1
  6
CONTINUOUS
 62
     7
100
AcDbLine
 10
-296.394752972993
 20
217.711538572177
 30
0.0
 11
-291.487275684881
 21
209.211538572177
 31
0.0
  0
LINE
  5
3E
330
1F
100
AcDbEntity
  8
1
  6
CONTINUOUS
 62
     7
100
AcDbLine
 10
-291.487275684881
 20
209.211538572177
 30
0.0
 11
-281.672321108658
 21
209.211538572177
 31
0.0
  0
LINE
  5
3F
330
1F
100
AcDbEntity
  8
1
  6
CONTINUOUS
 62
     7
100
AcDbLine
 10
-281.672321108658
 20
209.211538572177
 30
0.0
 11
-276.764843820546
 21
217.711538572177
 31
0.0
  0
LINE
  5
40
330
1F
100
AcDbEntity
  8
1
  6
CONTINUOUS
 62
     7
100
AcDbLine
 10
-276.764843820546
 20
217.711538572177
 30
0.0
 11
-281.672321108658
 21
226.211538572177
 31
0.0
  0
LINE
  5
41
330
1F
100
AcDbEntity
  8
1
  6
CONTINUOUS
 62
     7
100
AcDbLine
 10
-281.672321108658
 20
226.211538572177
 30
0.0
 11
-291.487275684881
 21
226.211538572177
 31
0.0
  0
LINE
  5
42
330
1F
100
AcDbEntity
  8
1
  6
CONTINUOUS
 62
     7
100
AcDbLine
 10
-247.672321108658
 20
226.211538572177
 30
0.0
 11
-257.487275684881
 21
226.211538572177
 31
0.0
  0
LINE
  5
43
330
1F
100
AcDbEntity
  8
1
  6
CONTINUOUS
 62
     7
100
AcDbLine
 10
-242.764843820546
 20
217.711538572177
 30
0.0
 11
-247.672321108658
 21
226.211538572177
 31
0.0
  0
LINE
  5
44
330
1F
100
AcDbEntity
  8
1
  6
CONTINUOUS
 62
     7
100
AcDbLine
 10
-247.672321108658
 20
209.211538572177
 30
0.0
 11
-242.764843820546
 21
217.711538572177
 31
0.0
  0
LINE
  5
45
330
1F
100
AcDbEntity
  8
1
  6
CONTINUOUS
 62
     7
100
AcDbLine
 10
-257.487275684881
 20
209.211538572177
 30
0.0
 11
-247.672321108658
 21
209.211538572177
 31
0.0
  0
LINE
  5
46
330
1F
100
AcDbEntity
  8
1
  6
CONTINUOUS
 62
     7
100
AcDbLine
 10
-262.394752972993
 20
217.711538572177
 30
0.0
 11
-257.487275684881
 21
209.211538572177
 31
0.0
  0
LINE
  5
47
330
1F
100
AcDbEntity
  8
1
  6
CONTINUOUS
 62
     7
100
AcDbLine
 10
-257.487275684881
 20
226.211538572177
 30
0.0
 11
-262.394752972993
 21
217.711538572177
 31
0.0
  0
LINE
  5
48
330
1F
100
AcDbEntity
  8
1
  6
CONTINUOUS
 62
     7
100
AcDbLine
 10
-256.815092514416
 20
217.711538572177
 30
0.0
 11
-248.344504279122
 21
217.711538572177
 31
0.0
  0
LINE
  5
49
330
1F
100
AcDbEntity
  8
1
  6
CONTINUOUS
 62
     7
100
AcDbLine
 10
-252.579798396769
 20
221.946832689824
 30
0.0
 11
-252.579798396769
 21
213.47624445453
 31
0.0
  0
LINE
  5
4A
330
1F
100
AcDbEntity
  8
1
  6
CONTINUOUS
 62
     7
100
AcDbLine
 10
-218.579798396769
 20
221.946832689824
 30
0.0
 11
-218.579798396769
 21
213.47624445453
 31
0.0
  0
LINE
  5
4B
330
1F
100
AcDbEntity
  8
1
  6
CONTINUOUS
 62
     7
100
AcDbLine
 10
-222.815092514416
 20
217.711538572177
 30
0.0
 11
-214.344504279122
 21
217.711538572177
 31
0.0
  0
LINE
  5
4C
330
1F
100
AcDbEntity
  8
1
  6
CONTINUOUS
 62
     7
100
AcDbLine
 10
-223.487275684881
 20
226.211538572177
 30
0.0
 11
-228.394752972993
 21
217.711538572177
 31
0.0
  0
LINE
  5
4D
330
1F
100
AcDbEntity
  8
1
  6
CONTINUOUS
 62
     7
100
AcDbLine
 10
-228.394752972993
 20
217.711538572177
 30
0.0
 11
-223.487275684881
 21
209.211538572177
 31
0.0
  0
LINE
  5
4E
330
1F
100
AcDbEntity
  8
1
  6
CONTINUOUS
 62
     7
100
AcDbLine
 10
-223.487275684881
 20
209.211538572177
 30
0.0
 11
-213.672321108658
 21
209.211538572177
 31
0.0
  0
LINE
  5
4F
330
1F
100
AcDbEntity
  8
1
  6
CONTINUOUS
 62
     7
100
AcDbLine
 10
-213.672321108658
 20
209.211538572177
 30
0.0
 11
-208.764843820546
 21
217.711538572177
 31
0.0
  0
LINE
  5
50
330
1F
100
AcDbEntity
  8
1
  6
CONTINUOUS
 62
     7
100
AcDbLine
 10
-208.764843820546
 20
217.711538572177
 30
0.0
 11
-213.672321108658
 21
226.211538572177
 31
0.0
  0
LINE
  5
51
330
1F
100
AcDbEntity
  8
1
  6
CONTINUOUS
 62
     7
100
AcDbLine
 10
-213.672321108658
 20
226.211538572177
 30
0.0
 11
-223.487275684881
 21
226.211538572177
 31
0.0
  0
LINE
  5
52
330
1F
100
AcDbEntity
  8
1
  6
CONTINUOUS
 62
     7
100
AcDbLine
 10
-179.672321108658
 20
226.211538572177
 30
0.0
 11
-189.487275684881
 21
226.211538572177
 31
0.0
  0
LINE
  5
53
330
1F
100
AcDbEntity
  8
1
  6
CONTINUOUS
 62
     7
100
AcDbLine
 10
-174.764843820546
 20
217.711538572177
 30
0.0
 11
-179.672321108658
 21
226.211538572177
 31
0.0
  0
LINE
  5
54
330
1F
100
AcDbEntity
  8
1
  6
CONTINUOUS
 62
     7
100
AcDbLine
 10
-179.672321108658
 20
209.211538572177
 30
0.0
 11
-174.764843820546
 21
217.711538572177
 31
0.0
  0
LINE
  5
55
330
1F
100
AcDbEntity
  8
1
  6
CONTINUOUS
 62
     7
100
AcDbLine
 10
-189.487275684881
 20
209.211538572177
 30
0.0
 11
-179.672321108658
 21
209.211538572177
 31
0.0
  0
LINE
  5
56
330
1F
100
AcDbEntity
  8
1
  6
CONTINUOUS
 62
     7
100
AcDbLine
 10
-194.394752972993
 20
217.711538572177
 30
0.0
 11
-189.487275684881
 21
209.211538572177
 31
0.0
  0
LINE
  5
57
330
1F
100
AcDbEntity
  8
1
  6
CONTINUOUS
 62
     7
100
AcDbLine
 10
-189.487275684881
 20
226.211538572177
 30
0.0
 11
-194.394752972993
 21
217.711538572177
 31
0.0
  0
LINE
  5
58
330
1F
100
AcDbEntity
  8
1
  6
CONTINUOUS
 62
     7
100
AcDbLine
 10
-188.815092514416
 20
217.711538572177
 30
0.0
 11
-180.344504279122
 21
217.711538572177
 31
0.0
  0
LINE
  5
59
330
1F
100
AcDbEntity
  8
1
  6
CONTINUOUS
 62
     7
100
AcDbLine
 10
-184.579798396769
 20
221.946832689824
 30
0.0
 11
-184.579798396769
 21
213.47624445453
 31
0.0
  0
LINE
  5
5A
330
1F
100
AcDbEntity
  8
1
  6
CONTINUOUS
 62
     7
100
AcDbLine
 10
-150.579798396769
 20
221.946832689824
 30
0.0
 11
-150.579798396769
 21
213.47624445453
 31
0.0
  0
LINE
  5
5B
330
1F
100
AcDbEntity
  8
1
  6
CONTINUOUS
 62
     7
100
AcDbLine
 10
-154.815092514416
 20
217.711538572177
 30
0.0
 11
-146.344504279122
 21
217.711538572177
 31
0.0
  0
LINE
  5
5C
330
1F
100
AcDbEntity
  8
1
  6
CONTINUOUS
 62
     7
100
AcDbLine
 10
-155.487275684881
 20
226.211538572177
 30
0.0
 11
-160.394752972993
 21
217.711538572177
 31
0.0
  0
LINE
  5
5D
330
1F
100
AcDbEntity
  8
1
  6
CONTINUOUS
 62
     7
100
AcDbLine
 10
-160.394752972993
 20
217.711538572177
 30
0.0
 11
-155.487275684881
 21
209.211538572177
 31
0.0
  0
LINE
  5
5E
330
1F
100
AcDbEntity
  8
1
  6
CONTINUOUS
 62
     7
100
AcDbLine
 10
-155.487275684881
 20
209.211538572177
 30
0.0
 11
-145.672321108658
 21
209.211538572177
 31
0.0
  0
LINE
  5
5F
330
1F
100
AcDbEntity
  8
1
  6
CONTINUOUS
 62
     7
100
AcDbLine
 10
-145.672321108658
 20
209.211538572177
 30
0.0
 11
-140.764843820546
 21
217.711538572177
 31
0.0
  0
LINE
  5
60
330
1F
100
AcDbEntity
  8
1
  6
CONTINUOUS
 62
     7
100
AcDbLine
 10
-140.764843820546
 20
217.711538572177
 30
0.0
 11
-145.672321108658
 21
226.211538572177
 31
0.0
  0
LINE
  5
61
330
1F
100
AcDbEntity
  8
1
  6
CONTINUOUS
 62
     7
100
AcDbLine
 10
-145.672321108658
 20
226.211538572177
 30
0.0
 11
-155.487275684881
 21
226.211538572177
 31
0.0
  0
LINE
  5
62
330
1F
100
AcDbEntity
  8
1
  6
CONTINUOUS
 62
     7
100
AcDbLine
 10
-111.672321108658
 20
226.211538572177
 30
0.0
 11
-121.487275684881
 21
226.211538572177
 31
0.0
  0
LINE
  5
63
330
1F
100
AcDbEntity
  8
1
  6
CONTINUOUS
 62
     7
100
AcDbLine
 10
-106.764843820546
 20
217.711538572177
 30
0.0
 11
-111.672321108658
 21
226.211538572177
 31
0.0
  0
LINE
  5
64
330
1F
100
AcDbEntity
  8
1
  6
CONTINUOUS
 62
     7
100
AcDbLine
 10
-111.672321108658
 20
209.211538572177
 30
0.0
 11
-106.764843820546
 21
217.711538572177
 31
0.0
  0
LINE
  5
65
330
1F
100
AcDbEntity
  8
1
  6
CONTINUOUS
 62
     7
100
AcDbLine
 10
-121.487275684881
 20
209.211538572177
 30
0.0
 11
-111.672321108658
 21
209.211538572177
 31
0.0
  0
LINE
  5
66
330
1F
100
AcDbEntity
  8
1
  6
CONTINUOUS
 62
     7
100
AcDbLine
 10
-126.394752972993
 20
217.711538572177
 30
0.0
 11
-121.487275684881
 21
209.211538572177
 31
0.0
  0
LINE
  5
67
330
1F
100
AcDbEntity
  8
1
  6
CONTINUOUS
 62
     7
100
AcDbLine
 10
-121.487275684881
 20
226.211538572177
 30
0.0
 11
-126.394752972993
 21
217.711538572177
 31
0.0
  0
LINE
  5
68
330
1F
100
AcDbEntity
  8
1
  6
CONTINUOUS
 62
     7
100
AcDbLine
 10
-120.815092514416
 20
217.711538572177
 30
0.0
 11
-112.344504279122
 21
217.711538572177
 31
0.0
  0
LINE
  5
69
330
1F
100
AcDbEntity
  8
1
  6
CONTINUOUS
 62
     7
100
AcDbLine
 10
-116.579798396769
 20
221.946832689824
 30
0.0
 11
-116.579798396769
 21
213.47624445453
 31
0.0
  0
LINE
  5
6A
330
1F
100
AcDbEntity
  8
1
  6
CONTINUOUS
 62
     7
100
AcDbLine
 10
-82.57979839676941
 20
221.946832689824
 30
0.0
 11
-82.57979839676941
 21
213.47624445453
 31
0.0
  0
LINE
  5
6B
330
1F
100
AcDbEntity
  8
1
  6
CONTINUOUS
 62
     7
100
AcDbLine
 10
-86.81509251441641
 20
217.711538572177
 30
0.0
 11
-78.34450427912221
 21
217.711538572177
 31
0.0
  0
LINE
  5
6C
330
1F
100
AcDbEntity
  8
1
  6
CONTINUOUS
 62
     7
100
AcDbLine
 10
-87.4872756848812
 20
226.211538572177
 30
0.0
 11
-92.394752972993
 21
217.711538572177
 31
0.0
  0
LINE
  5
6D
330
1F
100
AcDbEntity
  8
1
  6
CONTINUOUS
 62
     7
100
AcDbLine
 10
-92.394752972993
 20
217.711538572177
 30
0.0
 11
-87.4872756848812
 21
209.211538572177
 31
0.0
  0
LINE
  5
6E
330
1F
100
AcDbEntity
  8
1
  6
CONTINUOUS
 62
     7
100
AcDbLine
 10
-87.4872756848812
 20
209.211538572177
 30
0.0
 11
-77.6723211086576
 21
209.211538572177
 31
0.0
  0
LINE
  5
6F
330
1F
100
AcDbEntity
  8
1
  6
CONTINUOUS
 62
     7
100
AcDbLine
 10
-77.6723211086576
 20
209.211538572177
 30
0.0
 11
-72.76484382054581
 21
217.711538572177
 31
0.0
  0
LINE
  5
70
330
1F
100
AcDbEntity
  8
1
  6
CONTINUOUS
 62
     7
100
AcDbLine
 10
-72.76484382054581
 20
217.711538572177
 30
0.0
 11
-77.6723211086576
 21
226.211538572177
 31
0.0
  0
LINE
  5
71
330
1F
100
AcDbEntity
  8
1
  6
CONTINUOUS
 62
     7
100
AcDbLine
 10
-77.6723211086576
 20
226.211538572177
 30
0.0
 11
-87.4872756848812
 21
226.211538572177
 31
0.0
  0
LINE
  5
72
330
1F
100
AcDbEntity
  8
1
  6
CONTINUOUS
 62
     7
100
AcDbLine
 10
-383.672321108658
 20
226.211538572177
 30
0.0
 11
-393.487275684881
 21
226.211538572177
 31
0.0
  0
LINE
  5
73
330
1F
100
AcDbEntity
  8
1
  6
CONTINUOUS
 62
     7
100
AcDbLine
 10
-378.764843820546
 20
217.711538572177
 30
0.0
 11
-383.672321108658
 21
226.211538572177
 31
0.0
  0
LINE
  5
74
330
1F
100
AcDbEntity
  8
1
  6
CONTINUOUS
 62
     7
100
AcDbLine
 10
-383.672321108658
 20
209.211538572177
 30
0.0
 11
-378.764843820546
 21
217.711538572177
 31
0.0
  0
LINE
  5
75
330
1F
100
AcDbEntity
  8
1
  6
CONTINUOUS
 62
     7
100
AcDbLine
 10
-393.487275684881
 20
209.211538572177
 30
0.0
 11
-383.672321108658
 21
209.211538572177
 31
0.0
  0
LINE
  5
76
330
1F
100
AcDbEntity
  8
1
  6
CONTINUOUS
 62
     7
100
AcDbLine
 10
-398.394752972993
 20
217.711538572177
 30
0.0
 11
-393.487275684881
 21
209.211538572177
 31
0.0
  0
LINE
  5
77
330
1F
100
AcDbEntity
  8
1
  6
CONTINUOUS
 62
     7
100
AcDbLine
 10
-393.487275684881
 20
226.211538572177
 30
0.0
 11
-398.394752972993
 21
217.711538572177
 31
0.0
  0
LINE
  5
78
330
1F
100
AcDbEntity
  8
1
  6
CONTINUOUS
 62
     7
100
AcDbLine
 10
-392.815092514416
 20
217.711538572177
 30
0.0
 11
-384.344504279122
 21
217.711538572177
 31
0.0
  0
LINE
  5
79
330
1F
100
AcDbEntity
  8
1
  6
CONTINUOUS
 62
     7
100
AcDbLine
 10
-388.579798396769
 20
221.946832689824
 30
0.0
 11
-388.579798396769
 21
213.47624445453
 31
0.0
  0
LINE
  5
7A
330
1F
100
AcDbEntity
  8
1
  6
CONTINUOUS
 62
     7
100
AcDbLine
 10
-354.579798396769
 20
221.946832689824
 30
0.0
 11
-354.579798396769
 21
213.47624445453
 31
0.0
  0
LINE
  5
7B
330
1F
100
AcDbEntity
  8
1
  6
CONTINUOUS
 62
     7
100
AcDbLine
 10
-358.815092514416
 20
217.711538572177
 30
0.0
 11
-350.344504279122
 21
217.711538572177
 31
0.0
  0
LINE
  5
7C
330
1F
100
AcDbEntity
  8
1
  6
CONTINUOUS
 62
     7
100
AcDbLine
 10
-359.487275684881
 20
226.211538572177
 30
0.0
 11
-364.394752972993
 21
217.711538572177
 31
0.0
  0
LINE
  5
7D
330
1F
100
AcDbEntity
  8
1
  6
CONTINUOUS
 62
     7
100
AcDbLine
 10
-364.394752972993
 20
217.711538572177
 30
0.0
 11
-359.487275684881
 21
209.211538572177
 31
0.0
  0
LINE
  5
7E
330
1F
100
AcDbEntity
  8
1
  6
CONTINUOUS
 62
     7
100
AcDbLine
 10
-359.487275684881
 20
209.211538572177
 30
0.0
 11
-349.672321108658
 21
209.211538572177
 31
0.0
  0
LINE
  5
7F
330
1F
100
AcDbEntity
  8
1
  6
CONTINUOUS
 62
     7
100
AcDbLine
 10
-349.672321108658
 20
209.211538572177
 30
0.0
 11
-344.764843820546
 21
217.711538572177
 31
0.0
  0
LINE
  5
80
330
1F
100
AcDbEntity
  8
1
  6
CONTINUOUS
 62
     7
100
AcDbLine
 10
-344.764843820546
 20
217.711538572177
 30
0.0
 11
-349.672321108658
 21
226.211538572177
 31
0.0
  0
LINE
  5
81
330
1F
100
AcDbEntity
  8
1
  6
CONTINUOUS
 62
     7
100
AcDbLine
 10
-349.672321108658
 20
226.211538572177
 30
0.0
 11
-359.487275684881
 21
226.211538572177
 31
0.0
  0
LINE
  5
82
330
1F
100
AcDbEntity
  8
1
  6
CONTINUOUS
 62
     7
100
AcDbLine
 10
-388.579798396769
 20
181.946832689824
 30
0.0
 11
-388.579798396769
 21
173.47624445453
 31
0.0
  0
LINE
  5
83
330
1F
100
AcDbEntity
  8
1
  6
CONTINUOUS
 62
     7
100
AcDbLine
 10
-392.815092514416
 20
177.711538572177
 30
0.0
 11
-384.344504279122
 21
177.711538572177
 31
0.0
  0
LINE
  5
84
330
1F
100
AcDbEntity
  8
1
  6
CONTINUOUS
 62
     7
100
AcDbLine
 10
-393.487275684881
 20
186.211538572177
 30
0.0
 11
-398.394752972993
 21
177.711538572177
 31
0.0
  0
LINE
  5
85
330
1F
100
AcDbEntity
  8
1
  6
CONTINUOUS
 62
     7
100
AcDbLine
 10
-398.394752972993
 20
177.711538572177
 30
0.0
 11
-393.487275684881
 21
169.211538572177
 31
0.0
  0
LINE
  5
86
330
1F
100
AcDbEntity
  8
1
  6
CONTINUOUS
 62
     7
100
AcDbLine
 10
-393.487275684881
 20
169.211538572177
 30
0.0
 11
-383.672321108658
 21
169.211538572177
 31
0.0
  0
LINE
  5
87
330
1F
100
AcDbEntity
  8
1
  6
CONTINUOUS
 62
     7
100
AcDbLine
 10
-383.672321108658
 20
169.211538572177
 30
0.0
 11
-378.764843820546
 21
177.711538572177
 31
0.0
  0
LINE
  5
88
330
1F
100
AcDbEntity
  8
1
  6
CONTINUOUS
 62
     7
100
AcDbLine
 10
-378.764843820546
 20
177.711538572177
 30
0.0
 11
-383.672321108658
 21
186.211538572177
 31
0.0
  0
LINE
  5
89
330
1F
100
AcDbEntity
  8
1
  6
CONTINUOUS
 62
     7
100
AcDbLine
 10
-383.672321108658
 20
186.211538572177
 30
0.0
 11
-393.487275684881
 21
186.211538572177
 31
0.0
  0
LINE
  5
8A
330
1F
100
AcDbEntity
  8
1
  6
CONTINUOUS
 62
     7
100
AcDbLine
 10
-320.579798396769
 20
238.711538572177
 30
0.0
 11
-320.579798396769
 21
228.811538572177
 31
0.0
  0
LINE
  5
8B
330
1F
100
AcDbEntity
  8
1
  6
CONTINUOUS
 62
     7
100
AcDbLine
 10
-286.579798396769
 20
238.711538572177
 30
0.0
 11
-286.579798396769
 21
228.811538572177
 31
0.0
  0
LINE
  5
8C
330
1F
100
AcDbEntity
  8
1
  6
CONTINUOUS
 62
     7
100
AcDbLine
 10
-252.579798396769
 20
238.711538572177
 30
0.0
 11
-252.579798396769
 21
228.811538572177
 31
0.0
  0
LINE
  5
8D
330
1F
100
AcDbEntity
  8
1
  6
CONTINUOUS
 62
     7
100
AcDbLine
 10
-218.579798396769
 20
238.711538572177
 30
0.0
 11
-218.579798396769
 21
228.811538572177
 31
0.0
  0
LINE
  5
8E
330
1F
100
AcDbEntity
  8
1
  6
CONTINUOUS
 62
     7
100
AcDbLine
 10
-184.579798396769
 20
238.711538572177
 30
0.0
 11
-184.579798396769
 21
228.811538572177
 31
0.0
  0
LINE
  5
8F
330
1F
100
AcDbEntity
  8
1
  6
CONTINUOUS
 62
     7
100
AcDbLine
 10
-150.579798396769
 20
238.711538572177
 30
0.0
 11
-150.579798396769
 21
228.811538572177
 31
0.0
  0
LINE
  5
90
330
1F
100
AcDbEntity
  8
1
  6
CONTINUOUS
 62
     7
100
AcDbLine
 10
-116.579798396769
 20
238.711538572177
 30
0.0
 11
-116.579798396769
 21
228.811538572177
 31
0.0
  0
LINE
  5
91
330
1F
100
AcDbEntity
  8
1
  6
CONTINUOUS
 62
     7
100
AcDbLine
 10
-335.179798396769
 20
202.711538572177
 30
0.0
 11
-305.979798396769
 21
202.711538572177
 31
0.0
  0
LINE
  5
92
330
1F
100
AcDbEntity
  8
1
  6
CONTINUOUS
 62
     7
100
AcDbLine
 10
-52.2797983967688
 20
197.711538572177
 30
0.0
 11
-63.8797983967689
 21
197.711538572177
 31
0.0
  0
LINE
  5
93
330
1F
100
AcDbEntity
  8
1
  6
CONTINUOUS
 62
     7
100
AcDbLine
 10
-407.279798396769
 20
197.711538572177
 30
0.0
 11
-418.879798396769
 21
197.711538572177
 31
0.0
  0
LINE
  5
94
330
1F
100
AcDbEntity
  8
1
  6
CONTINUOUS
 62
     7
100
AcDbLine
 10
-67.9797983967693
 20
191.711538572177
 30
0.0
 11
-67.9797983967693
 21
155.961538572177
 31
0.0
  0
LINE
  5
95
330
1F
100
AcDbEntity
  8
1
  6
CONTINUOUS
 62
     7
100
AcDbLine
 10
-67.9797983967693
 20
203.711538572177
 30
0.0
 11
-67.9797983967693
 21
191.711538572177
 31
0.0
  0
LINE
  5
96
330
1F
100
AcDbEntity
  8
1
  6
CONTINUOUS
 62
     7
100
AcDbLine
 10
-58.5797983967689
 20
191.711538572177
 30
0.0
 11
-67.9797983967693
 21
191.711538572177
 31
0.0
  0
LINE
  5
97
330
1F
100
AcDbEntity
  8
1
  6
CONTINUOUS
 62
     7
100
AcDbLine
 10
-97.1797983967693
 20
239.461538572177
 30
0.0
 11
-101.979798396769
 21
239.461538572177
 31
0.0
  0
LINE
  5
98
330
1F
100
AcDbEntity
  8
1
  6
CONTINUOUS
 62
     7
100
AcDbLine
 10
-101.979798396769
 20
155.961538572177
 30
0.0
 11
-97.1797983967693
 21
155.961538572177
 31
0.0
  0
LINE
  5
99
330
1F
100
AcDbEntity
  8
1
  6
CONTINUOUS
 62
     7
100
AcDbLine
 10
-77.6723211086576
 20
186.211538572177
 30
0.0
 11
-87.4872756848812
 21
186.211538572177
 31
0.0
  0
LINE
  5
9A
330
1F
100
AcDbEntity
  8
1
  6
CONTINUOUS
 62
     7
100
AcDbLine
 10
-72.76484382054581
 20
177.711538572177
 30
0.0
 11
-77.6723211086576
 21
186.211538572177
 31
0.0
  0
LINE
  5
9B
330
1F
100
AcDbEntity
  8
1
  6
CONTINUOUS
 62
     7
100
AcDbLine
 10
-77.6723211086576
 20
169.211538572177
 30
0.0
 11
-72.76484382054581
 21
177.711538572177
 31
0.0
  0
LINE
  5
9C
330
1F
100
AcDbEntity
  8
1
  6
CONTINUOUS
 62
     7
100
AcDbLine
 10
-87.4872756848812
 20
169.211538572177
 30
0.0
 11
-77.6723211086576
 21
169.211538572177
 31
0.0
  0
LINE
  5
9D
330
1F
100
AcDbEntity
  8
1
  6
CONTINUOUS
 62
     7
100
AcDbLine
 10
-92.394752972993
 20
177.711538572177
 30
0.0
 11
-87.4872756848812
 21
169.211538572177
 31
0.0
  0
LINE
  5
9E
330
1F
100
AcDbEntity
  8
1
  6
CONTINUOUS
 62
     7
100
AcDbLine
 10
-87.4872756848812
 20
186.211538572177
 30
0.0
 11
-92.394752972993
 21
177.711538572177
 31
0.0
  0
LINE
  5
9F
330
1F
100
AcDbEntity
  8
1
  6
CONTINUOUS
 62
     7
100
AcDbLine
 10
-86.81509251441641
 20
177.711538572177
 30
0.0
 11
-78.34450427912221
 21
177.711538572177
 31
0.0
  0
LINE
  5
A0
330
1F
100
AcDbEntity
  8
1
  6
CONTINUOUS
 62
     7
100
AcDbLine
 10
-82.57979839676941
 20
181.946832689824
 30
0.0
 11
-82.57979839676941
 21
173.47624445453
 31
0.0
  0
LINE
  5
A1
330
1F
100
AcDbEntity
  8
1
  6
CONTINUOUS
 62
     7
100
AcDbLine
 10
-69.57979839676941
 20
228.711538572177
 30
0.0
 11
-95.57979839676941
 21
228.711538572177
 31
0.0
  0
LINE
  5
A2
330
1F
100
AcDbEntity
  8
1
  6
CONTINUOUS
 62
     7
100
AcDbLine
 10
-96.57979839676941
 20
227.711538572177
 30
0.0
 11
-96.57979839676941
 21
202.711538572177
 31
0.0
  0
LINE
  5
A3
330
1F
100
AcDbEntity
  8
1
  6
CONTINUOUS
 62
     7
100
AcDbLine
 10
-68.57979839676941
 20
202.711538572177
 30
0.0
 11
-68.57979839676941
 21
227.711538572177
 31
0.0
  0
LINE
  5
A4
330
1F
100
AcDbEntity
  8
1
  6
CONTINUOUS
 62
     7
100
AcDbLine
 10
-96.57979839676941
 20
192.711538572177
 30
0.0
 11
-96.57979839676941
 21
167.711538572177
 31
0.0
  0
LINE
  5
A5
330
1F
100
AcDbEntity
  8
1
  6
CONTINUOUS
 62
     7
100
AcDbLine
 10
-95.57979839676941
 20
166.711538572177
 30
0.0
 11
-69.57979839676941
 21
166.711538572177
 31
0.0
  0
LINE
  5
A6
330
1F
100
AcDbEntity
  8
1
  6
CONTINUOUS
 62
     7
100
AcDbLine
 10
-68.57979839676941
 20
167.711538572177
 30
0.0
 11
-68.57979839676941
 21
192.711538572177
 31
0.0
  0
LINE
  5
A7
330
1F
100
AcDbEntity
  8
1
  6
CONTINUOUS
 62
     7
100
AcDbLine
 10
-82.57979839676941
 20
238.711538572177
 30
0.0
 11
-82.57979839676941
 21
228.811538572177
 31
0.0
  0
LINE
  5
A8
330
1F
100
AcDbEntity
  8
1
  6
CONTINUOUS
 62
     7
100
AcDbLine
 10
-97.1797983967693
 20
233.711538572177
 30
0.0
 11
-67.9797983967694
 21
233.711538572177
 31
0.0
  0
LINE
  5
A9
330
1F
100
AcDbEntity
  8
1
  6
CONTINUOUS
 62
     7
100
AcDbLine
 10
-97.1797983967693
 20
202.711538572177
 30
0.0
 11
-67.9797983967694
 21
202.711538572177
 31
0.0
  0
LINE
  5
AA
330
1F
100
AcDbEntity
  8
1
  6
CONTINUOUS
 62
     7
100
AcDbLine
 10
-97.1797983967693
 20
192.711538572177
 30
0.0
 11
-67.9797983967694
 21
192.711538572177
 31
0.0
  0
LINE
  5
AB
330
1F
100
AcDbEntity
  8
1
  6
CONTINUOUS
 62
     7
100
AcDbLine
 10
-82.57979839676941
 20
166.611538572177
 30
0.0
 11
-82.57979839676941
 21
156.711538572177
 31
0.0
  0
LINE
  5
AC
330
1F
100
AcDbEntity
  8
1
  6
CONTINUOUS
 62
     7
100
AcDbLine
 10
-67.9797983967694
 20
161.711538572177
 30
0.0
 11
-97.1797983967693
 21
161.711538572177
 31
0.0
  0
LINE
  5
AD
330
1F
100
AcDbEntity
  8
1
  6
CONTINUOUS
 62
     7
100
AcDbLine
 10
-97.1797983967693
 20
156.711538572177
 30
0.0
 11
-67.9797983967693
 21
156.711538572177
 31
0.0
  0
LINE
  5
AE
330
1F
100
AcDbEntity
  8
1
  6
CONTINUOUS
 62
     7
100
AcDbLine
 10
-67.9797983967693
 20
238.711538572177
 30
0.0
 11
-97.1797983967693
 21
238.711538572177
 31
0.0
  0
LINE
  5
AF
330
1F
100
AcDbEntity
  8
1
  6
CONTINUOUS
 62
     7
100
AcDbLine
 10
-97.1797983967693
 20
155.961538572177
 30
0.0
 11
-97.1797983967693
 21
239.461538572177
 31
0.0
  0
LINE
  5
B0
330
1F
100
AcDbEntity
  8
1
  6
CONTINUOUS
 62
     7
100
AcDbLine
 10
-67.9797983967693
 20
239.461538572177
 30
0.0
 11
-67.9797983967693
 21
203.711538572177
 31
0.0
  0
LINE
  5
B1
330
1F
100
AcDbEntity
  8
1
  6
CONTINUOUS
 62
     7
100
AcDbLine
 10
-135.979798396769
 20
155.961538572177
 30
0.0
 11
-131.179798396769
 21
155.961538572177
 31
0.0
  0
LINE
  5
B2
330
1F
100
AcDbEntity
  8
1
  6
CONTINUOUS
 62
     7
100
AcDbLine
 10
-131.179798396769
 20
239.461538572177
 30
0.0
 11
-135.979798396769
 21
239.461538572177
 31
0.0
  0
LINE
  5
B3
330
1F
100
AcDbEntity
  8
1
  6
CONTINUOUS
 62
     7
100
AcDbLine
 10
-101.979798396769
 20
239.461538572177
 30
0.0
 11
-101.979798396769
 21
155.961538572177
 31
0.0
  0
LINE
  5
B4
330
1F
100
AcDbEntity
  8
1
  6
CONTINUOUS
 62
     7
100
AcDbLine
 10
-131.179798396769
 20
155.961538572177
 30
0.0
 11
-131.179798396769
 21
239.461538572177
 31
0.0
  0
LINE
  5
B5
330
1F
100
AcDbEntity
  8
1
  6
CONTINUOUS
 62
     7
100
AcDbLine
 10
-101.979798396769
 20
238.711538572177
 30
0.0
 11
-131.179798396769
 21
238.711538572177
 31
0.0
  0
LINE
  5
B6
330
1F
100
AcDbEntity
  8
1
  6
CONTINUOUS
 62
     7
100
AcDbLine
 10
-131.179798396769
 20
156.711538572177
 30
0.0
 11
-101.979798396769
 21
156.711538572177
 31
0.0
  0
LINE
  5
B7
330
1F
100
AcDbEntity
  8
1
  6
CONTINUOUS
 62
     7
100
AcDbLine
 10
-101.979798396769
 20
161.711538572177
 30
0.0
 11
-131.179798396769
 21
161.711538572177
 31
0.0
  0
LINE
  5
B8
330
1F
100
AcDbEntity
  8
1
  6
CONTINUOUS
 62
     7
100
AcDbLine
 10
-116.579798396769
 20
166.611538572177
 30
0.0
 11
-116.579798396769
 21
156.711538572177
 31
0.0
  0
LINE
  5
B9
330
1F
100
AcDbEntity
  8
1
  6
CONTINUOUS
 62
     7
100
AcDbLine
 10
-131.179798396769
 20
192.711538572177
 30
0.0
 11
-101.979798396769
 21
192.711538572177
 31
0.0
  0
LINE
  5
BA
330
1F
100
AcDbEntity
  8
1
  6
CONTINUOUS
 62
     7
100
AcDbLine
 10
-131.179798396769
 20
202.711538572177
 30
0.0
 11
-101.979798396769
 21
202.711538572177
 31
0.0
  0
LINE
  5
BB
330
1F
100
AcDbEntity
  8
1
  6
CONTINUOUS
 62
     7
100
AcDbLine
 10
-131.179798396769
 20
233.711538572177
 30
0.0
 11
-101.979798396769
 21
233.711538572177
 31
0.0
  0
LINE
  5
BC
330
1F
100
AcDbEntity
  8
1
  6
CONTINUOUS
 62
     7
100
AcDbLine
 10
-102.579798396769
 20
167.711538572177
 30
0.0
 11
-102.579798396769
 21
192.711538572177
 31
0.0
  0
LINE
  5
BD
330
1F
100
AcDbEntity
  8
1
  6
CONTINUOUS
 62
     7
100
AcDbLine
 10
-129.579798396769
 20
166.711538572177
 30
0.0
 11
-103.579798396769
 21
166.711538572177
 31
0.0
  0
LINE
  5
BE
330
1F
100
AcDbEntity
  8
1
  6
CONTINUOUS
 62
     7
100
AcDbLine
 10
-130.579798396769
 20
192.711538572177
 30
0.0
 11
-130.579798396769
 21
167.711538572177
 31
0.0
  0
LINE
  5
BF
330
1F
100
AcDbEntity
  8
1
  6
CONTINUOUS
 62
     7
100
AcDbLine
 10
-102.579798396769
 20
202.711538572177
 30
0.0
 11
-102.579798396769
 21
227.711538572177
 31
0.0
  0
LINE
  5
C0
330
1F
100
AcDbEntity
  8
1
  6
CONTINUOUS
 62
     7
100
AcDbLine
 10
-130.579798396769
 20
227.711538572177
 30
0.0
 11
-130.579798396769
 21
202.711538572177
 31
0.0
  0
LINE
  5
C1
330
1F
100
AcDbEntity
  8
1
  6
CONTINUOUS
 62
     7
100
AcDbLine
 10
-103.579798396769
 20
228.711538572177
 30
0.0
 11
-129.579798396769
 21
228.711538572177
 31
0.0
  0
LINE
  5
C2
330
1F
100
AcDbEntity
  8
1
  6
CONTINUOUS
 62
     7
100
AcDbLine
 10
-116.579798396769
 20
181.946832689824
 30
0.0
 11
-116.579798396769
 21
173.47624445453
 31
0.0
  0
LINE
  5
C3
330
1F
100
AcDbEntity
  8
1
  6
CONTINUOUS
 62
     7
100
AcDbLine
 10
-120.815092514416
 20
177.711538572177
 30
0.0
 11
-112.344504279122
 21
177.711538572177
 31
0.0
  0
LINE
  5
C4
330
1F
100
AcDbEntity
  8
1
  6
CONTINUOUS
 62
     7
100
AcDbLine
 10
-121.487275684881
 20
186.211538572177
 30
0.0
 11
-126.394752972993
 21
177.711538572177
 31
0.0
  0
LINE
  5
C5
330
1F
100
AcDbEntity
  8
1
  6
CONTINUOUS
 62
     7
100
AcDbLine
 10
-126.394752972993
 20
177.711538572177
 30
0.0
 11
-121.487275684881
 21
169.211538572177
 31
0.0
  0
LINE
  5
C6
330
1F
100
AcDbEntity
  8
1
  6
CONTINUOUS
 62
     7
100
AcDbLine
 10
-121.487275684881
 20
169.211538572177
 30
0.0
 11
-111.672321108658
 21
169.211538572177
 31
0.0
  0
LINE
  5
C7
330
1F
100
AcDbEntity
  8
1
  6
CONTINUOUS
 62
     7
100
AcDbLine
 10
-111.672321108658
 20
169.211538572177
 30
0.0
 11
-106.764843820546
 21
177.711538572177
 31
0.0
  0
LINE
  5
C8
330
1F
100
AcDbEntity
  8
1
  6
CONTINUOUS
 62
     7
100
AcDbLine
 10
-106.764843820546
 20
177.711538572177
 30
0.0
 11
-111.672321108658
 21
186.211538572177
 31
0.0
  0
LINE
  5
C9
330
1F
100
AcDbEntity
  8
1
  6
CONTINUOUS
 62
     7
100
AcDbLine
 10
-111.672321108658
 20
186.211538572177
 30
0.0
 11
-121.487275684881
 21
186.211538572177
 31
0.0
  0
LINE
  5
CA
330
1F
100
AcDbEntity
  8
1
  6
CONTINUOUS
 62
     7
100
AcDbLine
 10
-165.179798396769
 20
239.461538572177
 30
0.0
 11
-169.979798396769
 21
239.461538572177
 31
0.0
  0
LINE
  5
CB
330
1F
100
AcDbEntity
  8
1
  6
CONTINUOUS
 62
     7
100
AcDbLine
 10
-169.979798396769
 20
155.961538572177
 30
0.0
 11
-165.179798396769
 21
155.961538572177
 31
0.0
  0
LINE
  5
CC
330
1F
100
AcDbEntity
  8
1
  6
CONTINUOUS
 62
     7
100
AcDbLine
 10
-145.672321108658
 20
186.211538572177
 30
0.0
 11
-155.487275684881
 21
186.211538572177
 31
0.0
  0
LINE
  5
CD
330
1F
100
AcDbEntity
  8
1
  6
CONTINUOUS
 62
     7
100
AcDbLine
 10
-140.764843820546
 20
177.711538572177
 30
0.0
 11
-145.672321108658
 21
186.211538572177
 31
0.0
  0
LINE
  5
CE
330
1F
100
AcDbEntity
  8
1
  6
CONTINUOUS
 62
     7
100
AcDbLine
 10
-145.672321108658
 20
169.211538572177
 30
0.0
 11
-140.764843820546
 21
177.711538572177
 31
0.0
  0
LINE
  5
CF
330
1F
100
AcDbEntity
  8
1
  6
CONTINUOUS
 62
     7
100
AcDbLine
 10
-155.487275684881
 20
169.211538572177
 30
0.0
 11
-145.672321108658
 21
169.211538572177
 31
0.0
  0
LINE
  5
D0
330
1F
100
AcDbEntity
  8
1
  6
CONTINUOUS
 62
     7
100
AcDbLine
 10
-160.394752972993
 20
177.711538572177
 30
0.0
 11
-155.487275684881
 21
169.211538572177
 31
0.0
  0
LINE
  5
D1
330
1F
100
AcDbEntity
  8
1
  6
CONTINUOUS
 62
     7
100
AcDbLine
 10
-155.487275684881
 20
186.211538572177
 30
0.0
 11
-160.394752972993
 21
177.711538572177
 31
0.0
  0
LINE
  5
D2
330
1F
100
AcDbEntity
  8
1
  6
CONTINUOUS
 62
     7
100
AcDbLine
 10
-154.815092514416
 20
177.711538572177
 30
0.0
 11
-146.344504279122
 21
177.711538572177
 31
0.0
  0
LINE
  5
D3
330
1F
100
AcDbEntity
  8
1
  6
CONTINUOUS
 62
     7
100
AcDbLine
 10
-150.579798396769
 20
181.946832689824
 30
0.0
 11
-150.579798396769
 21
173.47624445453
 31
0.0
  0
LINE
  5
D4
330
1F
100
AcDbEntity
  8
1
  6
CONTINUOUS
 62
     7
100
AcDbLine
 10
-137.579798396769
 20
228.711538572177
 30
0.0
 11
-163.579798396769
 21
228.711538572177
 31
0.0
  0
LINE
  5
D5
330
1F
100
AcDbEntity
  8
1
  6
CONTINUOUS
 62
     7
100
AcDbLine
 10
-164.579798396769
 20
227.711538572177
 30
0.0
 11
-164.579798396769
 21
202.711538572177
 31
0.0
  0
LINE
  5
D6
330
1F
100
AcDbEntity
  8
1
  6
CONTINUOUS
 62
     7
100
AcDbLine
 10
-136.579798396769
 20
202.711538572177
 30
0.0
 11
-136.579798396769
 21
227.711538572177
 31
0.0
  0
LINE
  5
D7
330
1F
100
AcDbEntity
  8
1
  6
CONTINUOUS
 62
     7
100
AcDbLine
 10
-164.579798396769
 20
192.711538572177
 30
0.0
 11
-164.579798396769
 21
167.711538572177
 31
0.0
  0
LINE
  5
D8
330
1F
100
AcDbEntity
  8
1
  6
CONTINUOUS
 62
     7
100
AcDbLine
 10
-163.579798396769
 20
166.711538572177
 30
0.0
 11
-137.579798396769
 21
166.711538572177
 31
0.0
  0
LINE
  5
D9
330
1F
100
AcDbEntity
  8
1
  6
CONTINUOUS
 62
     7
100
AcDbLine
 10
-136.579798396769
 20
167.711538572177
 30
0.0
 11
-136.579798396769
 21
192.711538572177
 31
0.0
  0
LINE
  5
DA
330
1F
100
AcDbEntity
  8
1
  6
CONTINUOUS
 62
     7
100
AcDbLine
 10
-165.179798396769
 20
233.711538572177
 30
0.0
 11
-135.979798396769
 21
233.711538572177
 31
0.0
  0
LINE
  5
DB
330
1F
100
AcDbEntity
  8
1
  6
CONTINUOUS
 62
     7
100
AcDbLine
 10
-165.179798396769
 20
202.711538572177
 30
0.0
 11
-135.979798396769
 21
202.711538572177
 31
0.0
  0
LINE
  5
DC
330
1F
100
AcDbEntity
  8
1
  6
CONTINUOUS
 62
     7
100
AcDbLine
 10
-165.179798396769
 20
192.711538572177
 30
0.0
 11
-135.979798396769
 21
192.711538572177
 31
0.0
  0
LINE
  5
DD
330
1F
100
AcDbEntity
  8
1
  6
CONTINUOUS
 62
     7
100
AcDbLine
 10
-150.579798396769
 20
166.611538572177
 30
0.0
 11
-150.579798396769
 21
156.711538572177
 31
0.0
  0
LINE
  5
DE
330
1F
100
AcDbEntity
  8
1
  6
CONTINUOUS
 62
     7
100
AcDbLine
 10
-135.979798396769
 20
161.711538572177
 30
0.0
 11
-165.179798396769
 21
161.711538572177
 31
0.0
  0
LINE
  5
DF
330
1F
100
AcDbEntity
  8
1
  6
CONTINUOUS
 62
     7
100
AcDbLine
 10
-165.179798396769
 20
156.711538572177
 30
0.0
 11
-135.979798396769
 21
156.711538572177
 31
0.0
  0
LINE
  5
E0
330
1F
100
AcDbEntity
  8
1
  6
CONTINUOUS
 62
     7
100
AcDbLine
 10
-135.979798396769
 20
238.711538572177
 30
0.0
 11
-165.179798396769
 21
238.711538572177
 31
0.0
  0
LINE
  5
E1
330
1F
100
AcDbEntity
  8
1
  6
CONTINUOUS
 62
     7
100
AcDbLine
 10
-165.179798396769
 20
155.961538572177
 30
0.0
 11
-165.179798396769
 21
239.461538572177
 31
0.0
  0
LINE
  5
E2
330
1F
100
AcDbEntity
  8
1
  6
CONTINUOUS
 62
     7
100
AcDbLine
 10
-135.979798396769
 20
239.461538572177
 30
0.0
 11
-135.979798396769
 21
155.961538572177
 31
0.0
  0
LINE
  5
E3
330
1F
100
AcDbEntity
  8
1
  6
CONTINUOUS
 62
     7
100
AcDbLine
 10
-199.179798396769
 20
239.461538572177
 30
0.0
 11
-203.979798396769
 21
239.461538572177
 31
0.0
  0
LINE
  5
E4
330
1F
100
AcDbEntity
  8
1
  6
CONTINUOUS
 62
     7
100
AcDbLine
 10
-203.979798396769
 20
155.961538572177
 30
0.0
 11
-199.179798396769
 21
155.961538572177
 31
0.0
  0
LINE
  5
E5
330
1F
100
AcDbEntity
  8
1
  6
CONTINUOUS
 62
     7
100
AcDbLine
 10
-169.979798396769
 20
239.461538572177
 30
0.0
 11
-169.979798396769
 21
155.961538572177
 31
0.0
  0
LINE
  5
E6
330
1F
100
AcDbEntity
  8
1
  6
CONTINUOUS
 62
     7
100
AcDbLine
 10
-199.179798396769
 20
155.961538572177
 30
0.0
 11
-199.179798396769
 21
239.461538572177
 31
0.0
  0
LINE
  5
E7
330
1F
100
AcDbEntity
  8
1
  6
CONTINUOUS
 62
     7
100
AcDbLine
 10
-169.979798396769
 20
238.711538572177
 30
0.0
 11
-199.179798396769
 21
238.711538572177
 31
0.0
  0
LINE
  5
E8
330
1F
100
AcDbEntity
  8
1
  6
CONTINUOUS
 62
     7
100
AcDbLine
 10
-199.179798396769
 20
156.711538572177
 30
0.0
 11
-169.979798396769
 21
156.711538572177
 31
0.0
  0
LINE
  5
E9
330
1F
100
AcDbEntity
  8
1
  6
CONTINUOUS
 62
     7
100
AcDbLine
 10
-169.979798396769
 20
161.711538572177
 30
0.0
 11
-199.179798396769
 21
161.711538572177
 31
0.0
  0
LINE
  5
EA
330
1F
100
AcDbEntity
  8
1
  6
CONTINUOUS
 62
     7
100
AcDbLine
 10
-184.579798396769
 20
166.611538572177
 30
0.0
 11
-184.579798396769
 21
156.711538572177
 31
0.0
  0
LINE
  5
EB
330
1F
100
AcDbEntity
  8
1
  6
CONTINUOUS
 62
     7
100
AcDbLine
 10
-199.179798396769
 20
192.711538572177
 30
0.0
 11
-169.979798396769
 21
192.711538572177
 31
0.0
  0
LINE
  5
EC
330
1F
100
AcDbEntity
  8
1
  6
CONTINUOUS
 62
     7
100
AcDbLine
 10
-199.179798396769
 20
202.711538572177
 30
0.0
 11
-169.979798396769
 21
202.711538572177
 31
0.0
  0
LINE
  5
ED
330
1F
100
AcDbEntity
  8
1
  6
CONTINUOUS
 62
     7
100
AcDbLine
 10
-199.179798396769
 20
233.711538572177
 30
0.0
 11
-169.979798396769
 21
233.711538572177
 31
0.0
  0
LINE
  5
EE
330
1F
100
AcDbEntity
  8
1
  6
CONTINUOUS
 62
     7
100
AcDbLine
 10
-170.579798396769
 20
167.711538572177
 30
0.0
 11
-170.579798396769
 21
192.711538572177
 31
0.0
  0
LINE
  5
EF
330
1F
100
AcDbEntity
  8
1
  6
CONTINUOUS
 62
     7
100
AcDbLine
 10
-197.579798396769
 20
166.711538572177
 30
0.0
 11
-171.579798396769
 21
166.711538572177
 31
0.0
  0
LINE
  5
F0
330
1F
100
AcDbEntity
  8
1
  6
CONTINUOUS
 62
     7
100
AcDbLine
 10
-198.579798396769
 20
192.711538572177
 30
0.0
 11
-198.579798396769
 21
167.711538572177
 31
0.0
  0
LINE
  5
F1
330
1F
100
AcDbEntity
  8
1
  6
CONTINUOUS
 62
     7
100
AcDbLine
 10
-170.579798396769
 20
202.711538572177
 30
0.0
 11
-170.579798396769
 21
227.711538572177
 31
0.0
  0
LINE
  5
F2
330
1F
100
AcDbEntity
  8
1
  6
CONTINUOUS
 62
     7
100
AcDbLine
 10
-198.579798396769
 20
227.711538572177
 30
0.0
 11
-198.579798396769
 21
202.711538572177
 31
0.0
  0
LINE
  5
F3
330
1F
100
AcDbEntity
  8
1
  6
CONTINUOUS
 62
     7
100
AcDbLine
 10
-171.579798396769
 20
228.711538572177
 30
0.0
 11
-197.579798396769
 21
228.711538572177
 31
0.0
  0
LINE
  5
F4
330
1F
100
AcDbEntity
  8
1
  6
CONTINUOUS
 62
     7
100
AcDbLine
 10
-184.579798396769
 20
181.946832689824
 30
0.0
 11
-184.579798396769
 21
173.47624445453
 31
0.0
  0
LINE
  5
F5
330
1F
100
AcDbEntity
  8
1
  6
CONTINUOUS
 62
     7
100
AcDbLine
 10
-188.815092514416
 20
177.711538572177
 30
0.0
 11
-180.344504279122
 21
177.711538572177
 31
0.0
  0
LINE
  5
F6
330
1F
100
AcDbEntity
  8
1
  6
CONTINUOUS
 62
     7
100
AcDbLine
 10
-189.487275684881
 20
186.211538572177
 30
0.0
 11
-194.394752972993
 21
177.711538572177
 31
0.0
  0
LINE
  5
F7
330
1F
100
AcDbEntity
  8
1
  6
CONTINUOUS
 62
     7
100
AcDbLine
 10
-194.394752972993
 20
177.711538572177
 30
0.0
 11
-189.487275684881
 21
169.211538572177
 31
0.0
  0
LINE
  5
F8
330
1F
100
AcDbEntity
  8
1
  6
CONTINUOUS
 62
     7
100
AcDbLine
 10
-189.487275684881
 20
169.211538572177
 30
0.0
 11
-179.672321108658
 21
169.211538572177
 31
0.0
  0
LINE
  5
F9
330
1F
100
AcDbEntity
  8
1
  6
CONTINUOUS
 62
     7
100
AcDbLine
 10
-179.672321108658
 20
169.211538572177
 30
0.0
 11
-174.764843820546
 21
177.711538572177
 31
0.0
  0
LINE
  5
FA
330
1F
100
AcDbEntity
  8
1
  6
CONTINUOUS
 62
     7
100
AcDbLine
 10
-174.764843820546
 20
177.711538572177
 30
0.0
 11
-179.672321108658
 21
186.211538572177
 31
0.0
  0
LINE
  5
FB
330
1F
100
AcDbEntity
  8
1
  6
CONTINUOUS
 62
     7
100
AcDbLine
 10
-179.672321108658
 20
186.211538572177
 30
0.0
 11
-189.487275684881
 21
186.211538572177
 31
0.0
  0
LINE
  5
FC
330
1F
100
AcDbEntity
  8
1
  6
CONTINUOUS
 62
     7
100
AcDbLine
 10
-233.179798396769
 20
239.461538572177
 30
0.0
 11
-237.979798396769
 21
239.461538572177
 31
0.0
  0
LINE
  5
FD
330
1F
100
AcDbEntity
  8
1
  6
CONTINUOUS
 62
     7
100
AcDbLine
 10
-237.979798396769
 20
155.961538572177
 30
0.0
 11
-233.179798396769
 21
155.961538572177
 31
0.0
  0
LINE
  5
FE
330
1F
100
AcDbEntity
  8
1
  6
CONTINUOUS
 62
     7
100
AcDbLine
 10
-213.672321108658
 20
186.211538572177
 30
0.0
 11
-223.487275684881
 21
186.211538572177
 31
0.0
  0
LINE
  5
FF
330
1F
100
AcDbEntity
  8
1
  6
CONTINUOUS
 62
     7
100
AcDbLine
 10
-208.764843820546
 20
177.711538572177
 30
0.0
 11
-213.672321108658
 21
186.211538572177
 31
0.0
  0
LINE
  5
100
330
1F
100
AcDbEntity
  8
1
  6
CONTINUOUS
 62
     7
100
AcDbLine
 10
-213.672321108658
 20
169.211538572177
 30
0.0
 11
-208.764843820546
 21
177.711538572177
 31
0.0
  0
LINE
  5
101
330
1F
100
AcDbEntity
  8
1
  6
CONTINUOUS
 62
     7
100
AcDbLine
 10
-223.487275684881
 20
169.211538572177
 30
0.0
 11
-213.672321108658
 21
169.211538572177
 31
0.0
  0
LINE
  5
102
330
1F
100
AcDbEntity
  8
1
  6
CONTINUOUS
 62
     7
100
AcDbLine
 10
-228.394752972993
 20
177.711538572177
 30
0.0
 11
-223.487275684881
 21
169.211538572177
 31
0.0
  0
LINE
  5
103
330
1F
100
AcDbEntity
  8
1
  6
CONTINUOUS
 62
     7
100
AcDbLine
 10
-223.487275684881
 20
186.211538572177
 30
0.0
 11
-228.394752972993
 21
177.711538572177
 31
0.0
  0
LINE
  5
104
330
1F
100
AcDbEntity
  8
1
  6
CONTINUOUS
 62
     7
100
AcDbLine
 10
-222.815092514416
 20
177.711538572177
 30
0.0
 11
-214.344504279122
 21
177.711538572177
 31
0.0
  0
LINE
  5
105
330
1F
100
AcDbEntity
  8
1
  6
CONTINUOUS
 62
     7
100
AcDbLine
 10
-218.579798396769
 20
181.946832689824
 30
0.0
 11
-218.579798396769
 21
173.47624445453
 31
0.0
  0
LINE
  5
106
330
1F
100
AcDbEntity
  8
1
  6
CONTINUOUS
 62
     7
100
AcDbLine
 10
-205.579798396769
 20
228.711538572177
 30
0.0
 11
-231.579798396769
 21
228.711538572177
 31
0.0
  0
LINE
  5
107
330
1F
100
AcDbEntity
  8
1
  6
CONTINUOUS
 62
     7
100
AcDbLine
 10
-232.579798396769
 20
227.711538572177
 30
0.0
 11
-232.579798396769
 21
202.711538572177
 31
0.0
  0
LINE
  5
108
330
1F
100
AcDbEntity
  8
1
  6
CONTINUOUS
 62
     7
100
AcDbLine
 10
-204.579798396769
 20
202.711538572177
 30
0.0
 11
-204.579798396769
 21
227.711538572177
 31
0.0
  0
LINE
  5
109
330
1F
100
AcDbEntity
  8
1
  6
CONTINUOUS
 62
     7
100
AcDbLine
 10
-232.579798396769
 20
192.711538572177
 30
0.0
 11
-232.579798396769
 21
167.711538572177
 31
0.0
  0
LINE
  5
10A
330
1F
100
AcDbEntity
  8
1
  6
CONTINUOUS
 62
     7
100
AcDbLine
 10
-231.579798396769
 20
166.711538572177
 30
0.0
 11
-205.579798396769
 21
166.711538572177
 31
0.0
  0
LINE
  5
10B
330
1F
100
AcDbEntity
  8
1
  6
CONTINUOUS
 62
     7
100
AcDbLine
 10
-204.579798396769
 20
167.711538572177
 30
0.0
 11
-204.579798396769
 21
192.711538572177
 31
0.0
  0
LINE
  5
10C
330
1F
100
AcDbEntity
  8
1
  6
CONTINUOUS
 62
     7
100
AcDbLine
 10
-233.179798396769
 20
233.711538572177
 30
0.0
 11
-203.979798396769
 21
233.711538572177
 31
0.0
  0
LINE
  5
10D
330
1F
100
AcDbEntity
  8
1
  6
CONTINUOUS
 62
     7
100
AcDbLine
 10
-233.179798396769
 20
202.711538572177
 30
0.0
 11
-203.979798396769
 21
202.711538572177
 31
0.0
  0
LINE
  5
10E
330
1F
100
AcDbEntity
  8
1
  6
CONTINUOUS
 62
     7
100
AcDbLine
 10
-233.179798396769
 20
192.711538572177
 30
0.0
 11
-203.979798396769
 21
192.711538572177
 31
0.0
  0
LINE
  5
10F
330
1F
100
AcDbEntity
  8
1
  6
CONTINUOUS
 62
     7
100
AcDbLine
 10
-218.579798396769
 20
166.611538572177
 30
0.0
 11
-218.579798396769
 21
156.711538572177
 31
0.0
  0
LINE
  5
110
330
1F
100
AcDbEntity
  8
1
  6
CONTINUOUS
 62
     7
100
AcDbLine
 10
-203.979798396769
 20
161.711538572177
 30
0.0
 11
-233.179798396769
 21
161.711538572177
 31
0.0
  0
LINE
  5
111
330
1F
100
AcDbEntity
  8
1
  6
CONTINUOUS
 62
     7
100
AcDbLine
 10
-233.179798396769
 20
156.711538572177
 30
0.0
 11
-203.979798396769
 21
156.711538572177
 31
0.0
  0
LINE
  5
112
330
1F
100
AcDbEntity
  8
1
  6
CONTINUOUS
 62
     7
100
AcDbLine
 10
-203.979798396769
 20
238.711538572177
 30
0.0
 11
-233.179798396769
 21
238.711538572177
 31
0.0
  0
LINE
  5
113
330
1F
100
AcDbEntity
  8
1
  6
CONTINUOUS
 62
     7
100
AcDbLine
 10
-233.179798396769
 20
155.961538572177
 30
0.0
 11
-233.179798396769
 21
239.461538572177
 31
0.0
  0
LINE
  5
114
330
1F
100
AcDbEntity
  8
1
  6
CONTINUOUS
 62
     7
100
AcDbLine
 10
-203.979798396769
 20
239.461538572177
 30
0.0
 11
-203.979798396769
 21
155.961538572177
 31
0.0
  0
LINE
  5
115
330
1F
100
AcDbEntity
  8
1
  6
CONTINUOUS
 62
     7
100
AcDbLine
 10
-267.179798396769
 20
239.461538572177
 30
0.0
 11
-271.979798396769
 21
239.461538572177
 31
0.0
  0
LINE
  5
116
330
1F
100
AcDbEntity
  8
1
  6
CONTINUOUS
 62
     7
100
AcDbLine
 10
-271.979798396769
 20
155.961538572177
 30
0.0
 11
-267.179798396769
 21
155.961538572177
 31
0.0
  0
LINE
  5
117
330
1F
100
AcDbEntity
  8
1
  6
CONTINUOUS
 62
     7
100
AcDbLine
 10
-237.979798396769
 20
239.461538572177
 30
0.0
 11
-237.979798396769
 21
155.961538572177
 31
0.0
  0
LINE
  5
118
330
1F
100
AcDbEntity
  8
1
  6
CONTINUOUS
 62
     7
100
AcDbLine
 10
-267.179798396769
 20
155.961538572177
 30
0.0
 11
-267.179798396769
 21
239.461538572177
 31
0.0
  0
LINE
  5
119
330
1F
100
AcDbEntity
  8
1
  6
CONTINUOUS
 62
     7
100
AcDbLine
 10
-237.979798396769
 20
238.711538572177
 30
0.0
 11
-267.179798396769
 21
238.711538572177
 31
0.0
  0
LINE
  5
11A
330
1F
100
AcDbEntity
  8
1
  6
CONTINUOUS
 62
     7
100
AcDbLine
 10
-267.179798396769
 20
156.711538572177
 30
0.0
 11
-237.979798396769
 21
156.711538572177
 31
0.0
  0
LINE
  5
11B
330
1F
100
AcDbEntity
  8
1
  6
CONTINUOUS
 62
     7
100
AcDbLine
 10
-237.979798396769
 20
161.711538572177
 30
0.0
 11
-267.179798396769
 21
161.711538572177
 31
0.0
  0
LINE
  5
11C
330
1F
100
AcDbEntity
  8
1
  6
CONTINUOUS
 62
     7
100
AcDbLine
 10
-252.579798396769
 20
166.611538572177
 30
0.0
 11
-252.579798396769
 21
156.711538572177
 31
0.0
  0
LINE
  5
11D
330
1F
100
AcDbEntity
  8
1
  6
CONTINUOUS
 62
     7
100
AcDbLine
 10
-267.179798396769
 20
192.711538572177
 30
0.0
 11
-237.979798396769
 21
192.711538572177
 31
0.0
  0
LINE
  5
11E
330
1F
100
AcDbEntity
  8
1
  6
CONTINUOUS
 62
     7
100
AcDbLine
 10
-267.179798396769
 20
202.711538572177
 30
0.0
 11
-237.979798396769
 21
202.711538572177
 31
0.0
  0
LINE
  5
11F
330
1F
100
AcDbEntity
  8
1
  6
CONTINUOUS
 62
     7
100
AcDbLine
 10
-267.179798396769
 20
233.711538572177
 30
0.0
 11
-237.979798396769
 21
233.711538572177
 31
0.0
  0
LINE
  5
120
330
1F
100
AcDbEntity
  8
1
  6
CONTINUOUS
 62
     7
100
AcDbLine
 10
-238.579798396769
 20
167.711538572177
 30
0.0
 11
-238.579798396769
 21
192.711538572177
 31
0.0
  0
LINE
  5
121
330
1F
100
AcDbEntity
  8
1
  6
CONTINUOUS
 62
     7
100
AcDbLine
 10
-265.579798396769
 20
166.711538572177
 30
0.0
 11
-239.579798396769
 21
166.711538572177
 31
0.0
  0
LINE
  5
122
330
1F
100
AcDbEntity
  8
1
  6
CONTINUOUS
 62
     7
100
AcDbLine
 10
-266.579798396769
 20
192.711538572177
 30
0.0
 11
-266.579798396769
 21
167.711538572177
 31
0.0
  0
LINE
  5
123
330
1F
100
AcDbEntity
  8
1
  6
CONTINUOUS
 62
     7
100
AcDbLine
 10
-238.579798396769
 20
202.711538572177
 30
0.0
 11
-238.579798396769
 21
227.711538572177
 31
0.0
  0
LINE
  5
124
330
1F
100
AcDbEntity
  8
1
  6
CONTINUOUS
 62
     7
100
AcDbLine
 10
-266.579798396769
 20
227.711538572177
 30
0.0
 11
-266.579798396769
 21
202.711538572177
 31
0.0
  0
LINE
  5
125
330
1F
100
AcDbEntity
  8
1
  6
CONTINUOUS
 62
     7
100
AcDbLine
 10
-239.579798396769
 20
228.711538572177
 30
0.0
 11
-265.579798396769
 21
228.711538572177
 31
0.0
  0
LINE
  5
126
330
1F
100
AcDbEntity
  8
1
  6
CONTINUOUS
 62
     7
100
AcDbLine
 10
-252.579798396769
 20
181.946832689824
 30
0.0
 11
-252.579798396769
 21
173.47624445453
 31
0.0
  0
LINE
  5
127
330
1F
100
AcDbEntity
  8
1
  6
CONTINUOUS
 62
     7
100
AcDbLine
 10
-256.815092514416
 20
177.711538572177
 30
0.0
 11
-248.344504279122
 21
177.711538572177
 31
0.0
  0
LINE
  5
128
330
1F
100
AcDbEntity
  8
1
  6
CONTINUOUS
 62
     7
100
AcDbLine
 10
-257.487275684881
 20
186.211538572177
 30
0.0
 11
-262.394752972993
 21
177.711538572177
 31
0.0
  0
LINE
  5
129
330
1F
100
AcDbEntity
  8
1
  6
CONTINUOUS
 62
     7
100
AcDbLine
 10
-262.394752972993
 20
177.711538572177
 30
0.0
 11
-257.487275684881
 21
169.211538572177
 31
0.0
  0
LINE
  5
12A
330
1F
100
AcDbEntity
  8
1
  6
CONTINUOUS
 62
     7
100
AcDbLine
 10
-257.487275684881
 20
169.211538572177
 30
0.0
 11
-247.672321108658
 21
169.211538572177
 31
0.0
  0
LINE
  5
12B
330
1F
100
AcDbEntity
  8
1
  6
CONTINUOUS
 62
     7
100
AcDbLine
 10
-247.672321108658
 20
169.211538572177
 30
0.0
 11
-242.764843820546
 21
177.711538572177
 31
0.0
  0
LINE
  5
12C
330
1F
100
AcDbEntity
  8
1
  6
CONTINUOUS
 62
     7
100
AcDbLine
 10
-242.764843820546
 20
177.711538572177
 30
0.0
 11
-247.672321108658
 21
186.211538572177
 31
0.0
  0
LINE
  5
12D
330
1F
100
AcDbEntity
  8
1
  6
CONTINUOUS
 62
     7
100
AcDbLine
 10
-247.672321108658
 20
186.211538572177
 30
0.0
 11
-257.487275684881
 21
186.211538572177
 31
0.0
  0
LINE
  5
12E
330
1F
100
AcDbEntity
  8
1
  6
CONTINUOUS
 62
     7
100
AcDbLine
 10
-301.179798396769
 20
239.461538572177
 30
0.0
 11
-305.979798396769
 21
239.461538572177
 31
0.0
  0
LINE
  5
12F
330
1F
100
AcDbEntity
  8
1
  6
CONTINUOUS
 62
     7
100
AcDbLine
 10
-305.979798396769
 20
155.961538572177
 30
0.0
 11
-301.179798396769
 21
155.961538572177
 31
0.0
  0
LINE
  5
130
330
1F
100
AcDbEntity
  8
1
  6
CONTINUOUS
 62
     7
100
AcDbLine
 10
-281.672321108658
 20
186.211538572177
 30
0.0
 11
-291.487275684881
 21
186.211538572177
 31
0.0
  0
LINE
  5
131
330
1F
100
AcDbEntity
  8
1
  6
CONTINUOUS
 62
     7
100
AcDbLine
 10
-276.764843820546
 20
177.711538572177
 30
0.0
 11
-281.672321108658
 21
186.211538572177
 31
0.0
  0
LINE
  5
132
330
1F
100
AcDbEntity
  8
1
  6
CONTINUOUS
 62
     7
100
AcDbLine
 10
-281.672321108658
 20
169.211538572177
 30
0.0
 11
-276.764843820546
 21
177.711538572177
 31
0.0
  0
LINE
  5
133
330
1F
100
AcDbEntity
  8
1
  6
CONTINUOUS
 62
     7
100
AcDbLine
 10
-291.487275684881
 20
169.211538572177
 30
0.0
 11
-281.672321108658
 21
169.211538572177
 31
0.0
  0
LINE
  5
134
330
1F
100
AcDbEntity
  8
1
  6
CONTINUOUS
 62
     7
100
AcDbLine
 10
-296.394752972993
 20
177.711538572177
 30
0.0
 11
-291.487275684881
 21
169.211538572177
 31
0.0
  0
LINE
  5
135
330
1F
100
AcDbEntity
  8
1
  6
CONTINUOUS
 62
     7
100
AcDbLine
 10
-291.487275684881
 20
186.211538572177
 30
0.0
 11
-296.394752972993
 21
177.711538572177
 31
0.0
  0
LINE
  5
136
330
1F
100
AcDbEntity
  8
1
  6
CONTINUOUS
 62
     7
100
AcDbLine
 10
-290.815092514416
 20
177.711538572177
 30
0.0
 11
-282.344504279122
 21
177.711538572177
 31
0.0
  0
LINE
  5
137
330
1F
100
AcDbEntity
  8
1
  6
CONTINUOUS
 62
     7
100
AcDbLine
 10
-286.579798396769
 20
181.946832689824
 30
0.0
 11
-286.579798396769
 21
173.47624445453
 31
0.0
  0
LINE
  5
138
330
1F
100
AcDbEntity
  8
1
  6
CONTINUOUS
 62
     7
100
AcDbLine
 10
-273.579798396769
 20
228.711538572177
 30
0.0
 11
-299.579798396769
 21
228.711538572177
 31
0.0
  0
LINE
  5
139
330
1F
100
AcDbEntity
  8
1
  6
CONTINUOUS
 62
     7
100
AcDbLine
 10
-300.579798396769
 20
227.711538572177
 30
0.0
 11
-300.579798396769
 21
202.711538572177
 31
0.0
  0
LINE
  5
13A
330
1F
100
AcDbEntity
  8
1
  6
CONTINUOUS
 62
     7
100
AcDbLine
 10
-272.579798396769
 20
202.711538572177
 30
0.0
 11
-272.579798396769
 21
227.711538572177
 31
0.0
  0
LINE
  5
13B
330
1F
100
AcDbEntity
  8
1
  6
CONTINUOUS
 62
     7
100
AcDbLine
 10
-300.579798396769
 20
192.711538572177
 30
0.0
 11
-300.579798396769
 21
167.711538572177
 31
0.0
  0
LINE
  5
13C
330
1F
100
AcDbEntity
  8
1
  6
CONTINUOUS
 62
     7
100
AcDbLine
 10
-299.579798396769
 20
166.711538572177
 30
0.0
 11
-273.579798396769
 21
166.711538572177
 31
0.0
  0
LINE
  5
13D
330
1F
100
AcDbEntity
  8
1
  6
CONTINUOUS
 62
     7
100
AcDbLine
 10
-272.579798396769
 20
167.711538572177
 30
0.0
 11
-272.579798396769
 21
192.711538572177
 31
0.0
  0
LINE
  5
13E
330
1F
100
AcDbEntity
  8
1
  6
CONTINUOUS
 62
     7
100
AcDbLine
 10
-301.179798396769
 20
233.711538572177
 30
0.0
 11
-271.979798396769
 21
233.711538572177
 31
0.0
  0
LINE
  5
13F
330
1F
100
AcDbEntity
  8
1
  6
CONTINUOUS
 62
     7
100
AcDbLine
 10
-301.179798396769
 20
202.711538572177
 30
0.0
 11
-271.979798396769
 21
202.711538572177
 31
0.0
  0
LINE
  5
140
330
1F
100
AcDbEntity
  8
1
  6
CONTINUOUS
 62
     7
100
AcDbLine
 10
-301.179798396769
 20
192.711538572177
 30
0.0
 11
-271.979798396769
 21
192.711538572177
 31
0.0
  0
LINE
  5
141
330
1F
100
AcDbEntity
  8
1
  6
CONTINUOUS
 62
     7
100
AcDbLine
 10
-286.579798396769
 20
166.611538572177
 30
0.0
 11
-286.579798396769
 21
156.711538572177
 31
0.0
  0
LINE
  5
142
330
1F
100
AcDbEntity
  8
1
  6
CONTINUOUS
 62
     7
100
AcDbLine
 10
-271.979798396769
 20
161.711538572177
 30
0.0
 11
-301.179798396769
 21
161.711538572177
 31
0.0
  0
LINE
  5
143
330
1F
100
AcDbEntity
  8
1
  6
CONTINUOUS
 62
     7
100
AcDbLine
 10
-301.179798396769
 20
156.711538572177
 30
0.0
 11
-271.979798396769
 21
156.711538572177
 31
0.0
  0
LINE
  5
144
330
1F
100
AcDbEntity
  8
1
  6
CONTINUOUS
 62
     7
100
AcDbLine
 10
-271.979798396769
 20
238.711538572177
 30
0.0
 11
-301.179798396769
 21
238.711538572177
 31
0.0
  0
LINE
  5
145
330
1F
100
AcDbEntity
  8
1
  6
CONTINUOUS
 62
     7
100
AcDbLine
 10
-301.179798396769
 20
155.961538572177
 30
0.0
 11
-301.179798396769
 21
239.461538572177
 31
0.0
  0
LINE
  5
146
330
1F
100
AcDbEntity
  8
1
  6
CONTINUOUS
 62
     7
100
AcDbLine
 10
-271.979798396769
 20
239.461538572177
 30
0.0
 11
-271.979798396769
 21
155.961538572177
 31
0.0
  0
LINE
  5
147
330
1F
100
AcDbEntity
  8
1
  6
CONTINUOUS
 62
     7
100
AcDbLine
 10
-335.179798396769
 20
239.461538572177
 30
0.0
 11
-339.979798396769
 21
239.461538572177
 31
0.0
  0
LINE
  5
148
330
1F
100
AcDbEntity
  8
1
  6
CONTINUOUS
 62
     7
100
AcDbLine
 10
-339.979798396769
 20
155.961538572177
 30
0.0
 11
-335.179798396769
 21
155.961538572177
 31
0.0
  0
LINE
  5
149
330
1F
100
AcDbEntity
  8
1
  6
CONTINUOUS
 62
     7
100
AcDbLine
 10
-305.979798396769
 20
239.461538572177
 30
0.0
 11
-305.979798396769
 21
155.961538572177
 31
0.0
  0
LINE
  5
14A
330
1F
100
AcDbEntity
  8
1
  6
CONTINUOUS
 62
     7
100
AcDbLine
 10
-335.179798396769
 20
155.961538572177
 30
0.0
 11
-335.179798396769
 21
239.461538572177
 31
0.0
  0
LINE
  5
14B
330
1F
100
AcDbEntity
  8
1
  6
CONTINUOUS
 62
     7
100
AcDbLine
 10
-305.979798396769
 20
238.711538572177
 30
0.0
 11
-335.179798396769
 21
238.711538572177
 31
0.0
  0
LINE
  5
14C
330
1F
100
AcDbEntity
  8
1
  6
CONTINUOUS
 62
     7
100
AcDbLine
 10
-335.179798396769
 20
156.711538572177
 30
0.0
 11
-305.979798396769
 21
156.711538572177
 31
0.0
  0
LINE
  5
14D
330
1F
100
AcDbEntity
  8
1
  6
CONTINUOUS
 62
     7
100
AcDbLine
 10
-305.979798396769
 20
161.711538572177
 30
0.0
 11
-335.179798396769
 21
161.711538572177
 31
0.0
  0
LINE
  5
14E
330
1F
100
AcDbEntity
  8
1
  6
CONTINUOUS
 62
     7
100
AcDbLine
 10
-320.579798396769
 20
166.611538572177
 30
0.0
 11
-320.579798396769
 21
156.711538572177
 31
0.0
  0
LINE
  5
14F
330
1F
100
AcDbEntity
  8
1
  6
CONTINUOUS
 62
     7
100
AcDbLine
 10
-335.179798396769
 20
192.711538572177
 30
0.0
 11
-305.979798396769
 21
192.711538572177
 31
0.0
  0
LINE
  5
150
330
1F
100
AcDbEntity
  8
1
  6
CONTINUOUS
 62
     7
100
AcDbLine
 10
-335.179798396769
 20
233.711538572177
 30
0.0
 11
-305.979798396769
 21
233.711538572177
 31
0.0
  0
LINE
  5
151
330
1F
100
AcDbEntity
  8
1
  6
CONTINUOUS
 62
     7
100
AcDbLine
 10
-306.579798396769
 20
167.711538572177
 30
0.0
 11
-306.579798396769
 21
192.711538572177
 31
0.0
  0
LINE
  5
152
330
1F
100
AcDbEntity
  8
1
  6
CONTINUOUS
 62
     7
100
AcDbLine
 10
-333.579798396769
 20
166.711538572177
 30
0.0
 11
-307.579798396769
 21
166.711538572177
 31
0.0
  0
LINE
  5
153
330
1F
100
AcDbEntity
  8
1
  6
CONTINUOUS
 62
     7
100
AcDbLine
 10
-334.579798396769
 20
192.711538572177
 30
0.0
 11
-334.579798396769
 21
167.711538572177
 31
0.0
  0
LINE
  5
154
330
1F
100
AcDbEntity
  8
1
  6
CONTINUOUS
 62
     7
100
AcDbLine
 10
-306.579798396769
 20
202.711538572177
 30
0.0
 11
-306.579798396769
 21
227.711538572177
 31
0.0
  0
LINE
  5
155
330
1F
100
AcDbEntity
  8
1
  6
CONTINUOUS
 62
     7
100
AcDbLine
 10
-334.579798396769
 20
227.711538572177
 30
0.0
 11
-334.579798396769
 21
202.711538572177
 31
0.0
  0
LINE
  5
156
330
1F
100
AcDbEntity
  8
1
  6
CONTINUOUS
 62
     7
100
AcDbLine
 10
-307.579798396769
 20
228.711538572177
 30
0.0
 11
-333.579798396769
 21
228.711538572177
 31
0.0
  0
LINE
  5
157
330
1F
100
AcDbEntity
  8
1
  6
CONTINUOUS
 62
     7
100
AcDbLine
 10
-320.579798396769
 20
181.946832689824
 30
0.0
 11
-320.579798396769
 21
173.47624445453
 31
0.0
  0
LINE
  5
158
330
1F
100
AcDbEntity
  8
1
  6
CONTINUOUS
 62
     7
100
AcDbLine
 10
-324.815092514416
 20
177.711538572177
 30
0.0
 11
-316.344504279122
 21
177.711538572177
 31
0.0
  0
LINE
  5
159
330
1F
100
AcDbEntity
  8
1
  6
CONTINUOUS
 62
     7
100
AcDbLine
 10
-325.487275684881
 20
186.211538572177
 30
0.0
 11
-330.394752972993
 21
177.711538572177
 31
0.0
  0
LINE
  5
15A
330
1F
100
AcDbEntity
  8
1
  6
CONTINUOUS
 62
     7
100
AcDbLine
 10
-330.394752972993
 20
177.711538572177
 30
0.0
 11
-325.487275684881
 21
169.211538572177
 31
0.0
  0
LINE
  5
15B
330
1F
100
AcDbEntity
  8
1
  6
CONTINUOUS
 62
     7
100
AcDbLine
 10
-325.487275684881
 20
169.211538572177
 30
0.0
 11
-315.672321108658
 21
169.211538572177
 31
0.0
  0
LINE
  5
15C
330
1F
100
AcDbEntity
  8
1
  6
CONTINUOUS
 62
     7
100
AcDbLine
 10
-315.672321108658
 20
169.211538572177
 30
0.0
 11
-310.764843820546
 21
177.711538572177
 31
0.0
  0
LINE
  5
15D
330
1F
100
AcDbEntity
  8
1
  6
CONTINUOUS
 62
     7
100
AcDbLine
 10
-310.764843820546
 20
177.711538572177
 30
0.0
 11
-315.672321108658
 21
186.211538572177
 31
0.0
  0
LINE
  5
15E
330
1F
100
AcDbEntity
  8
1
  6
CONTINUOUS
 62
     7
100
AcDbLine
 10
-315.672321108658
 20
186.211538572177
 30
0.0
 11
-325.487275684881
 21
186.211538572177
 31
0.0
  0
LINE
  5
15F
330
1F
100
AcDbEntity
  8
1
  6
CONTINUOUS
 62
     7
100
AcDbLine
 10
-68.3797983967678
 20
59.5285592843999
 30
0.0
 11
-68.3797983967678
 21
56.3285592843999
 31
0.0
  0
LINE
  5
160
330
1F
100
AcDbEntity
  8
1
  6
CONTINUOUS
 62
     7
100
AcDbLine
 10
-96.7797983967679
 20
59.5285592843999
 30
0.0
 11
-96.7797983967679
 21
56.3285592843999
 31
0.0
  0
LINE
  5
161
330
1F
100
AcDbEntity
  8
1
  6
CONTINUOUS
 62
     7
100
AcDbLine
 10
-102.379798396768
 20
59.5285592843999
 30
0.0
 11
-102.379798396768
 21
56.3285592843999
 31
0.0
  0
LINE
  5
162
330
1F
100
AcDbEntity
  8
1
  6
CONTINUOUS
 62
     7
100
AcDbLine
 10
-130.779798396768
 20
59.5285592843999
 30
0.0
 11
-130.779798396768
 21
56.3285592843999
 31
0.0
  0
LINE
  5
163
330
1F
100
AcDbEntity
  8
1
  6
CONTINUOUS
 62
     7
100
AcDbLine
 10
-136.379798396768
 20
59.5285592843999
 30
0.0
 11
-136.379798396768
 21
56.3285592843999
 31
0.0
  0
LINE
  5
164
330
1F
100
AcDbEntity
  8
1
  6
CONTINUOUS
 62
     7
100
AcDbLine
 10
-164.779798396768
 20
59.5285592843999
 30
0.0
 11
-164.779798396768
 21
56.3285592843999
 31
0.0
  0
LINE
  5
165
330
1F
100
AcDbEntity
  8
1
  6
CONTINUOUS
 62
     7
100
AcDbLine
 10
-170.379798396768
 20
59.5285592843999
 30
0.0
 11
-170.379798396768
 21
56.3285592843999
 31
0.0
  0
LINE
  5
166
330
1F
100
AcDbEntity
  8
1
  6
CONTINUOUS
 62
     7
100
AcDbLine
 10
-198.779798396768
 20
59.5285592843999
 30
0.0
 11
-198.779798396768
 21
56.3285592843999
 31
0.0
  0
LINE
  5
167
330
1F
100
AcDbEntity
  8
1
  6
CONTINUOUS
 62
     7
100
AcDbLine
 10
-204.379798396769
 20
59.5285592843999
 30
0.0
 11
-204.379798396769
 21
56.3285592843999
 31
0.0
  0
LINE
  5
168
330
1F
100
AcDbEntity
  8
1
  6
CONTINUOUS
 62
     7
100
AcDbLine
 10
-232.779798396769
 20
59.5285592843999
 30
0.0
 11
-232.779798396769
 21
56.3285592843999
 31
0.0
  0
LINE
  5
169
330
1F
100
AcDbEntity
  8
1
  6
CONTINUOUS
 62
     7
100
AcDbLine
 10
-266.779798396769
 20
59.5285592843999
 30
0.0
 11
-266.779798396769
 21
56.3285592843999
 31
0.0
  0
LINE
  5
16A
330
1F
100
AcDbEntity
  8
1
  6
CONTINUOUS
 62
     7
100
AcDbLine
 10
-238.379798396769
 20
59.5285592843999
 30
0.0
 11
-238.379798396769
 21
56.3285592843999
 31
0.0
  0
LINE
  5
16B
330
1F
100
AcDbEntity
  8
1
  6
CONTINUOUS
 62
     7
100
AcDbLine
 10
-300.779798396769
 20
59.5285592843999
 30
0.0
 11
-300.779798396769
 21
56.3285592843999
 31
0.0
  0
LINE
  5
16C
330
1F
100
AcDbEntity
  8
1
  6
CONTINUOUS
 62
     7
100
AcDbLine
 10
-272.379798396769
 20
59.5285592843999
 30
0.0
 11
-272.379798396769
 21
56.3285592843999
 31
0.0
  0
LINE
  5
16D
330
1F
100
AcDbEntity
  8
1
  6
CONTINUOUS
 62
     7
100
AcDbLine
 10
-96.7797983967679
 20
59.5285592843999
 30
0.0
 11
-82.579798396768
 21
59.5285592843999
 31
0.0
  0
LINE
  5
16E
330
1F
100
AcDbEntity
  8
1
  6
CONTINUOUS
 62
     7
100
AcDbLine
 10
-82.579798396768
 20
59.5285592843999
 30
0.0
 11
-68.3797983967678
 21
59.5285592843999
 31
0.0
  0
LINE
  5
16F
330
1F
100
AcDbEntity
  8
1
  6
CONTINUOUS
 62
     7
100
AcDbLine
 10
-90.67979839676789
 20
62.9285592843999
 30
0.0
 11
-74.4797983967679
 21
62.9285592843999
 31
0.0
  0
LINE
  5
170
330
1F
100
AcDbEntity
  8
1
  6
CONTINUOUS
 62
     7
100
AcDbLine
 10
-90.67979839676789
 20
61.1285592843998
 30
0.0
 11
-90.67979839676789
 21
62.9285592843999
 31
0.0
  0
LINE
  5
171
330
1F
100
AcDbEntity
  8
1
  6
CONTINUOUS
 62
     7
100
AcDbLine
 10
-74.4797983967679
 20
62.9285592843999
 30
0.0
 11
-74.4797983967679
 21
61.1285592843998
 31
0.0
  0
LINE
  5
172
330
1F
100
AcDbEntity
  8
1
  6
CONTINUOUS
 62
     7
100
AcDbLine
 10
-93.579798396768
 20
61.1285592843998
 30
0.0
 11
-71.579798396768
 21
61.1285592843998
 31
0.0
  0
LINE
  5
173
330
1F
100
AcDbEntity
  8
1
  6
CONTINUOUS
 62
     7
100
AcDbLine
 10
-71.579798396768
 20
61.1285592843998
 30
0.0
 11
-71.579798396768
 21
59.5285592843999
 31
0.0
  0
LINE
  5
174
330
1F
100
AcDbEntity
  8
1
  6
CONTINUOUS
 62
     7
100
AcDbLine
 10
-71.579798396768
 20
59.5285592843999
 30
0.0
 11
-93.579798396768
 21
59.5285592843999
 31
0.0
  0
LINE
  5
175
330
1F
100
AcDbEntity
  8
1
  6
CONTINUOUS
 62
     7
100
AcDbLine
 10
-93.579798396768
 20
59.5285592843999
 30
0.0
 11
-93.579798396768
 21
61.1285592843998
 31
0.0
  0
LINE
  5
176
330
1F
100
AcDbEntity
  8
1
  6
CONTINUOUS
 62
     7
100
AcDbLine
 10
-77.67232110865611
 20
69.2140281045818
 30
0.0
 11
-77.67232110865611
 21
63.6430904642165
 31
0.0
  0
LINE
  5
177
330
1F
100
AcDbEntity
  8
1
  6
CONTINUOUS
 62
     7
100
AcDbLine
 10
-87.48727568487981
 20
63.6430904642165
 30
0.0
 11
-87.48727568487981
 21
69.2140281045818
 31
0.0
  0
LINE
  5
178
330
1F
100
AcDbEntity
  8
1
  6
CONTINUOUS
 62
     7
100
AcDbLine
 10
-92.3947529729916
 20
69.2140281045818
 30
0.0
 11
-92.3947529729916
 21
63.6430904642165
 31
0.0
  0
LINE
  5
179
330
1F
100
AcDbEntity
  8
1
  6
CONTINUOUS
 62
     7
100
AcDbLine
 10
-72.7648438205443
 20
63.6430904642165
 30
0.0
 11
-72.7648438205443
 21
69.2140281045818
 31
0.0
  0
LINE
  5
17A
330
1F
100
AcDbEntity
  8
1
  6
CONTINUOUS
 62
     7
100
AcDbLine
 10
-75.2185824646002
 20
69.92855928440009
 30
0.0
 11
-89.94101432893569
 21
69.92855928439811
 31
0.0
  0
LINE
  5
17B
330
1F
100
AcDbEntity
  8
1
  6
CONTINUOUS
 62
     7
100
AcDbLine
 10
-72.7648438205443
 20
69.2140281045818
 30
0.0
 11
-72.7648438205443
 21
69.2140281045818
 31
0.0
  0
LINE
  5
17C
330
1F
100
AcDbEntity
  8
1
  6
CONTINUOUS
 62
     7
100
AcDbLine
 10
-106.764843820545
 20
69.2140281045818
 30
0.0
 11
-106.764843820545
 21
69.2140281045818
 31
0.0
  0
LINE
  5
17D
330
1F
100
AcDbEntity
  8
1
  6
CONTINUOUS
 62
     7
100
AcDbLine
 10
-109.2185824646
 20
69.92855928440009
 30
0.0
 11
-123.941014328936
 21
69.92855928439811
 31
0.0
  0
LINE
  5
17E
330
1F
100
AcDbEntity
  8
1
  6
CONTINUOUS
 62
     7
100
AcDbLine
 10
-106.764843820545
 20
63.6430904642165
 30
0.0
 11
-106.764843820545
 21
69.2140281045818
 31
0.0
  0
LINE
  5
17F
330
1F
100
AcDbEntity
  8
1
  6
CONTINUOUS
 62
     7
100
AcDbLine
 10
-126.394752972992
 20
69.2140281045818
 30
0.0
 11
-126.394752972992
 21
63.6430904642165
 31
0.0
  0
LINE
  5
180
330
1F
100
AcDbEntity
  8
1
  6
CONTINUOUS
 62
     7
100
AcDbLine
 10
-121.48727568488
 20
63.6430904642165
 30
0.0
 11
-121.48727568488
 21
69.2140281045818
 31
0.0
  0
LINE
  5
181
330
1F
100
AcDbEntity
  8
1
  6
CONTINUOUS
 62
     7
100
AcDbLine
 10
-111.672321108656
 20
69.2140281045818
 30
0.0
 11
-111.672321108656
 21
63.6430904642165
 31
0.0
  0
LINE
  5
182
330
1F
100
AcDbEntity
  8
1
  6
CONTINUOUS
 62
     7
100
AcDbLine
 10
-127.579798396768
 20
59.5285592843999
 30
0.0
 11
-127.579798396768
 21
61.1285592843998
 31
0.0
  0
LINE
  5
183
330
1F
100
AcDbEntity
  8
1
  6
CONTINUOUS
 62
     7
100
AcDbLine
 10
-105.579798396768
 20
59.5285592843999
 30
0.0
 11
-127.579798396768
 21
59.5285592843999
 31
0.0
  0
LINE
  5
184
330
1F
100
AcDbEntity
  8
1
  6
CONTINUOUS
 62
     7
100
AcDbLine
 10
-105.579798396768
 20
61.1285592843998
 30
0.0
 11
-105.579798396768
 21
59.5285592843999
 31
0.0
  0
LINE
  5
185
330
1F
100
AcDbEntity
  8
1
  6
CONTINUOUS
 62
     7
100
AcDbLine
 10
-127.579798396768
 20
61.1285592843998
 30
0.0
 11
-105.579798396768
 21
61.1285592843998
 31
0.0
  0
LINE
  5
186
330
1F
100
AcDbEntity
  8
1
  6
CONTINUOUS
 62
     7
100
AcDbLine
 10
-108.479798396768
 20
62.9285592843999
 30
0.0
 11
-108.479798396768
 21
61.1285592843998
 31
0.0
  0
LINE
  5
187
330
1F
100
AcDbEntity
  8
1
  6
CONTINUOUS
 62
     7
100
AcDbLine
 10
-124.679798396768
 20
61.1285592843998
 30
0.0
 11
-124.679798396768
 21
62.9285592843999
 31
0.0
  0
LINE
  5
188
330
1F
100
AcDbEntity
  8
1
  6
CONTINUOUS
 62
     7
100
AcDbLine
 10
-124.679798396768
 20
62.9285592843999
 30
0.0
 11
-108.479798396768
 21
62.9285592843999
 31
0.0
  0
LINE
  5
189
330
1F
100
AcDbEntity
  8
1
  6
CONTINUOUS
 62
     7
100
AcDbLine
 10
-116.579798396768
 20
59.5285592843999
 30
0.0
 11
-102.379798396768
 21
59.5285592843999
 31
0.0
  0
LINE
  5
18A
330
1F
100
AcDbEntity
  8
1
  6
CONTINUOUS
 62
     7
100
AcDbLine
 10
-130.779798396768
 20
59.5285592843999
 30
0.0
 11
-116.579798396768
 21
59.5285592843999
 31
0.0
  0
LINE
  5
18B
330
1F
100
AcDbEntity
  8
1
  6
CONTINUOUS
 62
     7
100
AcDbLine
 10
-164.779798396768
 20
59.5285592843999
 30
0.0
 11
-150.579798396768
 21
59.5285592843999
 31
0.0
  0
LINE
  5
18C
330
1F
100
AcDbEntity
  8
1
  6
CONTINUOUS
 62
     7
100
AcDbLine
 10
-150.579798396768
 20
59.5285592843999
 30
0.0
 11
-136.379798396768
 21
59.5285592843999
 31
0.0
  0
LINE
  5
18D
330
1F
100
AcDbEntity
  8
1
  6
CONTINUOUS
 62
     7
100
AcDbLine
 10
-158.679798396768
 20
62.9285592843999
 30
0.0
 11
-142.479798396768
 21
62.9285592843999
 31
0.0
  0
LINE
  5
18E
330
1F
100
AcDbEntity
  8
1
  6
CONTINUOUS
 62
     7
100
AcDbLine
 10
-158.679798396768
 20
61.1285592843998
 30
0.0
 11
-158.679798396768
 21
62.9285592843999
 31
0.0
  0
LINE
  5
18F
330
1F
100
AcDbEntity
  8
1
  6
CONTINUOUS
 62
     7
100
AcDbLine
 10
-142.479798396768
 20
62.9285592843999
 30
0.0
 11
-142.479798396768
 21
61.1285592843998
 31
0.0
  0
LINE
  5
190
330
1F
100
AcDbEntity
  8
1
  6
CONTINUOUS
 62
     7
100
AcDbLine
 10
-161.579798396768
 20
61.1285592843998
 30
0.0
 11
-139.579798396768
 21
61.1285592843998
 31
0.0
  0
LINE
  5
191
330
1F
100
AcDbEntity
  8
1
  6
CONTINUOUS
 62
     7
100
AcDbLine
 10
-139.579798396768
 20
61.1285592843998
 30
0.0
 11
-139.579798396768
 21
59.5285592843999
 31
0.0
  0
LINE
  5
192
330
1F
100
AcDbEntity
  8
1
  6
CONTINUOUS
 62
     7
100
AcDbLine
 10
-139.579798396768
 20
59.5285592843999
 30
0.0
 11
-161.579798396768
 21
59.5285592843999
 31
0.0
  0
LINE
  5
193
330
1F
100
AcDbEntity
  8
1
  6
CONTINUOUS
 62
     7
100
AcDbLine
 10
-161.579798396768
 20
59.5285592843999
 30
0.0
 11
-161.579798396768
 21
61.1285592843998
 31
0.0
  0
LINE
  5
194
330
1F
100
AcDbEntity
  8
1
  6
CONTINUOUS
 62
     7
100
AcDbLine
 10
-145.672321108656
 20
69.2140281045818
 30
0.0
 11
-145.672321108656
 21
63.6430904642165
 31
0.0
  0
LINE
  5
195
330
1F
100
AcDbEntity
  8
1
  6
CONTINUOUS
 62
     7
100
AcDbLine
 10
-155.48727568488
 20
63.6430904642165
 30
0.0
 11
-155.48727568488
 21
69.2140281045818
 31
0.0
  0
LINE
  5
196
330
1F
100
AcDbEntity
  8
1
  6
CONTINUOUS
 62
     7
100
AcDbLine
 10
-160.394752972992
 20
69.2140281045818
 30
0.0
 11
-160.394752972992
 21
63.6430904642165
 31
0.0
  0
LINE
  5
197
330
1F
100
AcDbEntity
  8
1
  6
CONTINUOUS
 62
     7
100
AcDbLine
 10
-140.764843820545
 20
63.6430904642165
 30
0.0
 11
-140.764843820545
 21
69.2140281045818
 31
0.0
  0
LINE
  5
198
330
1F
100
AcDbEntity
  8
1
  6
CONTINUOUS
 62
     7
100
AcDbLine
 10
-143.218582464601
 20
69.92855928440009
 30
0.0
 11
-157.941014328936
 21
69.92855928439811
 31
0.0
  0
LINE
  5
199
330
1F
100
AcDbEntity
  8
1
  6
CONTINUOUS
 62
     7
100
AcDbLine
 10
-140.764843820545
 20
69.2140281045818
 30
0.0
 11
-140.764843820545
 21
69.2140281045818
 31
0.0
  0
LINE
  5
19A
330
1F
100
AcDbEntity
  8
1
  6
CONTINUOUS
 62
     7
100
AcDbLine
 10
-174.764843820545
 20
69.2140281045818
 30
0.0
 11
-174.764843820545
 21
69.2140281045818
 31
0.0
  0
LINE
  5
19B
330
1F
100
AcDbEntity
  8
1
  6
CONTINUOUS
 62
     7
100
AcDbLine
 10
-177.218582464601
 20
69.92855928440009
 30
0.0
 11
-191.941014328936
 21
69.92855928439811
 31
0.0
  0
LINE
  5
19C
330
1F
100
AcDbEntity
  8
1
  6
CONTINUOUS
 62
     7
100
AcDbLine
 10
-174.764843820545
 20
63.6430904642165
 30
0.0
 11
-174.764843820545
 21
69.2140281045818
 31
0.0
  0
LINE
  5
19D
330
1F
100
AcDbEntity
  8
1
  6
CONTINUOUS
 62
     7
100
AcDbLine
 10
-194.394752972992
 20
69.2140281045818
 30
0.0
 11
-194.394752972992
 21
63.6430904642165
 31
0.0
  0
LINE
  5
19E
330
1F
100
AcDbEntity
  8
1
  6
CONTINUOUS
 62
     7
100
AcDbLine
 10
-189.48727568488
 20
63.6430904642165
 30
0.0
 11
-189.48727568488
 21
69.2140281045818
 31
0.0
  0
LINE
  5
19F
330
1F
100
AcDbEntity
  8
1
  6
CONTINUOUS
 62
     7
100
AcDbLine
 10
-179.672321108657
 20
69.2140281045818
 30
0.0
 11
-179.672321108657
 21
63.6430904642165
 31
0.0
  0
LINE
  5
1A0
330
1F
100
AcDbEntity
  8
1
  6
CONTINUOUS
 62
     7
100
AcDbLine
 10
-195.579798396769
 20
59.5285592843999
 30
0.0
 11
-195.579798396769
 21
61.1285592843998
 31
0.0
  0
LINE
  5
1A1
330
1F
100
AcDbEntity
  8
1
  6
CONTINUOUS
 62
     7
100
AcDbLine
 10
-173.579798396769
 20
59.5285592843999
 30
0.0
 11
-195.579798396769
 21
59.5285592843999
 31
0.0
  0
LINE
  5
1A2
330
1F
100
AcDbEntity
  8
1
  6
CONTINUOUS
 62
     7
100
AcDbLine
 10
-173.579798396769
 20
61.1285592843998
 30
0.0
 11
-173.579798396769
 21
59.5285592843999
 31
0.0
  0
LINE
  5
1A3
330
1F
100
AcDbEntity
  8
1
  6
CONTINUOUS
 62
     7
100
AcDbLine
 10
-195.579798396769
 20
61.1285592843998
 30
0.0
 11
-173.579798396769
 21
61.1285592843998
 31
0.0
  0
LINE
  5
1A4
330
1F
100
AcDbEntity
  8
1
  6
CONTINUOUS
 62
     7
100
AcDbLine
 10
-176.479798396768
 20
62.9285592843999
 30
0.0
 11
-176.479798396768
 21
61.1285592843998
 31
0.0
  0
LINE
  5
1A5
330
1F
100
AcDbEntity
  8
1
  6
CONTINUOUS
 62
     7
100
AcDbLine
 10
-192.679798396768
 20
61.1285592843998
 30
0.0
 11
-192.679798396768
 21
62.9285592843999
 31
0.0
  0
LINE
  5
1A6
330
1F
100
AcDbEntity
  8
1
  6
CONTINUOUS
 62
     7
100
AcDbLine
 10
-192.679798396768
 20
62.9285592843999
 30
0.0
 11
-176.479798396768
 21
62.9285592843999
 31
0.0
  0
LINE
  5
1A7
330
1F
100
AcDbEntity
  8
1
  6
CONTINUOUS
 62
     7
100
AcDbLine
 10
-184.579798396769
 20
59.5285592843999
 30
0.0
 11
-170.379798396768
 21
59.5285592843999
 31
0.0
  0
LINE
  5
1A8
330
1F
100
AcDbEntity
  8
1
  6
CONTINUOUS
 62
     7
100
AcDbLine
 10
-198.779798396768
 20
59.5285592843999
 30
0.0
 11
-184.579798396769
 21
59.5285592843999
 31
0.0
  0
LINE
  5
1A9
330
1F
100
AcDbEntity
  8
1
  6
CONTINUOUS
 62
     7
100
AcDbLine
 10
-232.779798396769
 20
59.5285592843999
 30
0.0
 11
-218.579798396769
 21
59.5285592843999
 31
0.0
  0
LINE
  5
1AA
330
1F
100
AcDbEntity
  8
1
  6
CONTINUOUS
 62
     7
100
AcDbLine
 10
-218.579798396769
 20
59.5285592843999
 30
0.0
 11
-204.379798396769
 21
59.5285592843999
 31
0.0
  0
LINE
  5
1AB
330
1F
100
AcDbEntity
  8
1
  6
CONTINUOUS
 62
     7
100
AcDbLine
 10
-226.679798396769
 20
62.9285592843999
 30
0.0
 11
-210.479798396769
 21
62.9285592843999
 31
0.0
  0
LINE
  5
1AC
330
1F
100
AcDbEntity
  8
1
  6
CONTINUOUS
 62
     7
100
AcDbLine
 10
-226.679798396769
 20
61.1285592843998
 30
0.0
 11
-226.679798396769
 21
62.9285592843999
 31
0.0
  0
LINE
  5
1AD
330
1F
100
AcDbEntity
  8
1
  6
CONTINUOUS
 62
     7
100
AcDbLine
 10
-210.479798396769
 20
62.9285592843999
 30
0.0
 11
-210.479798396769
 21
61.1285592843998
 31
0.0
  0
LINE
  5
1AE
330
1F
100
AcDbEntity
  8
1
  6
CONTINUOUS
 62
     7
100
AcDbLine
 10
-229.579798396769
 20
61.1285592843998
 30
0.0
 11
-207.579798396769
 21
61.1285592843998
 31
0.0
  0
LINE
  5
1AF
330
1F
100
AcDbEntity
  8
1
  6
CONTINUOUS
 62
     7
100
AcDbLine
 10
-207.579798396769
 20
61.1285592843998
 30
0.0
 11
-207.579798396769
 21
59.5285592843999
 31
0.0
  0
LINE
  5
1B0
330
1F
100
AcDbEntity
  8
1
  6
CONTINUOUS
 62
     7
100
AcDbLine
 10
-207.579798396769
 20
59.5285592843999
 30
0.0
 11
-229.579798396769
 21
59.5285592843999
 31
0.0
  0
LINE
  5
1B1
330
1F
100
AcDbEntity
  8
1
  6
CONTINUOUS
 62
     7
100
AcDbLine
 10
-229.579798396769
 20
59.5285592843999
 30
0.0
 11
-229.579798396769
 21
61.1285592843998
 31
0.0
  0
LINE
  5
1B2
330
1F
100
AcDbEntity
  8
1
  6
CONTINUOUS
 62
     7
100
AcDbLine
 10
-213.672321108657
 20
69.2140281045818
 30
0.0
 11
-213.672321108657
 21
63.6430904642165
 31
0.0
  0
LINE
  5
1B3
330
1F
100
AcDbEntity
  8
1
  6
CONTINUOUS
 62
     7
100
AcDbLine
 10
-223.48727568488
 20
63.6430904642165
 30
0.0
 11
-223.48727568488
 21
69.2140281045818
 31
0.0
  0
LINE
  5
1B4
330
1F
100
AcDbEntity
  8
1
  6
CONTINUOUS
 62
     7
100
AcDbLine
 10
-228.394752972992
 20
69.2140281045818
 30
0.0
 11
-228.394752972992
 21
63.6430904642165
 31
0.0
  0
LINE
  5
1B5
330
1F
100
AcDbEntity
  8
1
  6
CONTINUOUS
 62
     7
100
AcDbLine
 10
-208.764843820545
 20
63.6430904642165
 30
0.0
 11
-208.764843820545
 21
69.2140281045818
 31
0.0
  0
LINE
  5
1B6
330
1F
100
AcDbEntity
  8
1
  6
CONTINUOUS
 62
     7
100
AcDbLine
 10
-211.218582464601
 20
69.92855928440009
 30
0.0
 11
-225.941014328936
 21
69.92855928439811
 31
0.0
  0
LINE
  5
1B7
330
1F
100
AcDbEntity
  8
1
  6
CONTINUOUS
 62
     7
100
AcDbLine
 10
-208.764843820545
 20
69.2140281045818
 30
0.0
 11
-208.764843820545
 21
69.2140281045818
 31
0.0
  0
LINE
  5
1B8
330
1F
100
AcDbEntity
  8
1
  6
CONTINUOUS
 62
     7
100
AcDbLine
 10
-242.764843820545
 20
69.2140281045818
 30
0.0
 11
-242.764843820545
 21
69.2140281045818
 31
0.0
  0
LINE
  5
1B9
330
1F
100
AcDbEntity
  8
1
  6
CONTINUOUS
 62
     7
100
AcDbLine
 10
-245.218582464601
 20
69.92855928440009
 30
0.0
 11
-259.941014328937
 21
69.92855928439811
 31
0.0
  0
LINE
  5
1BA
330
1F
100
AcDbEntity
  8
1
  6
CONTINUOUS
 62
     7
100
AcDbLine
 10
-242.764843820545
 20
63.6430904642165
 30
0.0
 11
-242.764843820545
 21
69.2140281045818
 31
0.0
  0
LINE
  5
1BB
330
1F
100
AcDbEntity
  8
1
  6
CONTINUOUS
 62
     7
100
AcDbLine
 10
-262.394752972992
 20
69.2140281045818
 30
0.0
 11
-262.394752972992
 21
63.6430904642165
 31
0.0
  0
LINE
  5
1BC
330
1F
100
AcDbEntity
  8
1
  6
CONTINUOUS
 62
     7
100
AcDbLine
 10
-257.487275684881
 20
63.6430904642165
 30
0.0
 11
-257.487275684881
 21
69.2140281045818
 31
0.0
  0
LINE
  5
1BD
330
1F
100
AcDbEntity
  8
1
  6
CONTINUOUS
 62
     7
100
AcDbLine
 10
-247.672321108657
 20
69.2140281045818
 30
0.0
 11
-247.672321108657
 21
63.6430904642165
 31
0.0
  0
LINE
  5
1BE
330
1F
100
AcDbEntity
  8
1
  6
CONTINUOUS
 62
     7
100
AcDbLine
 10
-263.579798396769
 20
59.5285592843999
 30
0.0
 11
-263.579798396769
 21
61.1285592843998
 31
0.0
  0
LINE
  5
1BF
330
1F
100
AcDbEntity
  8
1
  6
CONTINUOUS
 62
     7
100
AcDbLine
 10
-241.579798396769
 20
59.5285592843999
 30
0.0
 11
-263.579798396769
 21
59.5285592843999
 31
0.0
  0
LINE
  5
1C0
330
1F
100
AcDbEntity
  8
1
  6
CONTINUOUS
 62
     7
100
AcDbLine
 10
-241.579798396769
 20
61.1285592843998
 30
0.0
 11
-241.579798396769
 21
59.5285592843999
 31
0.0
  0
LINE
  5
1C1
330
1F
100
AcDbEntity
  8
1
  6
CONTINUOUS
 62
     7
100
AcDbLine
 10
-263.579798396769
 20
61.1285592843998
 30
0.0
 11
-241.579798396769
 21
61.1285592843998
 31
0.0
  0
LINE
  5
1C2
330
1F
100
AcDbEntity
  8
1
  6
CONTINUOUS
 62
     7
100
AcDbLine
 10
-244.479798396769
 20
62.9285592843999
 30
0.0
 11
-244.479798396769
 21
61.1285592843998
 31
0.0
  0
LINE
  5
1C3
330
1F
100
AcDbEntity
  8
1
  6
CONTINUOUS
 62
     7
100
AcDbLine
 10
-260.679798396769
 20
61.1285592843998
 30
0.0
 11
-260.679798396769
 21
62.9285592843999
 31
0.0
  0
LINE
  5
1C4
330
1F
100
AcDbEntity
  8
1
  6
CONTINUOUS
 62
     7
100
AcDbLine
 10
-260.679798396769
 20
62.9285592843999
 30
0.0
 11
-244.479798396769
 21
62.9285592843999
 31
0.0
  0
LINE
  5
1C5
330
1F
100
AcDbEntity
  8
1
  6
CONTINUOUS
 62
     7
100
AcDbLine
 10
-252.579798396769
 20
59.5285592843999
 30
0.0
 11
-238.379798396769
 21
59.5285592843999
 31
0.0
  0
LINE
  5
1C6
330
1F
100
AcDbEntity
  8
1
  6
CONTINUOUS
 62
     7
100
AcDbLine
 10
-266.779798396769
 20
59.5285592843999
 30
0.0
 11
-252.579798396769
 21
59.5285592843999
 31
0.0
  0
LINE
  5
1C7
330
1F
100
AcDbEntity
  8
1
  6
CONTINUOUS
 62
     7
100
AcDbLine
 10
-300.779798396769
 20
59.5285592843999
 30
0.0
 11
-286.579798396769
 21
59.5285592843999
 31
0.0
  0
LINE
  5
1C8
330
1F
100
AcDbEntity
  8
1
  6
CONTINUOUS
 62
     7
100
AcDbLine
 10
-286.579798396769
 20
59.5285592843999
 30
0.0
 11
-272.379798396769
 21
59.5285592843999
 31
0.0
  0
LINE
  5
1C9
330
1F
100
AcDbEntity
  8
1
  6
CONTINUOUS
 62
     7
100
AcDbLine
 10
-294.679798396769
 20
62.9285592843999
 30
0.0
 11
-278.479798396769
 21
62.9285592843999
 31
0.0
  0
LINE
  5
1CA
330
1F
100
AcDbEntity
  8
1
  6
CONTINUOUS
 62
     7
100
AcDbLine
 10
-294.679798396769
 20
61.1285592843998
 30
0.0
 11
-294.679798396769
 21
62.9285592843999
 31
0.0
  0
LINE
  5
1CB
330
1F
100
AcDbEntity
  8
1
  6
CONTINUOUS
 62
     7
100
AcDbLine
 10
-278.479798396769
 20
62.9285592843999
 30
0.0
 11
-278.479798396769
 21
61.1285592843998
 31
0.0
  0
LINE
  5
1CC
330
1F
100
AcDbEntity
  8
1
  6
CONTINUOUS
 62
     7
100
AcDbLine
 10
-297.579798396769
 20
61.1285592843998
 30
0.0
 11
-275.579798396769
 21
61.1285592843998
 31
0.0
  0
LINE
  5
1CD
330
1F
100
AcDbEntity
  8
1
  6
CONTINUOUS
 62
     7
100
AcDbLine
 10
-275.579798396769
 20
61.1285592843998
 30
0.0
 11
-275.579798396769
 21
59.5285592843999
 31
0.0
  0
LINE
  5
1CE
330
1F
100
AcDbEntity
  8
1
  6
CONTINUOUS
 62
     7
100
AcDbLine
 10
-275.579798396769
 20
59.5285592843999
 30
0.0
 11
-297.579798396769
 21
59.5285592843999
 31
0.0
  0
LINE
  5
1CF
330
1F
100
AcDbEntity
  8
1
  6
CONTINUOUS
 62
     7
100
AcDbLine
 10
-297.579798396769
 20
59.5285592843999
 30
0.0
 11
-297.579798396769
 21
61.1285592843998
 31
0.0
  0
LINE
  5
1D0
330
1F
100
AcDbEntity
  8
1
  6
CONTINUOUS
 62
     7
100
AcDbLine
 10
-281.672321108657
 20
69.2140281045818
 30
0.0
 11
-281.672321108657
 21
63.6430904642165
 31
0.0
  0
LINE
  5
1D1
330
1F
100
AcDbEntity
  8
1
  6
CONTINUOUS
 62
     7
100
AcDbLine
 10
-291.487275684881
 20
63.6430904642165
 30
0.0
 11
-291.487275684881
 21
69.2140281045818
 31
0.0
  0
LINE
  5
1D2
330
1F
100
AcDbEntity
  8
1
  6
CONTINUOUS
 62
     7
100
AcDbLine
 10
-296.394752972993
 20
69.2140281045818
 30
0.0
 11
-296.394752972993
 21
63.6430904642165
 31
0.0
  0
LINE
  5
1D3
330
1F
100
AcDbEntity
  8
1
  6
CONTINUOUS
 62
     7
100
AcDbLine
 10
-276.764843820545
 20
63.6430904642165
 30
0.0
 11
-276.764843820545
 21
69.2140281045818
 31
0.0
  0
LINE
  5
1D4
330
1F
100
AcDbEntity
  8
1
  6
CONTINUOUS
 62
     7
100
AcDbLine
 10
-279.218582464601
 20
69.92855928440009
 30
0.0
 11
-293.941014328937
 21
69.92855928439811
 31
0.0
  0
LINE
  5
1D5
330
1F
100
AcDbEntity
  8
1
  6
CONTINUOUS
 62
     7
100
AcDbLine
 10
-276.764843820545
 20
69.2140281045818
 30
0.0
 11
-276.764843820545
 21
69.2140281045818
 31
0.0
  0
LINE
  5
1D6
330
1F
100
AcDbEntity
  8
1
  6
CONTINUOUS
 62
     7
100
AcDbLine
 10
-310.764843820545
 20
69.2140281045818
 30
0.0
 11
-310.764843820545
 21
69.2140281045818
 31
0.0
  0
LINE
  5
1D7
330
1F
100
AcDbEntity
  8
1
  6
CONTINUOUS
 62
     7
100
AcDbLine
 10
-313.218582464601
 20
69.92855928440009
 30
0.0
 11
-327.941014328937
 21
69.92855928439811
 31
0.0
  0
LINE
  5
1D8
330
1F
100
AcDbEntity
  8
1
  6
CONTINUOUS
 62
     7
100
AcDbLine
 10
-310.764843820545
 20
63.6430904642165
 30
0.0
 11
-310.764843820545
 21
69.2140281045818
 31
0.0
  0
LINE
  5
1D9
330
1F
100
AcDbEntity
  8
1
  6
CONTINUOUS
 62
     7
100
AcDbLine
 10
-330.394752972993
 20
69.2140281045818
 30
0.0
 11
-330.394752972993
 21
63.6430904642165
 31
0.0
  0
LINE
  5
1DA
330
1F
100
AcDbEntity
  8
1
  6
CONTINUOUS
 62
     7
100
AcDbLine
 10
-325.487275684881
 20
63.6430904642165
 30
0.0
 11
-325.487275684881
 21
69.2140281045818
 31
0.0
  0
LINE
  5
1DB
330
1F
100
AcDbEntity
  8
1
  6
CONTINUOUS
 62
     7
100
AcDbLine
 10
-315.672321108657
 20
69.2140281045818
 30
0.0
 11
-315.672321108657
 21
63.6430904642165
 31
0.0
  0
LINE
  5
1DC
330
1F
100
AcDbEntity
  8
1
  6
CONTINUOUS
 62
     7
100
AcDbLine
 10
-331.579798396769
 20
59.5285592843999
 30
0.0
 11
-331.579798396769
 21
61.1285592843998
 31
0.0
  0
LINE
  5
1DD
330
1F
100
AcDbEntity
  8
1
  6
CONTINUOUS
 62
     7
100
AcDbLine
 10
-309.579798396769
 20
59.5285592843999
 30
0.0
 11
-331.579798396769
 21
59.5285592843999
 31
0.0
  0
LINE
  5
1DE
330
1F
100
AcDbEntity
  8
1
  6
CONTINUOUS
 62
     7
100
AcDbLine
 10
-309.579798396769
 20
61.1285592843998
 30
0.0
 11
-309.579798396769
 21
59.5285592843999
 31
0.0
  0
LINE
  5
1DF
330
1F
100
AcDbEntity
  8
1
  6
CONTINUOUS
 62
     7
100
AcDbLine
 10
-331.579798396769
 20
61.1285592843998
 30
0.0
 11
-309.579798396769
 21
61.1285592843998
 31
0.0
  0
LINE
  5
1E0
330
1F
100
AcDbEntity
  8
1
  6
CONTINUOUS
 62
     7
100
AcDbLine
 10
-312.479798396769
 20
62.9285592843999
 30
0.0
 11
-312.479798396769
 21
61.1285592843998
 31
0.0
  0
LINE
  5
1E1
330
1F
100
AcDbEntity
  8
1
  6
CONTINUOUS
 62
     7
100
AcDbLine
 10
-328.679798396769
 20
61.1285592843998
 30
0.0
 11
-328.679798396769
 21
62.9285592843999
 31
0.0
  0
LINE
  5
1E2
330
1F
100
AcDbEntity
  8
1
  6
CONTINUOUS
 62
     7
100
AcDbLine
 10
-328.679798396769
 20
62.9285592843999
 30
0.0
 11
-312.479798396769
 21
62.9285592843999
 31
0.0
  0
LINE
  5
1E3
330
1F
100
AcDbEntity
  8
1
  6
CONTINUOUS
 62
     7
100
AcDbLine
 10
-320.579798396769
 20
59.5285592843999
 30
0.0
 11
-306.379798396769
 21
59.5285592843999
 31
0.0
  0
LINE
  5
1E4
330
1F
100
AcDbEntity
  8
1
  6
CONTINUOUS
 62
     7
100
AcDbLine
 10
-334.779798396769
 20
59.5285592843999
 30
0.0
 11
-320.579798396769
 21
59.5285592843999
 31
0.0
  0
LINE
  5
1E5
330
1F
100
AcDbEntity
  8
1
  6
CONTINUOUS
 62
     7
100
AcDbLine
 10
-334.779798396769
 20
59.5285592843999
 30
0.0
 11
-334.779798396769
 21
56.3285592843999
 31
0.0
  0
LINE
  5
1E6
330
1F
100
AcDbEntity
  8
1
  6
CONTINUOUS
 62
     7
100
AcDbLine
 10
-306.379798396769
 20
59.5285592843999
 30
0.0
 11
-306.379798396769
 21
56.3285592843999
 31
0.0
  0
LINE
  5
1E7
330
1F
100
AcDbEntity
  8
1
  6
CONTINUOUS
 62
     7
100
AcDbLine
 10
-368.779798396769
 20
59.5285592843999
 30
0.0
 11
-368.779798396769
 21
56.3285592843999
 31
0.0
  0
LINE
  5
1E8
330
1F
100
AcDbEntity
  8
1
  6
CONTINUOUS
 62
     7
100
AcDbLine
 10
-340.379798396769
 20
59.5285592843999
 30
0.0
 11
-340.379798396769
 21
56.3285592843999
 31
0.0
  0
LINE
  5
1E9
330
1F
100
AcDbEntity
  8
1
  6
CONTINUOUS
 62
     7
100
AcDbLine
 10
-368.779798396769
 20
59.5285592843999
 30
0.0
 11
-354.579798396769
 21
59.5285592843999
 31
0.0
  0
LINE
  5
1EA
330
1F
100
AcDbEntity
  8
1
  6
CONTINUOUS
 62
     7
100
AcDbLine
 10
-354.579798396769
 20
59.5285592843999
 30
0.0
 11
-340.379798396769
 21
59.5285592843999
 31
0.0
  0
LINE
  5
1EB
330
1F
100
AcDbEntity
  8
1
  6
CONTINUOUS
 62
     7
100
AcDbLine
 10
-362.679798396769
 20
62.9285592843999
 30
0.0
 11
-346.479798396769
 21
62.9285592843999
 31
0.0
  0
LINE
  5
1EC
330
1F
100
AcDbEntity
  8
1
  6
CONTINUOUS
 62
     7
100
AcDbLine
 10
-362.679798396769
 20
61.1285592843998
 30
0.0
 11
-362.679798396769
 21
62.9285592843999
 31
0.0
  0
LINE
  5
1ED
330
1F
100
AcDbEntity
  8
1
  6
CONTINUOUS
 62
     7
100
AcDbLine
 10
-346.479798396769
 20
62.9285592843999
 30
0.0
 11
-346.479798396769
 21
61.1285592843998
 31
0.0
  0
LINE
  5
1EE
330
1F
100
AcDbEntity
  8
1
  6
CONTINUOUS
 62
     7
100
AcDbLine
 10
-365.579798396769
 20
61.1285592843998
 30
0.0
 11
-343.579798396769
 21
61.1285592843998
 31
0.0
  0
LINE
  5
1EF
330
1F
100
AcDbEntity
  8
1
  6
CONTINUOUS
 62
     7
100
AcDbLine
 10
-343.579798396769
 20
61.1285592843998
 30
0.0
 11
-343.579798396769
 21
59.5285592843999
 31
0.0
  0
LINE
  5
1F0
330
1F
100
AcDbEntity
  8
1
  6
CONTINUOUS
 62
     7
100
AcDbLine
 10
-343.579798396769
 20
59.5285592843999
 30
0.0
 11
-365.579798396769
 21
59.5285592843999
 31
0.0
  0
LINE
  5
1F1
330
1F
100
AcDbEntity
  8
1
  6
CONTINUOUS
 62
     7
100
AcDbLine
 10
-365.579798396769
 20
59.5285592843999
 30
0.0
 11
-365.579798396769
 21
61.1285592843998
 31
0.0
  0
LINE
  5
1F2
330
1F
100
AcDbEntity
  8
1
  6
CONTINUOUS
 62
     7
100
AcDbLine
 10
-349.672321108658
 20
69.2140281045818
 30
0.0
 11
-349.672321108658
 21
63.6430904642165
 31
0.0
  0
LINE
  5
1F3
330
1F
100
AcDbEntity
  8
1
  6
CONTINUOUS
 62
     7
100
AcDbLine
 10
-359.487275684881
 20
63.6430904642165
 30
0.0
 11
-359.487275684881
 21
69.2140281045818
 31
0.0
  0
LINE
  5
1F4
330
1F
100
AcDbEntity
  8
1
  6
CONTINUOUS
 62
     7
100
AcDbLine
 10
-364.394752972993
 20
69.2140281045818
 30
0.0
 11
-364.394752972993
 21
63.6430904642165
 31
0.0
  0
LINE
  5
1F5
330
1F
100
AcDbEntity
  8
1
  6
CONTINUOUS
 62
     7
100
AcDbLine
 10
-344.764843820546
 20
63.6430904642165
 30
0.0
 11
-344.764843820546
 21
69.2140281045818
 31
0.0
  0
LINE
  5
1F6
330
1F
100
AcDbEntity
  8
1
  6
CONTINUOUS
 62
     7
100
AcDbLine
 10
-347.218582464602
 20
69.92855928440009
 30
0.0
 11
-361.941014328937
 21
69.92855928439811
 31
0.0
  0
LINE
  5
1F7
330
1F
100
AcDbEntity
  8
1
  6
CONTINUOUS
 62
     7
100
AcDbLine
 10
-344.764843820546
 20
69.2140281045818
 30
0.0
 11
-344.764843820546
 21
69.2140281045818
 31
0.0
  0
LINE
  5
1F8
330
1F
100
AcDbEntity
  8
1
  6
CONTINUOUS
 62
     7
100
AcDbLine
 10
-67.57979839676889
 20
83.0285592843999
 30
0.0
 11
-67.57979839676889
 21
82.3285592843999
 31
0.0
  0
LINE
  5
1F9
330
1F
100
AcDbEntity
  8
1
  6
CONTINUOUS
 62
     7
100
AcDbLine
 10
-82.57979839676889
 20
83.0285592843999
 30
0.0
 11
-67.57979839676889
 21
83.0285592843999
 31
0.0
  0
LINE
  5
1FA
330
1F
100
AcDbEntity
  8
1
  6
CONTINUOUS
 62
     7
100
AcDbLine
 10
-67.57979839676889
 20
82.3285592843999
 30
0.0
 11
-67.57979839676889
 21
43.3285592843999
 31
0.0
  0
LINE
  5
1FB
330
1F
100
AcDbEntity
  8
1
  6
CONTINUOUS
 62
     7
100
AcDbLine
 10
-82.57979839676889
 20
82.3285592843999
 30
0.0
 11
-67.57979839676889
 21
82.3285592843999
 31
0.0
  0
LINE
  5
1FC
330
1F
100
AcDbEntity
  8
1
  6
CONTINUOUS
 62
     7
100
AcDbLine
 10
-52.5797983967689
 20
32.3285592843999
 30
0.0
 11
-82.57979839676889
 21
32.3285592843999
 31
0.0
  0
LINE
  5
1FD
330
1F
100
AcDbEntity
  8
1
  6
CONTINUOUS
 62
     7
100
AcDbLine
 10
-58.5797983967689
 20
52.3285592843999
 30
0.0
 11
-52.5797983967689
 21
52.3285592843999
 31
0.0
  0
LINE
  5
1FE
330
1F
100
AcDbEntity
  8
1
  6
CONTINUOUS
 62
     7
100
AcDbLine
 10
-51.5797983967689
 20
51.3285592843999
 30
0.0
 11
-51.5797983967689
 21
33.3285592843999
 31
0.0
  0
LINE
  5
1FF
330
1F
100
AcDbEntity
  8
1
  6
CONTINUOUS
 62
     7
100
AcDbLine
 10
-58.5797983967689
 20
52.3285592843999
 30
0.0
 11
-58.5797983967689
 21
86.3285592843999
 31
0.0
  0
LINE
  5
200
330
1F
100
AcDbEntity
  8
1
  6
CONTINUOUS
 62
     7
100
AcDbLine
 10
-59.5797983967689
 20
87.3285592843999
 30
0.0
 11
-67.57979839676889
 21
87.3285592843999
 31
0.0
  0
LINE
  5
201
330
1F
100
AcDbEntity
  8
1
  6
CONTINUOUS
 62
     7
100
AcDbLine
 10
-67.57979839676889
 20
87.3285592843999
 30
0.0
 11
-67.57979839676889
 21
83.0285592843999
 31
0.0
  0
LINE
  5
202
330
1F
100
AcDbEntity
  8
1
  6
CONTINUOUS
 62
     7
100
AcDbLine
 10
-82.57979839676889
 20
56.3285592843999
 30
0.0
 11
-67.57979839676889
 21
56.3285592843999
 31
0.0
  0
LINE
  5
203
330
1F
100
AcDbEntity
  8
1
  6
CONTINUOUS
 62
     7
100
AcDbLine
 10
-67.57979839676889
 20
43.3285592843999
 30
0.0
 11
-97.1797983967689
 21
43.3285592843999
 31
0.0
  0
LINE
  5
204
330
1F
100
AcDbEntity
  8
1
  6
CONTINUOUS
 62
     7
100
AcDbLine
 10
-63.5797983967688
 20
88.5285592843999
 30
0.0
 11
-407.579798396769
 21
88.5285592843999
 31
0.0
  0
LINE
  5
205
330
1F
100
AcDbEntity
  8
1
  6
CONTINUOUS
 62
     7
100
AcDbLine
 10
-63.5797983967688
 20
80.3285592843999
 30
0.0
 11
-63.5797983967688
 21
88.5285592843999
 31
0.0
  0
LINE
  5
206
330
1F
100
AcDbEntity
  8
1
  6
CONTINUOUS
 62
     7
100
AcDbLine
 10
-407.579798396769
 20
80.3285592843999
 30
0.0
 11
-63.5797983967688
 21
80.3285592843999
 31
0.0
  0
LINE
  5
207
330
1F
100
AcDbEntity
  8
1
  6
CONTINUOUS
 62
     7
100
AcDbLine
 10
-403.579798396769
 20
83.0285592843999
 30
0.0
 11
-403.579798396769
 21
87.3285592843999
 31
0.0
  0
LINE
  5
208
330
1F
100
AcDbEntity
  8
1
  6
CONTINUOUS
 62
     7
100
AcDbLine
 10
-403.579798396769
 20
82.3285592843999
 30
0.0
 11
-403.579798396769
 21
83.0285592843999
 31
0.0
  0
LINE
  5
209
330
1F
100
AcDbEntity
  8
1
  6
CONTINUOUS
 62
     7
100
AcDbLine
 10
-131.179798396769
 20
83.0285592843999
 30
0.0
 11
-101.979798396769
 21
83.0285592843999
 31
0.0
  0
LINE
  5
20A
330
1F
100
AcDbEntity
  8
1
  6
CONTINUOUS
 62
     7
100
AcDbLine
 10
-116.579798396769
 20
82.3285592843999
 30
0.0
 11
-101.979798396769
 21
82.3285592843999
 31
0.0
  0
LINE
  5
20B
330
1F
100
AcDbEntity
  8
1
  6
CONTINUOUS
 62
     7
100
AcDbLine
 10
-116.579798396769
 20
56.3285592843999
 30
0.0
 11
-101.979798396769
 21
56.3285592843999
 31
0.0
  0
LINE
  5
20C
330
1F
100
AcDbEntity
  8
1
  6
CONTINUOUS
 62
     7
100
AcDbLine
 10
-116.579798396769
 20
43.3285592843999
 30
0.0
 11
-101.979798396769
 21
43.3285592843999
 31
0.0
  0
LINE
  5
20D
330
1F
100
AcDbEntity
  8
1
  6
CONTINUOUS
 62
     7
100
AcDbLine
 10
-116.579798396769
 20
32.3285592843999
 30
0.0
 11
-82.57979839676889
 21
32.3285592843999
 31
0.0
  0
LINE
  5
20E
330
1F
100
AcDbEntity
  8
1
  6
CONTINUOUS
 62
     7
100
AcDbLine
 10
-82.57979839676889
 20
56.3285592843999
 30
0.0
 11
-82.57979839676889
 21
32.3285592843999
 31
0.0
  0
LINE
  5
20F
330
1F
100
AcDbEntity
  8
1
  6
CONTINUOUS
 62
     7
100
AcDbLine
 10
-82.57979839676889
 20
56.3285592843999
 30
0.0
 11
-97.1797983967689
 21
56.3285592843999
 31
0.0
  0
LINE
  5
210
330
1F
100
AcDbEntity
  8
1
  6
CONTINUOUS
 62
     7
100
AcDbLine
 10
-97.1797983967689
 20
82.3285592843999
 30
0.0
 11
-82.57979839676889
 21
82.3285592843999
 31
0.0
  0
LINE
  5
211
330
1F
100
AcDbEntity
  8
1
  6
CONTINUOUS
 62
     7
100
AcDbLine
 10
-101.979798396769
 20
87.3285592843999
 30
0.0
 11
-97.1797983967689
 21
87.3285592843999
 31
0.0
  0
LINE
  5
212
330
1F
100
AcDbEntity
  8
1
  6
CONTINUOUS
 62
     7
100
AcDbLine
 10
-101.979798396769
 20
43.3285592843999
 30
0.0
 11
-101.979798396769
 21
56.3285592843999
 31
0.0
  0
LINE
  5
213
330
1F
100
AcDbEntity
  8
1
  6
CONTINUOUS
 62
     7
100
AcDbLine
 10
-97.1797983967689
 20
43.3285592843999
 30
0.0
 11
-97.1797983967689
 21
87.3285592843999
 31
0.0
  0
LINE
  5
214
330
1F
100
AcDbEntity
  8
1
  6
CONTINUOUS
 62
     7
100
AcDbLine
 10
-101.979798396769
 20
56.3285592843999
 30
0.0
 11
-101.979798396769
 21
87.3285592843999
 31
0.0
  0
LINE
  5
215
330
1F
100
AcDbEntity
  8
1
  6
CONTINUOUS
 62
     7
100
AcDbLine
 10
-97.1797983967689
 20
83.0285592843999
 30
0.0
 11
-82.57979839676889
 21
83.0285592843999
 31
0.0
  0
LINE
  5
216
330
1F
100
AcDbEntity
  8
1
  6
CONTINUOUS
 62
     7
100
AcDbLine
 10
-165.179798396769
 20
83.0285592843999
 30
0.0
 11
-135.979798396769
 21
83.0285592843999
 31
0.0
  0
LINE
  5
217
330
1F
100
AcDbEntity
  8
1
  6
CONTINUOUS
 62
     7
100
AcDbLine
 10
-150.579798396769
 20
82.3285592843999
 30
0.0
 11
-135.979798396769
 21
82.3285592843999
 31
0.0
  0
LINE
  5
218
330
1F
100
AcDbEntity
  8
1
  6
CONTINUOUS
 62
     7
100
AcDbLine
 10
-150.579798396769
 20
56.3285592843999
 30
0.0
 11
-135.979798396769
 21
56.3285592843999
 31
0.0
  0
LINE
  5
219
330
1F
100
AcDbEntity
  8
1
  6
CONTINUOUS
 62
     7
100
AcDbLine
 10
-150.579798396769
 20
43.3285592843999
 30
0.0
 11
-135.979798396769
 21
43.3285592843999
 31
0.0
  0
LINE
  5
21A
330
1F
100
AcDbEntity
  8
1
  6
CONTINUOUS
 62
     7
100
AcDbLine
 10
-150.579798396769
 20
32.3285592843999
 30
0.0
 11
-116.579798396769
 21
32.3285592843999
 31
0.0
  0
LINE
  5
21B
330
1F
100
AcDbEntity
  8
1
  6
CONTINUOUS
 62
     7
100
AcDbLine
 10
-131.179798396769
 20
83.0285592843999
 30
0.0
 11
-116.579798396769
 21
83.0285592843999
 31
0.0
  0
LINE
  5
21C
330
1F
100
AcDbEntity
  8
1
  6
CONTINUOUS
 62
     7
100
AcDbLine
 10
-135.979798396769
 20
56.3285592843999
 30
0.0
 11
-135.979798396769
 21
87.3285592843999
 31
0.0
  0
LINE
  5
21D
330
1F
100
AcDbEntity
  8
1
  6
CONTINUOUS
 62
     7
100
AcDbLine
 10
-131.179798396769
 20
43.3285592843999
 30
0.0
 11
-131.179798396769
 21
87.3285592843999
 31
0.0
  0
LINE
  5
21E
330
1F
100
AcDbEntity
  8
1
  6
CONTINUOUS
 62
     7
100
AcDbLine
 10
-135.979798396769
 20
43.3285592843999
 30
0.0
 11
-135.979798396769
 21
56.3285592843999
 31
0.0
  0
LINE
  5
21F
330
1F
100
AcDbEntity
  8
1
  6
CONTINUOUS
 62
     7
100
AcDbLine
 10
-135.979798396769
 20
87.3285592843999
 30
0.0
 11
-131.179798396769
 21
87.3285592843999
 31
0.0
  0
LINE
  5
220
330
1F
100
AcDbEntity
  8
1
  6
CONTINUOUS
 62
     7
100
AcDbLine
 10
-131.179798396769
 20
43.3285592843999
 30
0.0
 11
-116.579798396769
 21
43.3285592843999
 31
0.0
  0
LINE
  5
221
330
1F
100
AcDbEntity
  8
1
  6
CONTINUOUS
 62
     7
100
AcDbLine
 10
-131.179798396769
 20
82.3285592843999
 30
0.0
 11
-116.579798396769
 21
82.3285592843999
 31
0.0
  0
LINE
  5
222
330
1F
100
AcDbEntity
  8
1
  6
CONTINUOUS
 62
     7
100
AcDbLine
 10
-116.579798396769
 20
56.3285592843999
 30
0.0
 11
-131.179798396769
 21
56.3285592843999
 31
0.0
  0
LINE
  5
223
330
1F
100
AcDbEntity
  8
1
  6
CONTINUOUS
 62
     7
100
AcDbLine
 10
-116.579798396769
 20
56.3285592843999
 30
0.0
 11
-116.579798396769
 21
32.3285592843999
 31
0.0
  0
LINE
  5
224
330
1F
100
AcDbEntity
  8
1
  6
CONTINUOUS
 62
     7
100
AcDbLine
 10
-199.179798396769
 20
83.0285592843999
 30
0.0
 11
-169.979798396769
 21
83.0285592843999
 31
0.0
  0
LINE
  5
225
330
1F
100
AcDbEntity
  8
1
  6
CONTINUOUS
 62
     7
100
AcDbLine
 10
-184.579798396769
 20
82.3285592843999
 30
0.0
 11
-169.979798396769
 21
82.3285592843999
 31
0.0
  0
LINE
  5
226
330
1F
100
AcDbEntity
  8
1
  6
CONTINUOUS
 62
     7
100
AcDbLine
 10
-184.579798396769
 20
56.3285592843999
 30
0.0
 11
-169.979798396769
 21
56.3285592843999
 31
0.0
  0
LINE
  5
227
330
1F
100
AcDbEntity
  8
1
  6
CONTINUOUS
 62
     7
100
AcDbLine
 10
-184.579798396769
 20
43.3285592843999
 30
0.0
 11
-169.979798396769
 21
43.3285592843999
 31
0.0
  0
LINE
  5
228
330
1F
100
AcDbEntity
  8
1
  6
CONTINUOUS
 62
     7
100
AcDbLine
 10
-184.579798396769
 20
32.3285592843999
 30
0.0
 11
-150.579798396769
 21
32.3285592843999
 31
0.0
  0
LINE
  5
229
330
1F
100
AcDbEntity
  8
1
  6
CONTINUOUS
 62
     7
100
AcDbLine
 10
-150.579798396769
 20
56.3285592843999
 30
0.0
 11
-150.579798396769
 21
32.3285592843999
 31
0.0
  0
LINE
  5
22A
330
1F
100
AcDbEntity
  8
1
  6
CONTINUOUS
 62
     7
100
AcDbLine
 10
-150.579798396769
 20
56.3285592843999
 30
0.0
 11
-165.179798396769
 21
56.3285592843999
 31
0.0
  0
LINE
  5
22B
330
1F
100
AcDbEntity
  8
1
  6
CONTINUOUS
 62
     7
100
AcDbLine
 10
-165.179798396769
 20
82.3285592843999
 30
0.0
 11
-150.579798396769
 21
82.3285592843999
 31
0.0
  0
LINE
  5
22C
330
1F
100
AcDbEntity
  8
1
  6
CONTINUOUS
 62
     7
100
AcDbLine
 10
-165.179798396769
 20
43.3285592843999
 30
0.0
 11
-150.579798396769
 21
43.3285592843999
 31
0.0
  0
LINE
  5
22D
330
1F
100
AcDbEntity
  8
1
  6
CONTINUOUS
 62
     7
100
AcDbLine
 10
-169.979798396769
 20
87.3285592843999
 30
0.0
 11
-165.179798396769
 21
87.3285592843999
 31
0.0
  0
LINE
  5
22E
330
1F
100
AcDbEntity
  8
1
  6
CONTINUOUS
 62
     7
100
AcDbLine
 10
-169.979798396769
 20
43.3285592843999
 30
0.0
 11
-169.979798396769
 21
56.3285592843999
 31
0.0
  0
LINE
  5
22F
330
1F
100
AcDbEntity
  8
1
  6
CONTINUOUS
 62
     7
100
AcDbLine
 10
-165.179798396769
 20
43.3285592843999
 30
0.0
 11
-165.179798396769
 21
87.3285592843999
 31
0.0
  0
LINE
  5
230
330
1F
100
AcDbEntity
  8
1
  6
CONTINUOUS
 62
     7
100
AcDbLine
 10
-169.979798396769
 20
56.3285592843999
 30
0.0
 11
-169.979798396769
 21
87.3285592843999
 31
0.0
  0
LINE
  5
231
330
1F
100
AcDbEntity
  8
1
  6
CONTINUOUS
 62
     7
100
AcDbLine
 10
-165.179798396769
 20
83.0285592843999
 30
0.0
 11
-150.579798396769
 21
83.0285592843999
 31
0.0
  0
LINE
  5
232
330
1F
100
AcDbEntity
  8
1
  6
CONTINUOUS
 62
     7
100
AcDbLine
 10
-218.579798396769
 20
32.3285592843999
 30
0.0
 11
-184.579798396769
 21
32.3285592843999
 31
0.0
  0
LINE
  5
233
330
1F
100
AcDbEntity
  8
1
  6
CONTINUOUS
 62
     7
100
AcDbLine
 10
-218.579798396769
 20
43.3285592843999
 30
0.0
 11
-203.979798396769
 21
43.3285592843999
 31
0.0
  0
LINE
  5
234
330
1F
100
AcDbEntity
  8
1
  6
CONTINUOUS
 62
     7
100
AcDbLine
 10
-218.579798396769
 20
56.3285592843999
 30
0.0
 11
-203.979798396769
 21
56.3285592843999
 31
0.0
  0
LINE
  5
235
330
1F
100
AcDbEntity
  8
1
  6
CONTINUOUS
 62
     7
100
AcDbLine
 10
-233.179798396769
 20
83.0285592843999
 30
0.0
 11
-203.979798396769
 21
83.0285592843999
 31
0.0
  0
LINE
  5
236
330
1F
100
AcDbEntity
  8
1
  6
CONTINUOUS
 62
     7
100
AcDbLine
 10
-218.579798396769
 20
82.3285592843999
 30
0.0
 11
-203.979798396769
 21
82.3285592843999
 31
0.0
  0
LINE
  5
237
330
1F
100
AcDbEntity
  8
1
  6
CONTINUOUS
 62
     7
100
AcDbLine
 10
-199.179798396769
 20
83.0285592843999
 30
0.0
 11
-184.579798396769
 21
83.0285592843999
 31
0.0
  0
LINE
  5
238
330
1F
100
AcDbEntity
  8
1
  6
CONTINUOUS
 62
     7
100
AcDbLine
 10
-203.979798396769
 20
56.3285592843999
 30
0.0
 11
-203.979798396769
 21
87.3285592843999
 31
0.0
  0
LINE
  5
239
330
1F
100
AcDbEntity
  8
1
  6
CONTINUOUS
 62
     7
100
AcDbLine
 10
-199.179798396769
 20
43.3285592843999
 30
0.0
 11
-199.179798396769
 21
87.3285592843999
 31
0.0
  0
LINE
  5
23A
330
1F
100
AcDbEntity
  8
1
  6
CONTINUOUS
 62
     7
100
AcDbLine
 10
-203.979798396769
 20
43.3285592843999
 30
0.0
 11
-203.979798396769
 21
56.3285592843999
 31
0.0
  0
LINE
  5
23B
330
1F
100
AcDbEntity
  8
1
  6
CONTINUOUS
 62
     7
100
AcDbLine
 10
-203.979798396769
 20
87.3285592843999
 30
0.0
 11
-199.179798396769
 21
87.3285592843999
 31
0.0
  0
LINE
  5
23C
330
1F
100
AcDbEntity
  8
1
  6
CONTINUOUS
 62
     7
100
AcDbLine
 10
-199.179798396769
 20
43.3285592843999
 30
0.0
 11
-184.579798396769
 21
43.3285592843999
 31
0.0
  0
LINE
  5
23D
330
1F
100
AcDbEntity
  8
1
  6
CONTINUOUS
 62
     7
100
AcDbLine
 10
-199.179798396769
 20
82.3285592843999
 30
0.0
 11
-184.579798396769
 21
82.3285592843999
 31
0.0
  0
LINE
  5
23E
330
1F
100
AcDbEntity
  8
1
  6
CONTINUOUS
 62
     7
100
AcDbLine
 10
-184.579798396769
 20
56.3285592843999
 30
0.0
 11
-199.179798396769
 21
56.3285592843999
 31
0.0
  0
LINE
  5
23F
330
1F
100
AcDbEntity
  8
1
  6
CONTINUOUS
 62
     7
100
AcDbLine
 10
-184.579798396769
 20
56.3285592843999
 30
0.0
 11
-184.579798396769
 21
32.3285592843999
 31
0.0
  0
LINE
  5
240
330
1F
100
AcDbEntity
  8
1
  6
CONTINUOUS
 62
     7
100
AcDbLine
 10
-252.579798396769
 20
32.3285592843999
 30
0.0
 11
-218.579798396769
 21
32.3285592843999
 31
0.0
  0
LINE
  5
241
330
1F
100
AcDbEntity
  8
1
  6
CONTINUOUS
 62
     7
100
AcDbLine
 10
-252.579798396769
 20
56.3285592843999
 30
0.0
 11
-237.979798396769
 21
56.3285592843999
 31
0.0
  0
LINE
  5
242
330
1F
100
AcDbEntity
  8
1
  6
CONTINUOUS
 62
     7
100
AcDbLine
 10
-252.579798396769
 20
43.3285592843999
 30
0.0
 11
-237.979798396769
 21
43.3285592843999
 31
0.0
  0
LINE
  5
243
330
1F
100
AcDbEntity
  8
1
  6
CONTINUOUS
 62
     7
100
AcDbLine
 10
-267.179798396769
 20
83.0285592843999
 30
0.0
 11
-237.979798396769
 21
83.0285592843999
 31
0.0
  0
LINE
  5
244
330
1F
100
AcDbEntity
  8
1
  6
CONTINUOUS
 62
     7
100
AcDbLine
 10
-252.579798396769
 20
82.3285592843999
 30
0.0
 11
-237.979798396769
 21
82.3285592843999
 31
0.0
  0
LINE
  5
245
330
1F
100
AcDbEntity
  8
1
  6
CONTINUOUS
 62
     7
100
AcDbLine
 10
-218.579798396769
 20
56.3285592843999
 30
0.0
 11
-218.579798396769
 21
32.3285592843999
 31
0.0
  0
LINE
  5
246
330
1F
100
AcDbEntity
  8
1
  6
CONTINUOUS
 62
     7
100
AcDbLine
 10
-218.579798396769
 20
56.3285592843999
 30
0.0
 11
-233.179798396769
 21
56.3285592843999
 31
0.0
  0
LINE
  5
247
330
1F
100
AcDbEntity
  8
1
  6
CONTINUOUS
 62
     7
100
AcDbLine
 10
-233.179798396769
 20
82.3285592843999
 30
0.0
 11
-218.579798396769
 21
82.3285592843999
 31
0.0
  0
LINE
  5
248
330
1F
100
AcDbEntity
  8
1
  6
CONTINUOUS
 62
     7
100
AcDbLine
 10
-233.179798396769
 20
43.3285592843999
 30
0.0
 11
-218.579798396769
 21
43.3285592843999
 31
0.0
  0
LINE
  5
249
330
1F
100
AcDbEntity
  8
1
  6
CONTINUOUS
 62
     7
100
AcDbLine
 10
-237.979798396769
 20
87.3285592843999
 30
0.0
 11
-233.179798396769
 21
87.3285592843999
 31
0.0
  0
LINE
  5
24A
330
1F
100
AcDbEntity
  8
1
  6
CONTINUOUS
 62
     7
100
AcDbLine
 10
-237.979798396769
 20
43.3285592843999
 30
0.0
 11
-237.979798396769
 21
56.3285592843999
 31
0.0
  0
LINE
  5
24B
330
1F
100
AcDbEntity
  8
1
  6
CONTINUOUS
 62
     7
100
AcDbLine
 10
-233.179798396769
 20
43.3285592843999
 30
0.0
 11
-233.179798396769
 21
87.3285592843999
 31
0.0
  0
LINE
  5
24C
330
1F
100
AcDbEntity
  8
1
  6
CONTINUOUS
 62
     7
100
AcDbLine
 10
-237.979798396769
 20
56.3285592843999
 30
0.0
 11
-237.979798396769
 21
87.3285592843999
 31
0.0
  0
LINE
  5
24D
330
1F
100
AcDbEntity
  8
1
  6
CONTINUOUS
 62
     7
100
AcDbLine
 10
-233.179798396769
 20
83.0285592843999
 30
0.0
 11
-218.579798396769
 21
83.0285592843999
 31
0.0
  0
LINE
  5
24E
330
1F
100
AcDbEntity
  8
1
  6
CONTINUOUS
 62
     7
100
AcDbLine
 10
-286.579798396769
 20
32.3285592843999
 30
0.0
 11
-252.579798396769
 21
32.3285592843999
 31
0.0
  0
LINE
  5
24F
330
1F
100
AcDbEntity
  8
1
  6
CONTINUOUS
 62
     7
100
AcDbLine
 10
-286.579798396769
 20
43.3285592843999
 30
0.0
 11
-271.979798396769
 21
43.3285592843999
 31
0.0
  0
LINE
  5
250
330
1F
100
AcDbEntity
  8
1
  6
CONTINUOUS
 62
     7
100
AcDbLine
 10
-286.579798396769
 20
56.3285592843999
 30
0.0
 11
-271.979798396769
 21
56.3285592843999
 31
0.0
  0
LINE
  5
251
330
1F
100
AcDbEntity
  8
1
  6
CONTINUOUS
 62
     7
100
AcDbLine
 10
-301.179798396769
 20
83.0285592843999
 30
0.0
 11
-271.979798396769
 21
83.0285592843999
 31
0.0
  0
LINE
  5
252
330
1F
100
AcDbEntity
  8
1
  6
CONTINUOUS
 62
     7
100
AcDbLine
 10
-286.579798396769
 20
82.3285592843999
 30
0.0
 11
-271.979798396769
 21
82.3285592843999
 31
0.0
  0
LINE
  5
253
330
1F
100
AcDbEntity
  8
1
  6
CONTINUOUS
 62
     7
100
AcDbLine
 10
-267.179798396769
 20
83.0285592843999
 30
0.0
 11
-252.579798396769
 21
83.0285592843999
 31
0.0
  0
LINE
  5
254
330
1F
100
AcDbEntity
  8
1
  6
CONTINUOUS
 62
     7
100
AcDbLine
 10
-271.979798396769
 20
56.3285592843999
 30
0.0
 11
-271.979798396769
 21
87.3285592843999
 31
0.0
  0
LINE
  5
255
330
1F
100
AcDbEntity
  8
1
  6
CONTINUOUS
 62
     7
100
AcDbLine
 10
-267.179798396769
 20
43.3285592843999
 30
0.0
 11
-267.179798396769
 21
87.3285592843999
 31
0.0
  0
LINE
  5
256
330
1F
100
AcDbEntity
  8
1
  6
CONTINUOUS
 62
     7
100
AcDbLine
 10
-271.979798396769
 20
43.3285592843999
 30
0.0
 11
-271.979798396769
 21
56.3285592843999
 31
0.0
  0
LINE
  5
257
330
1F
100
AcDbEntity
  8
1
  6
CONTINUOUS
 62
     7
100
AcDbLine
 10
-271.979798396769
 20
87.3285592843999
 30
0.0
 11
-267.179798396769
 21
87.3285592843999
 31
0.0
  0
LINE
  5
258
330
1F
100
AcDbEntity
  8
1
  6
CONTINUOUS
 62
     7
100
AcDbLine
 10
-267.179798396769
 20
43.3285592843999
 30
0.0
 11
-252.579798396769
 21
43.3285592843999
 31
0.0
  0
LINE
  5
259
330
1F
100
AcDbEntity
  8
1
  6
CONTINUOUS
 62
     7
100
AcDbLine
 10
-267.179798396769
 20
82.3285592843999
 30
0.0
 11
-252.579798396769
 21
82.3285592843999
 31
0.0
  0
LINE
  5
25A
330
1F
100
AcDbEntity
  8
1
  6
CONTINUOUS
 62
     7
100
AcDbLine
 10
-252.579798396769
 20
56.3285592843999
 30
0.0
 11
-267.179798396769
 21
56.3285592843999
 31
0.0
  0
LINE
  5
25B
330
1F
100
AcDbEntity
  8
1
  6
CONTINUOUS
 62
     7
100
AcDbLine
 10
-252.579798396769
 20
56.3285592843999
 30
0.0
 11
-252.579798396769
 21
32.3285592843999
 31
0.0
  0
LINE
  5
25C
330
1F
100
AcDbEntity
  8
1
  6
CONTINUOUS
 62
     7
100
AcDbLine
 10
-335.179798396769
 20
83.0285592843999
 30
0.0
 11
-305.979798396769
 21
83.0285592843999
 31
0.0
  0
LINE
  5
25D
330
1F
100
AcDbEntity
  8
1
  6
CONTINUOUS
 62
     7
100
AcDbLine
 10
-320.579798396769
 20
82.3285592843999
 30
0.0
 11
-305.979798396769
 21
82.3285592843999
 31
0.0
  0
LINE
  5
25E
330
1F
100
AcDbEntity
  8
1
  6
CONTINUOUS
 62
     7
100
AcDbLine
 10
-320.579798396769
 20
56.3285592843999
 30
0.0
 11
-305.979798396769
 21
56.3285592843999
 31
0.0
  0
LINE
  5
25F
330
1F
100
AcDbEntity
  8
1
  6
CONTINUOUS
 62
     7
100
AcDbLine
 10
-320.579798396769
 20
43.3285592843999
 30
0.0
 11
-305.979798396769
 21
43.3285592843999
 31
0.0
  0
LINE
  5
260
330
1F
100
AcDbEntity
  8
1
  6
CONTINUOUS
 62
     7
100
AcDbLine
 10
-320.579798396769
 20
32.3285592843999
 30
0.0
 11
-286.579798396769
 21
32.3285592843999
 31
0.0
  0
LINE
  5
261
330
1F
100
AcDbEntity
  8
1
  6
CONTINUOUS
 62
     7
100
AcDbLine
 10
-286.579798396769
 20
56.3285592843999
 30
0.0
 11
-286.579798396769
 21
32.3285592843999
 31
0.0
  0
LINE
  5
262
330
1F
100
AcDbEntity
  8
1
  6
CONTINUOUS
 62
     7
100
AcDbLine
 10
-286.579798396769
 20
56.3285592843999
 30
0.0
 11
-301.179798396769
 21
56.3285592843999
 31
0.0
  0
LINE
  5
263
330
1F
100
AcDbEntity
  8
1
  6
CONTINUOUS
 62
     7
100
AcDbLine
 10
-301.179798396769
 20
82.3285592843999
 30
0.0
 11
-286.579798396769
 21
82.3285592843999
 31
0.0
  0
LINE
  5
264
330
1F
100
AcDbEntity
  8
1
  6
CONTINUOUS
 62
     7
100
AcDbLine
 10
-286.579798396769
 20
43.3285592843999
 30
0.0
 11
-301.179798396769
 21
43.3285592843999
 31
0.0
  0
LINE
  5
265
330
1F
100
AcDbEntity
  8
1
  6
CONTINUOUS
 62
     7
100
AcDbLine
 10
-301.179798396769
 20
43.3285592843999
 30
0.0
 11
-286.579798396769
 21
43.3285592843999
 31
0.0
  0
LINE
  5
266
330
1F
100
AcDbEntity
  8
1
  6
CONTINUOUS
 62
     7
100
AcDbLine
 10
-305.979798396769
 20
87.3285592843999
 30
0.0
 11
-301.179798396769
 21
87.3285592843999
 31
0.0
  0
LINE
  5
267
330
1F
100
AcDbEntity
  8
1
  6
CONTINUOUS
 62
     7
100
AcDbLine
 10
-305.979798396769
 20
43.3285592843999
 30
0.0
 11
-305.979798396769
 21
56.3285592843999
 31
0.0
  0
LINE
  5
268
330
1F
100
AcDbEntity
  8
1
  6
CONTINUOUS
 62
     7
100
AcDbLine
 10
-301.179798396769
 20
43.3285592843999
 30
0.0
 11
-301.179798396769
 21
87.3285592843999
 31
0.0
  0
LINE
  5
269
330
1F
100
AcDbEntity
  8
1
  6
CONTINUOUS
 62
     7
100
AcDbLine
 10
-305.979798396769
 20
56.3285592843999
 30
0.0
 11
-305.979798396769
 21
87.3285592843999
 31
0.0
  0
LINE
  5
26A
330
1F
100
AcDbEntity
  8
1
  6
CONTINUOUS
 62
     7
100
AcDbLine
 10
-301.179798396769
 20
83.0285592843999
 30
0.0
 11
-286.579798396769
 21
83.0285592843999
 31
0.0
  0
LINE
  5
26B
330
1F
100
AcDbEntity
  8
1
  6
CONTINUOUS
 62
     7
100
AcDbLine
 10
-335.179798396769
 20
83.0285592843999
 30
0.0
 11
-320.579798396769
 21
83.0285592843999
 31
0.0
  0
LINE
  5
26C
330
1F
100
AcDbEntity
  8
1
  6
CONTINUOUS
 62
     7
100
AcDbLine
 10
-354.579798396769
 20
32.3285592843999
 30
0.0
 11
-320.579798396769
 21
32.3285592843999
 31
0.0
  0
LINE
  5
26D
330
1F
100
AcDbEntity
  8
1
  6
CONTINUOUS
 62
     7
100
AcDbLine
 10
-339.979798396769
 20
56.3285592843999
 30
0.0
 11
-339.979798396769
 21
87.3285592843999
 31
0.0
  0
LINE
  5
26E
330
1F
100
AcDbEntity
  8
1
  6
CONTINUOUS
 62
     7
100
AcDbLine
 10
-354.579798396769
 20
56.3285592843999
 30
0.0
 11
-339.979798396769
 21
56.3285592843999
 31
0.0
  0
LINE
  5
26F
330
1F
100
AcDbEntity
  8
1
  6
CONTINUOUS
 62
     7
100
AcDbLine
 10
-354.579798396769
 20
43.3285592843999
 30
0.0
 11
-339.979798396769
 21
43.3285592843999
 31
0.0
  0
LINE
  5
270
330
1F
100
AcDbEntity
  8
1
  6
CONTINUOUS
 62
     7
100
AcDbLine
 10
-335.179798396769
 20
43.3285592843999
 30
0.0
 11
-335.179798396769
 21
87.3285592843999
 31
0.0
  0
LINE
  5
271
330
1F
100
AcDbEntity
  8
1
  6
CONTINUOUS
 62
     7
100
AcDbLine
 10
-339.979798396769
 20
43.3285592843999
 30
0.0
 11
-339.979798396769
 21
56.3285592843999
 31
0.0
  0
LINE
  5
272
330
1F
100
AcDbEntity
  8
1
  6
CONTINUOUS
 62
     7
100
AcDbLine
 10
-339.979798396769
 20
87.3285592843999
 30
0.0
 11
-335.179798396769
 21
87.3285592843999
 31
0.0
  0
LINE
  5
273
330
1F
100
AcDbEntity
  8
1
  6
CONTINUOUS
 62
     7
100
AcDbLine
 10
-335.179798396769
 20
43.3285592843999
 30
0.0
 11
-320.579798396769
 21
43.3285592843999
 31
0.0
  0
LINE
  5
274
330
1F
100
AcDbEntity
  8
1
  6
CONTINUOUS
 62
     7
100
AcDbLine
 10
-335.179798396769
 20
82.3285592843999
 30
0.0
 11
-320.579798396769
 21
82.3285592843999
 31
0.0
  0
LINE
  5
275
330
1F
100
AcDbEntity
  8
1
  6
CONTINUOUS
 62
     7
100
AcDbLine
 10
-320.579798396769
 20
56.3285592843999
 30
0.0
 11
-335.179798396769
 21
56.3285592843999
 31
0.0
  0
LINE
  5
276
330
1F
100
AcDbEntity
  8
1
  6
CONTINUOUS
 62
     7
100
AcDbLine
 10
-320.579798396769
 20
56.3285592843999
 30
0.0
 11
-320.579798396769
 21
32.3285592843999
 31
0.0
  0
LINE
  5
277
330
1F
100
AcDbEntity
  8
1
  6
CONTINUOUS
 62
     7
100
AcDbLine
 10
-378.764843820546
 20
69.2140281045818
 30
0.0
 11
-378.764843820546
 21
69.2140281045818
 31
0.0
  0
LINE
  5
278
330
1F
100
AcDbEntity
  8
1
  6
CONTINUOUS
 62
     7
100
AcDbLine
 10
-381.218582464602
 20
69.92855928440009
 30
0.0
 11
-395.941014328937
 21
69.92855928439811
 31
0.0
  0
LINE
  5
279
330
1F
100
AcDbEntity
  8
1
  6
CONTINUOUS
 62
     7
100
AcDbLine
 10
-378.764843820546
 20
63.6430904642165
 30
0.0
 11
-378.764843820546
 21
69.2140281045818
 31
0.0
  0
LINE
  5
27A
330
1F
100
AcDbEntity
  8
1
  6
CONTINUOUS
 62
     7
100
AcDbLine
 10
-398.394752972993
 20
69.2140281045818
 30
0.0
 11
-398.394752972993
 21
63.6430904642165
 31
0.0
  0
LINE
  5
27B
330
1F
100
AcDbEntity
  8
1
  6
CONTINUOUS
 62
     7
100
AcDbLine
 10
-393.487275684881
 20
63.6430904642165
 30
0.0
 11
-393.487275684881
 21
69.2140281045818
 31
0.0
  0
LINE
  5
27C
330
1F
100
AcDbEntity
  8
1
  6
CONTINUOUS
 62
     7
100
AcDbLine
 10
-383.672321108658
 20
69.2140281045818
 30
0.0
 11
-383.672321108658
 21
63.6430904642165
 31
0.0
  0
LINE
  5
27D
330
1F
100
AcDbEntity
  8
1
  6
CONTINUOUS
 62
     7
100
AcDbLine
 10
-349.672321108658
 20
186.211538572177
 30
0.0
 11
-359.487275684881
 21
186.211538572177
 31
0.0
  0
LINE
  5
27E
330
1F
100
AcDbEntity
  8
1
  6
CONTINUOUS
 62
     7
100
AcDbLine
 10
-344.764843820546
 20
177.711538572177
 30
0.0
 11
-349.672321108658
 21
186.211538572177
 31
0.0
  0
LINE
  5
27F
330
1F
100
AcDbEntity
  8
1
  6
CONTINUOUS
 62
     7
100
AcDbLine
 10
-349.672321108658
 20
169.211538572177
 30
0.0
 11
-344.764843820546
 21
177.711538572177
 31
0.0
  0
LINE
  5
280
330
1F
100
AcDbEntity
  8
1
  6
CONTINUOUS
 62
     7
100
AcDbLine
 10
-359.487275684881
 20
169.211538572177
 30
0.0
 11
-349.672321108658
 21
169.211538572177
 31
0.0
  0
LINE
  5
281
330
1F
100
AcDbEntity
  8
1
  6
CONTINUOUS
 62
     7
100
AcDbLine
 10
-364.394752972993
 20
177.711538572177
 30
0.0
 11
-359.487275684881
 21
169.211538572177
 31
0.0
  0
LINE
  5
282
330
1F
100
AcDbEntity
  8
1
  6
CONTINUOUS
 62
     7
100
AcDbLine
 10
-359.487275684881
 20
186.211538572177
 30
0.0
 11
-364.394752972993
 21
177.711538572177
 31
0.0
  0
LINE
  5
283
330
1F
100
AcDbEntity
  8
1
  6
CONTINUOUS
 62
     7
100
AcDbLine
 10
-403.579798396769
 20
192.711538572177
 30
0.0
 11
-403.579798396769
 21
191.711538572177
 31
0.0
  0
LINE
  5
284
330
1F
100
AcDbEntity
  8
1
  6
CONTINUOUS
 62
     7
100
AcDbLine
 10
-403.579798396769
 20
202.711538572177
 30
0.0
 11
-403.579798396769
 21
192.711538572177
 31
0.0
  0
LINE
  5
285
330
1F
100
AcDbEntity
  8
1
  6
CONTINUOUS
 62
     7
100
AcDbLine
 10
-403.579798396769
 20
202.711538572177
 30
0.0
 11
-373.979798396769
 21
202.711538572177
 31
0.0
  0
LINE
  5
286
330
1F
100
AcDbEntity
  8
1
  6
CONTINUOUS
 62
     7
100
AcDbLine
 10
-403.579798396769
 20
192.711538572177
 30
0.0
 11
-373.979798396769
 21
192.711538572177
 31
0.0
  0
LINE
  5
287
330
1F
100
AcDbEntity
  8
1
  6
CONTINUOUS
 62
     7
100
AcDbLine
 10
-402.579798396769
 20
192.711538572177
 30
0.0
 11
-402.579798396769
 21
167.711538572177
 31
0.0
  0
LINE
  5
288
330
1F
100
AcDbEntity
  8
1
  6
CONTINUOUS
 62
     7
100
AcDbLine
 10
-402.579798396769
 20
227.711538572177
 30
0.0
 11
-402.579798396769
 21
202.711538572177
 31
0.0
  0
LINE
  5
289
330
1F
100
AcDbEntity
  8
1
  6
CONTINUOUS
 62
     7
100
AcDbLine
 10
-403.579798396769
 20
191.711538572177
 30
0.0
 11
-403.579798396769
 21
155.961538572177
 31
0.0
  0
LINE
  5
28A
330
1F
100
AcDbEntity
  8
1
  6
CONTINUOUS
 62
     7
100
AcDbLine
 10
-403.579798396769
 20
203.711538572177
 30
0.0
 11
-403.579798396769
 21
202.711538572177
 31
0.0
  0
LINE
  5
28B
330
1F
100
AcDbEntity
  8
1
  6
CONTINUOUS
 62
     7
100
AcDbLine
 10
-412.579798396769
 20
203.711538572177
 30
0.0
 11
-403.579798396769
 21
203.711538572177
 31
0.0
  0
LINE
  5
28C
330
1F
100
AcDbEntity
  8
1
  6
CONTINUOUS
 62
     7
100
AcDbLine
 10
-358.815092514416
 20
177.711538572177
 30
0.0
 11
-350.344504279122
 21
177.711538572177
 31
0.0
  0
LINE
  5
28D
330
1F
100
AcDbEntity
  8
1
  6
CONTINUOUS
 62
     7
100
AcDbLine
 10
-354.579798396769
 20
181.946832689824
 30
0.0
 11
-354.579798396769
 21
173.47624445453
 31
0.0
  0
LINE
  5
28E
330
1F
100
AcDbEntity
  8
1
  6
CONTINUOUS
 62
     7
100
AcDbLine
 10
-399.579798396769
 20
59.5285592843999
 30
0.0
 11
-399.579798396769
 21
61.1285592843998
 31
0.0
  0
LINE
  5
28F
330
1F
100
AcDbEntity
  8
1
  6
CONTINUOUS
 62
     7
100
AcDbLine
 10
-377.579798396769
 20
59.5285592843999
 30
0.0
 11
-399.579798396769
 21
59.5285592843999
 31
0.0
  0
LINE
  5
290
330
1F
100
AcDbEntity
  8
1
  6
CONTINUOUS
 62
     7
100
AcDbLine
 10
-377.579798396769
 20
61.1285592843998
 30
0.0
 11
-377.579798396769
 21
59.5285592843999
 31
0.0
  0
LINE
  5
291
330
1F
100
AcDbEntity
  8
1
  6
CONTINUOUS
 62
     7
100
AcDbLine
 10
-399.579798396769
 20
61.1285592843998
 30
0.0
 11
-377.579798396769
 21
61.1285592843998
 31
0.0
  0
LINE
  5
292
330
1F
100
AcDbEntity
  8
1
  6
CONTINUOUS
 62
     7
100
AcDbLine
 10
-380.47979839677
 20
62.9285592843999
 30
0.0
 11
-380.47979839677
 21
61.1285592843998
 31
0.0
  0
LINE
  5
293
330
1F
100
AcDbEntity
  8
1
  6
CONTINUOUS
 62
     7
100
AcDbLine
 10
-396.679798396769
 20
61.1285592843998
 30
0.0
 11
-396.679798396769
 21
62.9285592843999
 31
0.0
  0
LINE
  5
294
330
1F
100
AcDbEntity
  8
1
  6
CONTINUOUS
 62
     7
100
AcDbLine
 10
-396.679798396769
 20
62.9285592843999
 30
0.0
 11
-380.47979839677
 21
62.9285592843999
 31
0.0
  0
LINE
  5
295
330
1F
100
AcDbEntity
  8
1
  6
CONTINUOUS
 62
     7
100
AcDbLine
 10
-388.579798396769
 20
59.5285592843999
 30
0.0
 11
-374.379798396769
 21
59.5285592843999
 31
0.0
  0
LINE
  5
296
330
1F
100
AcDbEntity
  8
1
  6
CONTINUOUS
 62
     7
100
AcDbLine
 10
-374.379798396769
 20
59.5285592843999
 30
0.0
 11
-374.379798396769
 21
56.3285592843999
 31
0.0
  0
LINE
  5
297
330
1F
100
AcDbEntity
  8
1
  6
CONTINUOUS
 62
     7
100
AcDbLine
 10
-402.779798396769
 20
59.5285592843999
 30
0.0
 11
-388.579798396769
 21
59.5285592843999
 31
0.0
  0
LINE
  5
298
330
1F
100
AcDbEntity
  8
1
  6
CONTINUOUS
 62
     7
100
AcDbLine
 10
-402.779798396769
 20
59.5285592843999
 30
0.0
 11
-402.779798396769
 21
56.3285592843999
 31
0.0
  0
LINE
  5
299
330
1F
100
AcDbEntity
  8
1
  6
CONTINUOUS
 62
     7
100
AcDbLine
 10
-375.579798396769
 20
228.711538572177
 30
0.0
 11
-401.579798396769
 21
228.711538572177
 31
0.0
  0
LINE
  5
29A
330
1F
100
AcDbEntity
  8
1
  6
CONTINUOUS
 62
     7
100
AcDbLine
 10
-374.579798396769
 20
202.711538572177
 30
0.0
 11
-374.579798396769
 21
227.711538572177
 31
0.0
  0
LINE
  5
29B
330
1F
100
AcDbEntity
  8
1
  6
CONTINUOUS
 62
     7
100
AcDbLine
 10
-374.579798396769
 20
167.711538572177
 30
0.0
 11
-374.579798396769
 21
192.711538572177
 31
0.0
  0
LINE
  5
29C
330
1F
100
AcDbEntity
  8
1
  6
CONTINUOUS
 62
     7
100
AcDbLine
 10
-401.579798396769
 20
166.711538572177
 30
0.0
 11
-375.579798396769
 21
166.711538572177
 31
0.0
  0
LINE
  5
29D
330
1F
100
AcDbEntity
  8
1
  6
CONTINUOUS
 62
     7
100
AcDbLine
 10
-341.579798396769
 20
228.711538572177
 30
0.0
 11
-367.579798396769
 21
228.711538572177
 31
0.0
  0
LINE
  5
29E
330
1F
100
AcDbEntity
  8
1
  6
CONTINUOUS
 62
     7
100
AcDbLine
 10
-368.579798396769
 20
227.711538572177
 30
0.0
 11
-368.579798396769
 21
202.711538572177
 31
0.0
  0
LINE
  5
29F
330
1F
100
AcDbEntity
  8
1
  6
CONTINUOUS
 62
     7
100
AcDbLine
 10
-340.579798396769
 20
202.711538572177
 30
0.0
 11
-340.579798396769
 21
227.711538572177
 31
0.0
  0
LINE
  5
2A0
330
1F
100
AcDbEntity
  8
1
  6
CONTINUOUS
 62
     7
100
AcDbLine
 10
-368.579798396769
 20
192.711538572177
 30
0.0
 11
-368.579798396769
 21
167.711538572177
 31
0.0
  0
LINE
  5
2A1
330
1F
100
AcDbEntity
  8
1
  6
CONTINUOUS
 62
     7
100
AcDbLine
 10
-367.579798396769
 20
166.711538572177
 30
0.0
 11
-341.579798396769
 21
166.711538572177
 31
0.0
  0
LINE
  5
2A2
330
1F
100
AcDbEntity
  8
1
  6
CONTINUOUS
 62
     7
100
AcDbLine
 10
-340.579798396769
 20
167.711538572177
 30
0.0
 11
-340.579798396769
 21
192.711538572177
 31
0.0
  0
LINE
  5
2A3
330
1F
100
AcDbEntity
  8
1
  6
CONTINUOUS
 62
     7
100
AcDbLine
 10
-407.579798396769
 20
154.411538572177
 30
0.0
 11
-63.5797983967688
 21
154.411538572177
 31
0.0
  0
LINE
  5
2A4
330
1F
100
AcDbEntity
  8
1
  6
CONTINUOUS
 62
     7
100
AcDbLine
 10
-407.579798396769
 20
88.5285592843999
 30
0.0
 11
-407.579798396769
 21
80.3285592843999
 31
0.0
  0
LINE
  5
2A5
330
1F
100
AcDbEntity
  8
1
  6
CONTINUOUS
 62
     7
100
AcDbLine
 10
-407.579798396769
 20
241.011538572177
 30
0.0
 11
-407.579798396769
 21
154.411538572177
 31
0.0
  0
LINE
  5
2A6
330
1F
100
AcDbEntity
  8
1
  6
CONTINUOUS
 62
     7
100
AcDbLine
 10
-63.5797983967688
 20
241.011538572177
 30
0.0
 11
-407.579798396769
 21
241.011538572177
 31
0.0
  0
LINE
  5
2A7
330
1F
100
AcDbEntity
  8
1
  6
CONTINUOUS
 62
     7
100
AcDbLine
 10
-63.5797983967688
 20
154.411538572177
 30
0.0
 11
-63.5797983967688
 21
241.011538572177
 31
0.0
  0
LINE
  5
2A8
330
1F
100
AcDbEntity
  8
1
  6
CONTINUOUS
 62
     7
100
AcDbLine
 10
-388.579798396769
 20
32.3285592843999
 30
0.0
 11
-354.579798396769
 21
32.3285592843999
 31
0.0
  0
LINE
  5
2A9
330
1F
100
AcDbEntity
  8
1
  6
CONTINUOUS
 62
     7
100
AcDbLine
 10
-388.579798396769
 20
56.3285592843999
 30
0.0
 11
-388.579798396769
 21
32.3285592843999
 31
0.0
  0
LINE
  5
2AA
330
1F
100
AcDbEntity
  8
1
  6
CONTINUOUS
 62
     7
100
AcDbLine
 10
-354.579798396769
 20
56.3285592843999
 30
0.0
 11
-354.579798396769
 21
32.3285592843999
 31
0.0
  0
LINE
  5
2AB
330
1F
100
AcDbEntity
  8
1
  6
CONTINUOUS
 62
     7
100
AcDbLine
 10
-354.579798396769
 20
56.3285592843999
 30
0.0
 11
-369.179798396769
 21
56.3285592843999
 31
0.0
  0
LINE
  5
2AC
330
1F
100
AcDbEntity
  8
1
  6
CONTINUOUS
 62
     7
100
AcDbLine
 10
-418.579798396769
 20
32.3285592843999
 30
0.0
 11
-388.579798396769
 21
32.3285592843999
 31
0.0
  0
LINE
  5
2AD
330
1F
100
AcDbEntity
  8
1
  6
CONTINUOUS
 62
     7
100
AcDbLine
 10
-369.179798396769
 20
82.3285592843999
 30
0.0
 11
-354.579798396769
 21
82.3285592843999
 31
0.0
  0
LINE
  5
2AE
330
1F
100
AcDbEntity
  8
1
  6
CONTINUOUS
 62
     7
100
AcDbLine
 10
-354.579798396769
 20
43.3285592843999
 30
0.0
 11
-369.179798396769
 21
43.3285592843999
 31
0.0
  0
LINE
  5
2AF
330
1F
100
AcDbEntity
  8
1
  6
CONTINUOUS
 62
     7
100
AcDbLine
 10
-354.579798396769
 20
82.3285592843999
 30
0.0
 11
-339.979798396769
 21
82.3285592843999
 31
0.0
  0
LINE
  5
2B0
330
1F
100
AcDbEntity
  8
1
  6
CONTINUOUS
 62
     7
100
AcDbLine
 10
-388.579798396769
 20
82.3285592843999
 30
0.0
 11
-373.979798396769
 21
82.3285592843999
 31
0.0
  0
LINE
  5
2B1
330
1F
100
AcDbEntity
  8
1
  6
CONTINUOUS
 62
     7
100
AcDbLine
 10
-403.579798396769
 20
56.3285592843999
 30
0.0
 11
-388.579798396769
 21
56.3285592843999
 31
0.0
  0
LINE
  5
2B2
330
1F
100
AcDbEntity
  8
1
  6
CONTINUOUS
 62
     7
100
AcDbLine
 10
-388.579798396769
 20
56.3285592843999
 30
0.0
 11
-373.979798396769
 21
56.3285592843999
 31
0.0
  0
LINE
  5
2B3
330
1F
100
AcDbEntity
  8
1
  6
CONTINUOUS
 62
     7
100
AcDbLine
 10
-369.179798396769
 20
43.3285592843999
 30
0.0
 11
-354.579798396769
 21
43.3285592843999
 31
0.0
  0
LINE
  5
2B4
330
1F
100
AcDbEntity
  8
1
  6
CONTINUOUS
 62
     7
100
AcDbLine
 10
-388.579798396769
 20
43.3285592843999
 30
0.0
 11
-373.979798396769
 21
43.3285592843999
 31
0.0
  0
LINE
  5
2B5
330
1F
100
AcDbEntity
  8
1
  6
CONTINUOUS
 62
     7
100
AcDbLine
 10
-373.979798396769
 20
87.3285592843999
 30
0.0
 11
-369.179798396769
 21
87.3285592843999
 31
0.0
  0
LINE
  5
2B6
330
1F
100
AcDbEntity
  8
1
  6
CONTINUOUS
 62
     7
100
AcDbLine
 10
-373.979798396769
 20
43.3285592843999
 30
0.0
 11
-373.979798396769
 21
87.3285592843999
 31
0.0
  0
LINE
  5
2B7
330
1F
100
AcDbEntity
  8
1
  6
CONTINUOUS
 62
     7
100
AcDbLine
 10
-369.179798396769
 20
43.3285592843999
 30
0.0
 11
-369.179798396769
 21
87.3285592843999
 31
0.0
  0
LINE
  5
2B8
330
1F
100
AcDbEntity
  8
1
  6
CONTINUOUS
 62
     7
100
AcDbLine
 10
-403.579798396769
 20
82.3285592843999
 30
0.0
 11
-388.579798396769
 21
82.3285592843999
 31
0.0
  0
LINE
  5
2B9
330
1F
100
AcDbEntity
  8
1
  6
CONTINUOUS
 62
     7
100
AcDbLine
 10
-403.579798396769
 20
43.3285592843999
 30
0.0
 11
-403.579798396769
 21
82.3285592843999
 31
0.0
  0
LINE
  5
2BA
330
1F
100
AcDbEntity
  8
1
  6
CONTINUOUS
 62
     7
100
AcDbLine
 10
-388.579798396769
 20
43.3285592843999
 30
0.0
 11
-403.579798396769
 21
43.3285592843999
 31
0.0
  0
LINE
  5
2BB
330
1F
100
AcDbEntity
  8
1
  6
CONTINUOUS
 62
     7
100
AcDbLine
 10
-403.579798396769
 20
87.3285592843999
 30
0.0
 11
-411.579798396769
 21
87.3285592843999
 31
0.0
  0
LINE
  5
2BC
330
1F
100
AcDbEntity
  8
1
  6
CONTINUOUS
 62
     7
100
AcDbLine
 10
-412.579798396769
 20
86.3285592843999
 30
0.0
 11
-412.579798396769
 21
52.3285592843999
 31
0.0
  0
LINE
  5
2BD
330
1F
100
AcDbEntity
  8
1
  6
CONTINUOUS
 62
     7
100
AcDbLine
 10
-419.579798396769
 20
33.3285592843999
 30
0.0
 11
-419.579798396769
 21
51.3285592843999
 31
0.0
  0
LINE
  5
2BE
330
1F
100
AcDbEntity
  8
1
  6
CONTINUOUS
 62
     7
100
AcDbLine
 10
-418.579798396769
 20
52.3285592843999
 30
0.0
 11
-412.579798396769
 21
52.3285592843999
 31
0.0
  0
LINE
  5
2BF
330
1F
100
AcDbEntity
  8
1
  6
CONTINUOUS
 62
     7
100
AcDbLine
 10
-67.9797983967693
 20
203.711538572177
 30
0.0
 11
-58.5797983967689
 21
203.711538572177
 31
0.0
  0
LINE
  5
2C0
330
1F
100
AcDbEntity
  8
1
  6
CONTINUOUS
 62
     7
100
AcDbLine
 10
-403.579798396769
 20
191.711538572177
 30
0.0
 11
-412.579798396769
 21
191.711538572177
 31
0.0
  0
LINE
  5
2C1
330
1F
100
AcDbEntity
  8
1
  6
CONTINUOUS
 62
     7
100
AcDbLine
 10
-388.579798396769
 20
238.711538572177
 30
0.0
 11
-388.579798396769
 21
228.811538572177
 31
0.0
  0
LINE
  5
2C2
330
1F
100
AcDbEntity
  8
1
  6
CONTINUOUS
 62
     7
100
AcDbLine
 10
-403.579798396769
 20
233.711538572177
 30
0.0
 11
-373.979798396769
 21
233.711538572177
 31
0.0
  0
LINE
  5
2C3
330
1F
100
AcDbEntity
  8
1
  6
CONTINUOUS
 62
     7
100
AcDbLine
 10
-388.579798396769
 20
166.611538572177
 30
0.0
 11
-388.579798396769
 21
156.711538572177
 31
0.0
  0
LINE
  5
2C4
330
1F
100
AcDbEntity
  8
1
  6
CONTINUOUS
 62
     7
100
AcDbLine
 10
-373.979798396769
 20
161.711538572177
 30
0.0
 11
-403.579798396769
 21
161.711538572177
 31
0.0
  0
LINE
  5
2C5
330
1F
100
AcDbEntity
  8
1
  6
CONTINUOUS
 62
     7
100
AcDbLine
 10
-354.579798396769
 20
238.711538572177
 30
0.0
 11
-354.579798396769
 21
228.811538572177
 31
0.0
  0
LINE
  5
2C6
330
1F
100
AcDbEntity
  8
1
  6
CONTINUOUS
 62
     7
100
AcDbLine
 10
-369.179798396769
 20
233.711538572177
 30
0.0
 11
-339.979798396769
 21
233.711538572177
 31
0.0
  0
LINE
  5
2C7
330
1F
100
AcDbEntity
  8
1
  6
CONTINUOUS
 62
     7
100
AcDbLine
 10
-369.179798396769
 20
202.711538572177
 30
0.0
 11
-339.979798396769
 21
202.711538572177
 31
0.0
  0
LINE
  5
2C8
330
1F
100
AcDbEntity
  8
1
  6
CONTINUOUS
 62
     7
100
AcDbLine
 10
-369.179798396769
 20
192.711538572177
 30
0.0
 11
-339.979798396769
 21
192.711538572177
 31
0.0
  0
LINE
  5
2C9
330
1F
100
AcDbEntity
  8
1
  6
CONTINUOUS
 62
     7
100
AcDbLine
 10
-354.579798396769
 20
166.611538572177
 30
0.0
 11
-354.579798396769
 21
156.711538572177
 31
0.0
  0
LINE
  5
2CA
330
1F
100
AcDbEntity
  8
1
  6
CONTINUOUS
 62
     7
100
AcDbLine
 10
-339.979798396769
 20
161.711538572177
 30
0.0
 11
-369.179798396769
 21
161.711538572177
 31
0.0
  0
LINE
  5
2CB
330
1F
100
AcDbEntity
  8
1
  6
CONTINUOUS
 62
     7
100
AcDbLine
 10
-388.579798396769
 20
156.711538572177
 30
0.0
 11
-373.979798396769
 21
156.711538572177
 31
0.0
  0
LINE
  5
2CC
330
1F
100
AcDbEntity
  8
1
  6
CONTINUOUS
 62
     7
100
AcDbLine
 10
-373.979798396769
 20
238.711538572177
 30
0.0
 11
-388.579798396769
 21
238.711538572177
 31
0.0
  0
LINE
  5
2CD
330
1F
100
AcDbEntity
  8
1
  6
CONTINUOUS
 62
     7
100
AcDbLine
 10
-369.179798396769
 20
156.711538572177
 30
0.0
 11
-339.979798396769
 21
156.711538572177
 31
0.0
  0
LINE
  5
2CE
330
1F
100
AcDbEntity
  8
1
  6
CONTINUOUS
 62
     7
100
AcDbLine
 10
-339.979798396769
 20
238.711538572177
 30
0.0
 11
-369.179798396769
 21
238.711538572177
 31
0.0
  0
LINE
  5
2CF
330
1F
100
AcDbEntity
  8
1
  6
CONTINUOUS
 62
     7
100
AcDbLine
 10
-373.979798396769
 20
239.461538572177
 30
0.0
 11
-373.979798396769
 21
155.961538572177
 31
0.0
  0
LINE
  5
2D0
330
1F
100
AcDbEntity
  8
1
  6
CONTINUOUS
 62
     7
100
AcDbLine
 10
-369.179798396769
 20
239.461538572177
 30
0.0
 11
-373.979798396769
 21
239.461538572177
 31
0.0
  0
LINE
  5
2D1
330
1F
100
AcDbEntity
  8
1
  6
CONTINUOUS
 62
     7
100
AcDbLine
 10
-369.179798396769
 20
155.961538572177
 30
0.0
 11
-369.179798396769
 21
239.461538572177
 31
0.0
  0
LINE
  5
2D2
330
1F
100
AcDbEntity
  8
1
  6
CONTINUOUS
 62
     7
100
AcDbLine
 10
-373.979798396769
 20
155.961538572177
 30
0.0
 11
-369.179798396769
 21
155.961538572177
 31
0.0
  0
LINE
  5
2D3
330
1F
100
AcDbEntity
  8
1
  6
CONTINUOUS
 62
     7
100
AcDbLine
 10
-339.979798396769
 20
239.461538572177
 30
0.0
 11
-339.979798396769
 21
155.961538572177
 31
0.0
  0
LINE
  5
2D4
330
1F
100
AcDbEntity
  8
1
  6
CONTINUOUS
 62
     7
100
AcDbLine
 10
-419.554798396769
 20
194.461538572177
 30
0.0
 11
-412.529798396769
 21
194.461538572177
 31
0.0
  0
LINE
  5
2D5
330
1F
100
AcDbEntity
  8
1
  6
CONTINUOUS
 62
     7
100
AcDbLine
 10
-419.554798396769
 20
200.961538572177
 30
0.0
 11
-412.529798396769
 21
200.961538572177
 31
0.0
  0
LINE
  5
2D6
330
1F
100
AcDbEntity
  8
1
  6
CONTINUOUS
 62
     7
100
AcDbLine
 10
-412.579798396769
 20
156.961538572177
 30
0.0
 11
-412.579798396769
 21
191.711538572177
 31
0.0
  0
LINE
  5
2D7
330
1F
100
AcDbEntity
  8
1
  6
CONTINUOUS
 62
     7
100
AcDbLine
 10
-403.579798396769
 20
238.711538572177
 30
0.0
 11
-388.579798396769
 21
238.711538572177
 31
0.0
  0
LINE
  5
2D8
330
1F
100
AcDbEntity
  8
1
  6
CONTINUOUS
 62
     7
100
AcDbLine
 10
-403.579798396769
 20
156.711538572177
 30
0.0
 11
-388.579798396769
 21
156.711538572177
 31
0.0
  0
LINE
  5
2D9
330
1F
100
AcDbEntity
  8
1
  6
CONTINUOUS
 62
     7
100
AcDbLine
 10
-403.579798396769
 20
239.461538572177
 30
0.0
 11
-403.579798396769
 21
203.711538572177
 31
0.0
  0
LINE
  5
2DA
330
1F
100
AcDbEntity
  8
1
  6
CONTINUOUS
 62
     7
100
AcDbLine
 10
-411.579798396769
 20
155.961538572177
 30
0.0
 11
-403.579798396769
 21
155.961538572177
 31
0.0
  0
LINE
  5
2DB
330
1F
100
AcDbEntity
  8
1
  6
CONTINUOUS
 62
     7
100
AcDbLine
 10
-411.579798396769
 20
239.461538572177
 30
0.0
 11
-403.579798396769
 21
239.461538572177
 31
0.0
  0
LINE
  5
2DC
330
1F
100
AcDbEntity
  8
1
  6
CONTINUOUS
 62
     7
100
AcDbLine
 10
-412.579798396769
 20
203.711538572177
 30
0.0
 11
-412.579798396769
 21
238.461538572177
 31
0.0
  0
LINE
  5
2DD
330
1F
100
AcDbEntity
  8
1
  6
CONTINUOUS
 62
     7
100
AcDbLine
 10
-419.579798396769
 20
237.711538572177
 30
0.0
 11
-419.579798396769
 21
157.711538572177
 31
0.0
  0
LINE
  5
2DE
330
1F
100
AcDbEntity
  8
1
  6
CONTINUOUS
 62
     7
100
AcDbLine
 10
-418.579798396769
 20
156.711538572177
 30
0.0
 11
-412.579798396769
 21
156.711538572177
 31
0.0
  0
LINE
  5
2DF
330
1F
100
AcDbEntity
  8
1
  6
CONTINUOUS
 62
     7
100
AcDbLine
 10
-418.579798396769
 20
238.711538572177
 30
0.0
 11
-412.579798396769
 21
238.711538572177
 31
0.0
  0
LINE
  5
2E0
330
1F
100
AcDbEntity
  8
1
  6
CONTINUOUS
 62
     7
100
AcDbLine
 10
-58.6297983967689
 20
194.461538572177
 30
0.0
 11
-51.5797983967689
 21
194.461538572177
 31
0.0
  0
LINE
  5
2E1
330
1F
100
AcDbEntity
  8
1
  6
CONTINUOUS
 62
     7
100
AcDbLine
 10
-58.6297983967689
 20
200.961538572177
 30
0.0
 11
-51.5797983967689
 21
200.961538572177
 31
0.0
  0
LINE
  5
2E2
330
1F
100
AcDbEntity
  8
1
  6
CONTINUOUS
 62
     7
100
AcDbLine
 10
-58.5797983967689
 20
191.711538572177
 30
0.0
 11
-58.5797983967689
 21
156.961538572177
 31
0.0
  0
LINE
  5
2E3
330
1F
100
AcDbEntity
  8
1
  6
CONTINUOUS
 62
     7
100
AcDbLine
 10
-67.9797983967693
 20
155.961538572177
 30
0.0
 11
-59.5797983967689
 21
155.961538572177
 31
0.0
  0
LINE
  5
2E4
330
1F
100
AcDbEntity
  8
1
  6
CONTINUOUS
 62
     7
100
AcDbLine
 10
-67.9797983967693
 20
239.461538572177
 30
0.0
 11
-59.5797983967689
 21
239.461538572177
 31
0.0
  0
LINE
  5
2E5
330
1F
100
AcDbEntity
  8
1
  6
CONTINUOUS
 62
     7
100
AcDbLine
 10
-58.5797983967689
 20
238.461538572177
 30
0.0
 11
-58.5797983967689
 21
203.711538572177
 31
0.0
  0
LINE
  5
2E6
330
1F
100
AcDbEntity
  8
1
  6
CONTINUOUS
 62
     7
100
AcDbLine
 10
-51.5797983967689
 20
157.711538572177
 30
0.0
 11
-51.5797983967689
 21
237.711538572177
 31
0.0
  0
LINE
  5
2E7
330
1F
100
AcDbEntity
  8
1
  6
CONTINUOUS
 62
     7
100
AcDbLine
 10
-58.5797983967689
 20
156.711538572177
 30
0.0
 11
-52.5797983967689
 21
156.711538572177
 31
0.0
  0
LINE
  5
2E8
330
1F
100
AcDbEntity
  8
1
  6
CONTINUOUS
 62
     7
100
AcDbLine
 10
-58.5797983967689
 20
238.711538572177
 30
0.0
 11
-52.5797983967689
 21
238.711538572177
 31
0.0
  0
LINE
  5
2E9
330
1F
100
AcDbEntity
  8
1
  6
CONTINUOUS
 62
     7
100
AcDbLine
 10
-413.079798396769
 20
202.961538572177
 30
0.0
 11
-413.079798396769
 21
192.461538572177
 31
0.0
  0
LINE
  5
2EA
330
1F
100
AcDbEntity
  8
1
  6
CONTINUOUS
 62
     7
100
AcDbLine
 10
-58.0797983967688
 20
192.461538572177
 30
0.0
 11
-58.0797983967688
 21
202.961538572177
 31
0.0
  0
LINE
  5
2EB
330
1F
100
AcDbEntity
  8
1
  6
CONTINUOUS
 62
     7
100
AcDbLine
 10
-403.579798396769
 20
83.0285592843999
 30
0.0
 11
-373.979798396769
 21
83.0285592843999
 31
0.0
  0
LINE
  5
2EC
330
1F
100
AcDbEntity
  8
1
  6
CONTINUOUS
 62
     7
100
AcDbLine
 10
-369.179798396769
 20
83.0285592843999
 30
0.0
 11
-339.979798396769
 21
83.0285592843999
 31
0.0
  0
ARC
  5
2ED
330
1F
100
AcDbEntity
  8
1
  6
CONTINUOUS
 62
     7
100
AcDbCircle
 10
-69.57979839676941
 20
227.711538572177
 30
0.0
 40
1.0
100
AcDbArc
 50
0.0
 51
90.0
  0
ARC
  5
2EE
330
1F
100
AcDbEntity
  8
1
  6
CONTINUOUS
 62
     7
100
AcDbCircle
 10
-95.57979839676941
 20
227.711538572177
 30
0.0
 40
1.0
100
AcDbArc
 50
90.0
 51
180.0
  0
ARC
  5
2EF
330
1F
100
AcDbEntity
  8
1
  6
CONTINUOUS
 62
     7
100
AcDbCircle
 10
-95.57979839676941
 20
167.711538572177
 30
0.0
 40
1.0
100
AcDbArc
 50
180.0
 51
-90.0
  0
ARC
  5
2F0
330
1F
100
AcDbEntity
  8
1
  6
CONTINUOUS
 62
     7
100
AcDbCircle
 10
-69.57979839676941
 20
167.711538572177
 30
0.0
 40
1.0
100
AcDbArc
 50
-90.0
 51
0.0
  0
ARC
  5
2F1
330
1F
100
AcDbEntity
  8
1
  6
CONTINUOUS
 62
     7
100
AcDbCircle
 10
-103.579798396769
 20
167.711538572177
 30
0.0
 40
1.0
100
AcDbArc
 50
-90.0
 51
0.0
  0
ARC
  5
2F2
330
1F
100
AcDbEntity
  8
1
  6
CONTINUOUS
 62
     7
100
AcDbCircle
 10
-129.579798396769
 20
167.711538572177
 30
0.0
 40
1.0
100
AcDbArc
 50
180.0
 51
-90.0
  0
ARC
  5
2F3
330
1F
100
AcDbEntity
  8
1
  6
CONTINUOUS
 62
     7
100
AcDbCircle
 10
-129.579798396769
 20
227.711538572177
 30
0.0
 40
1.0
100
AcDbArc
 50
90.0
 51
180.0
  0
ARC
  5
2F4
330
1F
100
AcDbEntity
  8
1
  6
CONTINUOUS
 62
     7
100
AcDbCircle
 10
-103.579798396769
 20
227.711538572177
 30
0.0
 40
1.0
100
AcDbArc
 50
0.0
 51
90.0
  0
ARC
  5
2F5
330
1F
100
AcDbEntity
  8
1
  6
CONTINUOUS
 62
     7
100
AcDbCircle
 10
-137.579798396769
 20
227.711538572177
 30
0.0
 40
1.0
100
AcDbArc
 50
0.0
 51
90.0
  0
ARC
  5
2F6
330
1F
100
AcDbEntity
  8
1
  6
CONTINUOUS
 62
     7
100
AcDbCircle
 10
-163.579798396769
 20
227.711538572177
 30
0.0
 40
1.0
100
AcDbArc
 50
90.0
 51
180.0
  0
ARC
  5
2F7
330
1F
100
AcDbEntity
  8
1
  6
CONTINUOUS
 62
     7
100
AcDbCircle
 10
-163.579798396769
 20
167.711538572177
 30
0.0
 40
1.0
100
AcDbArc
 50
180.0
 51
-90.0
  0
ARC
  5
2F8
330
1F
100
AcDbEntity
  8
1
  6
CONTINUOUS
 62
     7
100
AcDbCircle
 10
-137.579798396769
 20
167.711538572177
 30
0.0
 40
1.0
100
AcDbArc
 50
-90.0
 51
0.0
  0
ARC
  5
2F9
330
1F
100
AcDbEntity
  8
1
  6
CONTINUOUS
 62
     7
100
AcDbCircle
 10
-171.579798396769
 20
167.711538572177
 30
0.0
 40
1.0
100
AcDbArc
 50
-90.0
 51
0.0
  0
ARC
  5
2FA
330
1F
100
AcDbEntity
  8
1
  6
CONTINUOUS
 62
     7
100
AcDbCircle
 10
-197.579798396769
 20
167.711538572177
 30
0.0
 40
1.0
100
AcDbArc
 50
180.0
 51
-90.0
  0
ARC
  5
2FB
330
1F
100
AcDbEntity
  8
1
  6
CONTINUOUS
 62
     7
100
AcDbCircle
 10
-197.579798396769
 20
227.711538572177
 30
0.0
 40
1.0
100
AcDbArc
 50
90.0
 51
180.0
  0
ARC
  5
2FC
330
1F
100
AcDbEntity
  8
1
  6
CONTINUOUS
 62
     7
100
AcDbCircle
 10
-171.579798396769
 20
227.711538572177
 30
0.0
 40
1.0
100
AcDbArc
 50
0.0
 51
90.0
  0
ARC
  5
2FD
330
1F
100
AcDbEntity
  8
1
  6
CONTINUOUS
 62
     7
100
AcDbCircle
 10
-205.579798396769
 20
227.711538572177
 30
0.0
 40
1.0
100
AcDbArc
 50
0.0
 51
90.0
  0
ARC
  5
2FE
330
1F
100
AcDbEntity
  8
1
  6
CONTINUOUS
 62
     7
100
AcDbCircle
 10
-231.579798396769
 20
227.711538572177
 30
0.0
 40
1.0
100
AcDbArc
 50
90.0
 51
180.0
  0
ARC
  5
2FF
330
1F
100
AcDbEntity
  8
1
  6
CONTINUOUS
 62
     7
100
AcDbCircle
 10
-231.579798396769
 20
167.711538572177
 30
0.0
 40
1.0
100
AcDbArc
 50
180.0
 51
-90.0
  0
ARC
  5
300
330
1F
100
AcDbEntity
  8
1
  6
CONTINUOUS
 62
     7
100
AcDbCircle
 10
-205.579798396769
 20
167.711538572177
 30
0.0
 40
1.0
100
AcDbArc
 50
-90.0
 51
0.0
  0
ARC
  5
301
330
1F
100
AcDbEntity
  8
1
  6
CONTINUOUS
 62
     7
100
AcDbCircle
 10
-239.579798396769
 20
167.711538572177
 30
0.0
 40
1.0
100
AcDbArc
 50
-90.0
 51
0.0
  0
ARC
  5
302
330
1F
100
AcDbEntity
  8
1
  6
CONTINUOUS
 62
     7
100
AcDbCircle
 10
-265.579798396769
 20
167.711538572177
 30
0.0
 40
1.0
100
AcDbArc
 50
180.0
 51
-90.0
  0
ARC
  5
303
330
1F
100
AcDbEntity
  8
1
  6
CONTINUOUS
 62
     7
100
AcDbCircle
 10
-265.579798396769
 20
227.711538572177
 30
0.0
 40
1.0
100
AcDbArc
 50
90.0
 51
180.0
  0
ARC
  5
304
330
1F
100
AcDbEntity
  8
1
  6
CONTINUOUS
 62
     7
100
AcDbCircle
 10
-239.579798396769
 20
227.711538572177
 30
0.0
 40
1.0
100
AcDbArc
 50
0.0
 51
90.0
  0
ARC
  5
305
330
1F
100
AcDbEntity
  8
1
  6
CONTINUOUS
 62
     7
100
AcDbCircle
 10
-273.579798396769
 20
227.711538572177
 30
0.0
 40
1.0
100
AcDbArc
 50
0.0
 51
90.0
  0
ARC
  5
306
330
1F
100
AcDbEntity
  8
1
  6
CONTINUOUS
 62
     7
100
AcDbCircle
 10
-299.579798396769
 20
227.711538572177
 30
0.0
 40
1.0
100
AcDbArc
 50
90.0
 51
180.0
  0
ARC
  5
307
330
1F
100
AcDbEntity
  8
1
  6
CONTINUOUS
 62
     7
100
AcDbCircle
 10
-299.579798396769
 20
167.711538572177
 30
0.0
 40
1.0
100
AcDbArc
 50
180.0
 51
-90.0
  0
ARC
  5
308
330
1F
100
AcDbEntity
  8
1
  6
CONTINUOUS
 62
     7
100
AcDbCircle
 10
-273.579798396769
 20
167.711538572177
 30
0.0
 40
1.0
100
AcDbArc
 50
-90.0
 51
0.0
  0
ARC
  5
309
330
1F
100
AcDbEntity
  8
1
  6
CONTINUOUS
 62
     7
100
AcDbCircle
 10
-307.579798396769
 20
167.711538572177
 30
0.0
 40
1.0
100
AcDbArc
 50
-90.0
 51
0.0
  0
ARC
  5
30A
330
1F
100
AcDbEntity
  8
1
  6
CONTINUOUS
 62
     7
100
AcDbCircle
 10
-333.579798396769
 20
167.711538572177
 30
0.0
 40
1.0
100
AcDbArc
 50
180.0
 51
-90.0
  0
ARC
  5
30B
330
1F
100
AcDbEntity
  8
1
  6
CONTINUOUS
 62
     7
100
AcDbCircle
 10
-333.579798396769
 20
227.711538572177
 30
0.0
 40
1.0
100
AcDbArc
 50
90.0
 51
180.0
  0
ARC
  5
30C
330
1F
100
AcDbEntity
  8
1
  6
CONTINUOUS
 62
     7
100
AcDbCircle
 10
-307.579798396769
 20
227.711538572177
 30
0.0
 40
1.0
100
AcDbArc
 50
0.0
 51
90.0
  0
ARC
  5
30D
330
1F
100
AcDbEntity
  8
1
  6
CONTINUOUS
 62
     7
100
AcDbCircle
 10
-52.5797983967689
 20
33.3285592843999
 30
0.0
 40
1.0
100
AcDbArc
 50
-90.0
 51
0.0
  0
ARC
  5
30E
330
1F
100
AcDbEntity
  8
1
  6
CONTINUOUS
 62
     7
100
AcDbCircle
 10
-52.5797983967689
 20
51.3285592843999
 30
0.0
 40
1.0
100
AcDbArc
 50
0.0
 51
90.0
  0
ARC
  5
30F
330
1F
100
AcDbEntity
  8
1
  6
CONTINUOUS
 62
     7
100
AcDbCircle
 10
-59.5797983967689
 20
86.3285592843999
 30
0.0
 40
1.0
100
AcDbArc
 50
0.0
 51
90.0
  0
ARC
  5
310
330
1F
100
AcDbEntity
  8
1
  6
CONTINUOUS
 62
     7
100
AcDbCircle
 10
-401.579798396769
 20
167.711538572177
 30
0.0
 40
1.0
100
AcDbArc
 50
180.0
 51
-90.0
  0
ARC
  5
311
330
1F
100
AcDbEntity
  8
1
  6
CONTINUOUS
 62
     7
100
AcDbCircle
 10
-401.579798396769
 20
227.711538572177
 30
0.0
 40
1.0
100
AcDbArc
 50
90.0
 51
180.0
  0
ARC
  5
312
330
1F
100
AcDbEntity
  8
1
  6
CONTINUOUS
 62
     7
100
AcDbCircle
 10
-375.579798396769
 20
227.711538572177
 30
0.0
 40
1.0
100
AcDbArc
 50
0.0
 51
90.0
  0
ARC
  5
313
330
1F
100
AcDbEntity
  8
1
  6
CONTINUOUS
 62
     7
100
AcDbCircle
 10
-375.579798396769
 20
167.711538572177
 30
0.0
 40
1.0
100
AcDbArc
 50
-90.0
 51
0.0
  0
ARC
  5
314
330
1F
100
AcDbEntity
  8
1
  6
CONTINUOUS
 62
     7
100
AcDbCircle
 10
-341.579798396769
 20
227.711538572177
 30
0.0
 40
1.0
100
AcDbArc
 50
0.0
 51
90.0
  0
ARC
  5
315
330
1F
100
AcDbEntity
  8
1
  6
CONTINUOUS
 62
     7
100
AcDbCircle
 10
-367.579798396769
 20
227.711538572177
 30
0.0
 40
1.0
100
AcDbArc
 50
90.0
 51
180.0
  0
ARC
  5
316
330
1F
100
AcDbEntity
  8
1
  6
CONTINUOUS
 62
     7
100
AcDbCircle
 10
-367.579798396769
 20
167.711538572177
 30
0.0
 40
1.0
100
AcDbArc
 50
180.0
 51
-90.0
  0
ARC
  5
317
330
1F
100
AcDbEntity
  8
1
  6
CONTINUOUS
 62
     7
100
AcDbCircle
 10
-341.579798396769
 20
167.711538572177
 30
0.0
 40
1.0
100
AcDbArc
 50
-90.0
 51
0.0
  0
ARC
  5
318
330
1F
100
AcDbEntity
  8
1
  6
CONTINUOUS
 62
     7
100
AcDbCircle
 10
-411.579798396769
 20
86.3285592843999
 30
0.0
 40
1.0
100
AcDbArc
 50
90.0
 51
180.0
  0
ARC
  5
319
330
1F
100
AcDbEntity
  8
1
  6
CONTINUOUS
 62
     7
100
AcDbCircle
 10
-418.579798396769
 20
51.3285592843999
 30
0.0
 40
1.0
100
AcDbArc
 50
90.0
 51
180.0
  0
ARC
  5
31A
330
1F
100
AcDbEntity
  8
1
  6
CONTINUOUS
 62
     7
100
AcDbCircle
 10
-418.579798396769
 20
33.3285592843999
 30
0.0
 40
1.0
100
AcDbArc
 50
180.0
 51
-90.0
  0
ARC
  5
31B
330
1F
100
AcDbEntity
  8
1
  6
CONTINUOUS
 62
     7
100
AcDbCircle
 10
-411.579798396769
 20
156.961538572177
 30
0.0
 40
1.0
100
AcDbArc
 50
180.0
 51
-90.0
  0
ARC
  5
31C
330
1F
100
AcDbEntity
  8
1
  6
CONTINUOUS
 62
     7
100
AcDbCircle
 10
-411.579798396769
 20
238.461538572177
 30
0.0
 40
1.0
100
AcDbArc
 50
90.0
 51
180.0
  0
ARC
  5
31D
330
1F
100
AcDbEntity
  8
1
  6
CONTINUOUS
 62
     7
100
AcDbCircle
 10
-418.579798396769
 20
237.711538572177
 30
0.0
 40
1.0
100
AcDbArc
 50
90.0
 51
180.0
  0
ARC
  5
31E
330
1F
100
AcDbEntity
  8
1
  6
CONTINUOUS
 62
     7
100
AcDbCircle
 10
-418.579798396769
 20
157.711538572177
 30
0.0
 40
1.0
100
AcDbArc
 50
180.0
 51
-90.0
  0
ARC
  5
31F
330
1F
100
AcDbEntity
  8
1
  6
CONTINUOUS
 62
     7
100
AcDbCircle
 10
-59.5797983967689
 20
156.961538572177
 30
0.0
 40
1.0
100
AcDbArc
 50
-90.0
 51
0.0
  0
ARC
  5
320
330
1F
100
AcDbEntity
  8
1
  6
CONTINUOUS
 62
     7
100
AcDbCircle
 10
-59.5797983967689
 20
238.461538572177
 30
0.0
 40
1.0
100
AcDbArc
 50
0.0
 51
90.0
  0
ARC
  5
321
330
1F
100
AcDbEntity
  8
1
  6
CONTINUOUS
 62
     7
100
AcDbCircle
 10
-52.5797983967689
 20
237.711538572177
 30
0.0
 40
1.0
100
AcDbArc
 50
0.0
 51
90.0
  0
ARC
  5
322
330
1F
100
AcDbEntity
  8
1
  6
CONTINUOUS
 62
     7
100
AcDbCircle
 10
-52.5797983967689
 20
157.711538572177
 30
0.0
 40
1.0
100
AcDbArc
 50
-90.0
 51
0.0
  0
ARC
  5
323
330
1F
100
AcDbEntity
  8
1
  6
CONTINUOUS
 62
     7
100
AcDbCircle
 10
-82.579798396768
 20
52.7187517665612
 30
0.0
 40
17.20980751783693
100
AcDbArc
 50
73.43183529782151
 51
106.5681647021782
  0
ARC
  5
324
330
1F
100
AcDbEntity
  8
1
  6
CONTINUOUS
 62
     7
100
AcDbCircle
 10
-75.2185824646002
 20
65.3581582125078
 30
0.0
 40
4.570401071892292
100
AcDbArc
 50
90.0
 51
122.4712267506709
  0
ARC
  5
325
330
1F
100
AcDbEntity
  8
1
  6
CONTINUOUS
 62
     7
100
AcDbCircle
 10
-89.94101432893569
 20
65.3581582125078
 30
0.0
 40
4.570401071890302
100
AcDbArc
 50
90.0
 51
122.4712267506709
  0
ARC
  5
326
330
1F
100
AcDbEntity
  8
1
  6
CONTINUOUS
 62
     7
100
AcDbCircle
 10
-82.579798396768
 20
80.1383668022371
 30
0.0
 40
17.2098075178369
100
AcDbArc
 50
-106.5681647021782
 51
-73.43183529782151
  0
ARC
  5
327
330
1F
100
AcDbEntity
  8
1
  6
CONTINUOUS
 62
     7
100
AcDbCircle
 10
-75.2185824646002
 20
67.4989603562905
 30
0.0
 40
4.570401071890304
100
AcDbArc
 50
-122.4712267506709
 51
-57.52877324932913
  0
ARC
  5
328
330
1F
100
AcDbEntity
  8
1
  6
CONTINUOUS
 62
     7
100
AcDbCircle
 10
-89.94101432893569
 20
67.4989603562904
 30
0.0
 40
4.57040107189022
100
AcDbArc
 50
-122.4712267506716
 51
-57.52877324932861
  0
ARC
  5
329
330
1F
100
AcDbEntity
  8
1
  6
CONTINUOUS
 62
     7
100
AcDbCircle
 10
-75.2185824646002
 20
65.3581582125078
 30
0.0
 40
4.570401071890304
100
AcDbArc
 50
57.52877324932913
 51
90.0
  0
ARC
  5
32A
330
1F
100
AcDbEntity
  8
1
  6
CONTINUOUS
 62
     7
100
AcDbCircle
 10
-89.94101432893569
 20
65.3581582125078
 30
0.0
 40
4.570401071890297
100
AcDbArc
 50
57.52877324932927
 51
90.0
  0
ARC
  5
32B
330
1F
100
AcDbEntity
  8
1
  6
CONTINUOUS
 62
     7
100
AcDbCircle
 10
-123.941014328936
 20
65.3581582125078
 30
0.0
 40
4.570401071890357
100
AcDbArc
 50
57.52877324932808
 51
90.0
  0
ARC
  5
32C
330
1F
100
AcDbEntity
  8
1
  6
CONTINUOUS
 62
     7
100
AcDbCircle
 10
-109.2185824646
 20
65.3581582125078
 30
0.0
 40
4.570401071889823
100
AcDbArc
 50
57.5287732493386
 51
90.0
  0
ARC
  5
32D
330
1F
100
AcDbEntity
  8
1
  6
CONTINUOUS
 62
     7
100
AcDbCircle
 10
-123.941014328936
 20
67.4989603562904
 30
0.0
 40
4.570401071890266
100
AcDbArc
 50
-122.4712267506725
 51
-57.5287732493274
  0
ARC
  5
32E
330
1F
100
AcDbEntity
  8
1
  6
CONTINUOUS
 62
     7
100
AcDbCircle
 10
-109.2185824646
 20
67.4989603562905
 30
0.0
 40
4.570401071890357
100
AcDbArc
 50
-122.4712267506719
 51
-57.5287732493386
  0
ARC
  5
32F
330
1F
100
AcDbEntity
  8
1
  6
CONTINUOUS
 62
     7
100
AcDbCircle
 10
-116.579798396768
 20
80.1383668022371
 30
0.0
 40
17.20980751783696
100
AcDbArc
 50
-106.5681647021789
 51
-73.4318352978212
  0
ARC
  5
330
330
1F
100
AcDbEntity
  8
1
  6
CONTINUOUS
 62
     7
100
AcDbCircle
 10
-123.941014328936
 20
65.3581582125078
 30
0.0
 40
4.570401071890302
100
AcDbArc
 50
90.0
 51
122.4712267506718
  0
ARC
  5
331
330
1F
100
AcDbEntity
  8
1
  6
CONTINUOUS
 62
     7
100
AcDbCircle
 10
-109.2185824646
 20
65.3581582125078
 30
0.0
 40
4.570401071892292
100
AcDbArc
 50
90.0
 51
122.4712267506719
  0
ARC
  5
332
330
1F
100
AcDbEntity
  8
1
  6
CONTINUOUS
 62
     7
100
AcDbCircle
 10
-116.579798396768
 20
52.7187517665612
 30
0.0
 40
17.20980751783696
100
AcDbArc
 50
73.4318352978212
 51
106.5681647021789
  0
ARC
  5
333
330
1F
100
AcDbEntity
  8
1
  6
CONTINUOUS
 62
     7
100
AcDbCircle
 10
-150.579798396768
 20
52.7187517665612
 30
0.0
 40
17.20980751783696
100
AcDbArc
 50
73.43183529782114
 51
106.5681647021788
  0
ARC
  5
334
330
1F
100
AcDbEntity
  8
1
  6
CONTINUOUS
 62
     7
100
AcDbCircle
 10
-143.218582464601
 20
65.3581582125078
 30
0.0
 40
4.570401071892292
100
AcDbArc
 50
90.0
 51
122.4712267506613
  0
ARC
  5
335
330
1F
100
AcDbEntity
  8
1
  6
CONTINUOUS
 62
     7
100
AcDbCircle
 10
-157.941014328936
 20
65.3581582125078
 30
0.0
 40
4.570401071890302
100
AcDbArc
 50
90.0
 51
122.4712267506718
  0
ARC
  5
336
330
1F
100
AcDbEntity
  8
1
  6
CONTINUOUS
 62
     7
100
AcDbCircle
 10
-150.579798396768
 20
80.1383668022371
 30
0.0
 40
17.20980751783695
100
AcDbArc
 50
-106.5681647021788
 51
-73.43183529782114
  0
ARC
  5
337
330
1F
100
AcDbEntity
  8
1
  6
CONTINUOUS
 62
     7
100
AcDbCircle
 10
-143.218582464601
 20
67.4989603562905
 30
0.0
 40
4.570401071889815
100
AcDbArc
 50
-122.4712267506613
 51
-57.52877324932792
  0
ARC
  5
338
330
1F
100
AcDbEntity
  8
1
  6
CONTINUOUS
 62
     7
100
AcDbCircle
 10
-157.941014328936
 20
67.4989603562904
 30
0.0
 40
4.570401071890266
100
AcDbArc
 50
-122.4712267506725
 51
-57.52877324932725
  0
ARC
  5
339
330
1F
100
AcDbEntity
  8
1
  6
CONTINUOUS
 62
     7
100
AcDbCircle
 10
-143.218582464601
 20
65.3581582125078
 30
0.0
 40
4.570401071890365
100
AcDbArc
 50
57.52877324932792
 51
90.0
  0
ARC
  5
33A
330
1F
100
AcDbEntity
  8
1
  6
CONTINUOUS
 62
     7
100
AcDbCircle
 10
-157.941014328936
 20
65.3581582125078
 30
0.0
 40
4.570401071890365
100
AcDbArc
 50
57.52877324932792
 51
90.0
  0
ARC
  5
33B
330
1F
100
AcDbEntity
  8
1
  6
CONTINUOUS
 62
     7
100
AcDbCircle
 10
-191.941014328936
 20
65.3581582125078
 30
0.0
 40
4.570401071890365
100
AcDbArc
 50
57.52877324932792
 51
90.0
  0
ARC
  5
33C
330
1F
100
AcDbEntity
  8
1
  6
CONTINUOUS
 62
     7
100
AcDbCircle
 10
-177.218582464601
 20
65.3581582125078
 30
0.0
 40
4.570401071890365
100
AcDbArc
 50
57.52877324932792
 51
90.0
  0
ARC
  5
33D
330
1F
100
AcDbEntity
  8
1
  6
CONTINUOUS
 62
     7
100
AcDbCircle
 10
-191.941014328936
 20
67.4989603562904
 30
0.0
 40
4.570401071890266
100
AcDbArc
 50
-122.4712267506725
 51
-57.52877324932725
  0
ARC
  5
33E
330
1F
100
AcDbEntity
  8
1
  6
CONTINUOUS
 62
     7
100
AcDbCircle
 10
-177.218582464601
 20
67.4989603562905
 30
0.0
 40
4.57040107189035
100
AcDbArc
 50
-122.4712267506718
 51
-57.52877324932792
  0
ARC
  5
33F
330
1F
100
AcDbEntity
  8
1
  6
CONTINUOUS
 62
     7
100
AcDbCircle
 10
-184.579798396769
 20
80.1383668022371
 30
0.0
 40
17.20980751783667
100
AcDbArc
 50
-106.5681647021756
 51
-73.43183529782114
  0
ARC
  5
340
330
1F
100
AcDbEntity
  8
1
  6
CONTINUOUS
 62
     7
100
AcDbCircle
 10
-191.941014328936
 20
65.3581582125078
 30
0.0
 40
4.570401071890302
100
AcDbArc
 50
90.0
 51
122.4712267506718
  0
ARC
  5
341
330
1F
100
AcDbEntity
  8
1
  6
CONTINUOUS
 62
     7
100
AcDbCircle
 10
-177.218582464601
 20
65.3581582125078
 30
0.0
 40
4.570401071892292
100
AcDbArc
 50
90.0
 51
122.4712267506718
  0
ARC
  5
342
330
1F
100
AcDbEntity
  8
1
  6
CONTINUOUS
 62
     7
100
AcDbCircle
 10
-184.579798396769
 20
52.7187517665612
 30
0.0
 40
17.20980751783696
100
AcDbArc
 50
73.43183529782114
 51
106.5681647021756
  0
ARC
  5
343
330
1F
100
AcDbEntity
  8
1
  6
CONTINUOUS
 62
     7
100
AcDbCircle
 10
-218.579798396769
 20
52.7187517665612
 30
0.0
 40
17.20980751783696
100
AcDbArc
 50
73.43183529782114
 51
106.5681647021756
  0
ARC
  5
344
330
1F
100
AcDbEntity
  8
1
  6
CONTINUOUS
 62
     7
100
AcDbCircle
 10
-211.218582464601
 20
65.3581582125078
 30
0.0
 40
4.570401071892292
100
AcDbArc
 50
90.0
 51
122.4712267506718
  0
ARC
  5
345
330
1F
100
AcDbEntity
  8
1
  6
CONTINUOUS
 62
     7
100
AcDbCircle
 10
-225.941014328936
 20
65.3581582125078
 30
0.0
 40
4.570401071890302
100
AcDbArc
 50
90.0
 51
122.4712267506718
  0
ARC
  5
346
330
1F
100
AcDbEntity
  8
1
  6
CONTINUOUS
 62
     7
100
AcDbCircle
 10
-218.579798396769
 20
80.1383668022371
 30
0.0
 40
17.20980751783667
100
AcDbArc
 50
-106.5681647021756
 51
-73.43183529782114
  0
ARC
  5
347
330
1F
100
AcDbEntity
  8
1
  6
CONTINUOUS
 62
     7
100
AcDbCircle
 10
-211.218582464601
 20
67.4989603562905
 30
0.0
 40
4.57040107189035
100
AcDbArc
 50
-122.4712267506718
 51
-57.52877324932792
  0
ARC
  5
348
330
1F
100
AcDbEntity
  8
1
  6
CONTINUOUS
 62
     7
100
AcDbCircle
 10
-225.941014328936
 20
67.4989603562904
 30
0.0
 40
4.570401071890266
100
AcDbArc
 50
-122.4712267506725
 51
-57.52877324932725
  0
ARC
  5
349
330
1F
100
AcDbEntity
  8
1
  6
CONTINUOUS
 62
     7
100
AcDbCircle
 10
-211.218582464601
 20
65.3581582125078
 30
0.0
 40
4.570401071890365
100
AcDbArc
 50
57.52877324932792
 51
90.0
  0
ARC
  5
34A
330
1F
100
AcDbEntity
  8
1
  6
CONTINUOUS
 62
     7
100
AcDbCircle
 10
-225.941014328936
 20
65.3581582125078
 30
0.0
 40
4.570401071890365
100
AcDbArc
 50
57.52877324932792
 51
90.0
  0
ARC
  5
34B
330
1F
100
AcDbEntity
  8
1
  6
CONTINUOUS
 62
     7
100
AcDbCircle
 10
-259.941014328937
 20
65.3581582125078
 30
0.0
 40
4.57040107189035
100
AcDbArc
 50
57.52877324932823
 51
90.0
  0
ARC
  5
34C
330
1F
100
AcDbEntity
  8
1
  6
CONTINUOUS
 62
     7
100
AcDbCircle
 10
-245.218582464601
 20
65.3581582125078
 30
0.0
 40
4.570401071890365
100
AcDbArc
 50
57.52877324932792
 51
90.0
  0
ARC
  5
34D
330
1F
100
AcDbEntity
  8
1
  6
CONTINUOUS
 62
     7
100
AcDbCircle
 10
-259.941014328937
 20
67.4989603562904
 30
0.0
 40
4.570401071889747
100
AcDbArc
 50
-122.4712267506622
 51
-57.52877324932756
  0
ARC
  5
34E
330
1F
100
AcDbEntity
  8
1
  6
CONTINUOUS
 62
     7
100
AcDbCircle
 10
-245.218582464601
 20
67.4989603562905
 30
0.0
 40
4.57040107189035
100
AcDbArc
 50
-122.4712267506718
 51
-57.52877324932792
  0
ARC
  5
34F
330
1F
100
AcDbEntity
  8
1
  6
CONTINUOUS
 62
     7
100
AcDbCircle
 10
-252.579798396769
 20
80.1383668022371
 30
0.0
 40
17.20980751783696
100
AcDbArc
 50
-106.5681647021789
 51
-73.43183529782114
  0
ARC
  5
350
330
1F
100
AcDbEntity
  8
1
  6
CONTINUOUS
 62
     7
100
AcDbCircle
 10
-259.941014328937
 20
65.3581582125078
 30
0.0
 40
4.570401071890302
100
AcDbArc
 50
90.0
 51
122.4712267506616
  0
ARC
  5
351
330
1F
100
AcDbEntity
  8
1
  6
CONTINUOUS
 62
     7
100
AcDbCircle
 10
-245.218582464601
 20
65.3581582125078
 30
0.0
 40
4.570401071892292
100
AcDbArc
 50
90.0
 51
122.4712267506718
  0
ARC
  5
352
330
1F
100
AcDbEntity
  8
1
  6
CONTINUOUS
 62
     7
100
AcDbCircle
 10
-252.579798396769
 20
52.7187517665612
 30
0.0
 40
17.20980751783696
100
AcDbArc
 50
73.43183529782114
 51
106.5681647021789
  0
ARC
  5
353
330
1F
100
AcDbEntity
  8
1
  6
CONTINUOUS
 62
     7
100
AcDbCircle
 10
-286.579798396769
 20
52.7187517665612
 30
0.0
 40
17.20980751783695
100
AcDbArc
 50
73.43183529782122
 51
106.568164702179
  0
ARC
  5
354
330
1F
100
AcDbEntity
  8
1
  6
CONTINUOUS
 62
     7
100
AcDbCircle
 10
-279.218582464601
 20
65.3581582125078
 30
0.0
 40
4.570401071892292
100
AcDbArc
 50
90.0
 51
122.4712267506718
  0
ARC
  5
355
330
1F
100
AcDbEntity
  8
1
  6
CONTINUOUS
 62
     7
100
AcDbCircle
 10
-293.941014328937
 20
65.3581582125078
 30
0.0
 40
4.570401071890302
100
AcDbArc
 50
90.0
 51
122.4712267506718
  0
ARC
  5
356
330
1F
100
AcDbEntity
  8
1
  6
CONTINUOUS
 62
     7
100
AcDbCircle
 10
-286.579798396769
 20
80.1383668022371
 30
0.0
 40
17.20980751783697
100
AcDbArc
 50
-106.568164702179
 51
-73.43183529782122
  0
ARC
  5
357
330
1F
100
AcDbEntity
  8
1
  6
CONTINUOUS
 62
     7
100
AcDbCircle
 10
-279.218582464601
 20
67.4989603562905
 30
0.0
 40
4.57040107189035
100
AcDbArc
 50
-122.4712267506718
 51
-57.52877324932823
  0
ARC
  5
358
330
1F
100
AcDbEntity
  8
1
  6
CONTINUOUS
 62
     7
100
AcDbCircle
 10
-293.941014328937
 20
67.4989603562904
 30
0.0
 40
4.570401071890266
100
AcDbArc
 50
-122.4712267506725
 51
-57.52877324932756
  0
ARC
  5
359
330
1F
100
AcDbEntity
  8
1
  6
CONTINUOUS
 62
     7
100
AcDbCircle
 10
-279.218582464601
 20
65.3581582125078
 30
0.0
 40
4.57040107189035
100
AcDbArc
 50
57.52877324932823
 51
90.0
  0
ARC
  5
35A
330
1F
100
AcDbEntity
  8
1
  6
CONTINUOUS
 62
     7
100
AcDbCircle
 10
-293.941014328937
 20
65.3581582125078
 30
0.0
 40
4.57040107189035
100
AcDbArc
 50
57.52877324932823
 51
90.0
  0
ARC
  5
35B
330
1F
100
AcDbEntity
  8
1
  6
CONTINUOUS
 62
     7
100
AcDbCircle
 10
-327.941014328937
 20
65.3581582125078
 30
0.0
 40
4.57040107189035
100
AcDbArc
 50
57.52877324932823
 51
90.0
  0
ARC
  5
35C
330
1F
100
AcDbEntity
  8
1
  6
CONTINUOUS
 62
     7
100
AcDbCircle
 10
-313.218582464601
 20
65.3581582125078
 30
0.0
 40
4.57040107189035
100
AcDbArc
 50
57.52877324932823
 51
90.0
  0
ARC
  5
35D
330
1F
100
AcDbEntity
  8
1
  6
CONTINUOUS
 62
     7
100
AcDbCircle
 10
-327.941014328937
 20
67.4989603562904
 30
0.0
 40
4.570401071890266
100
AcDbArc
 50
-122.4712267506725
 51
-57.52877324932756
  0
ARC
  5
35E
330
1F
100
AcDbEntity
  8
1
  6
CONTINUOUS
 62
     7
100
AcDbCircle
 10
-313.218582464601
 20
67.4989603562905
 30
0.0
 40
4.57040107189035
100
AcDbArc
 50
-122.4712267506718
 51
-57.52877324932823
  0
ARC
  5
35F
330
1F
100
AcDbEntity
  8
1
  6
CONTINUOUS
 62
     7
100
AcDbCircle
 10
-320.579798396769
 20
80.1383668022371
 30
0.0
 40
17.20980751783697
100
AcDbArc
 50
-106.568164702179
 51
-73.43183529782122
  0
ARC
  5
360
330
1F
100
AcDbEntity
  8
1
  6
CONTINUOUS
 62
     7
100
AcDbCircle
 10
-327.941014328937
 20
65.3581582125078
 30
0.0
 40
4.570401071890302
100
AcDbArc
 50
90.0
 51
122.4712267506718
  0
ARC
  5
361
330
1F
100
AcDbEntity
  8
1
  6
CONTINUOUS
 62
     7
100
AcDbCircle
 10
-313.218582464601
 20
65.3581582125078
 30
0.0
 40
4.570401071892292
100
AcDbArc
 50
90.0
 51
122.4712267506718
  0
ARC
  5
362
330
1F
100
AcDbEntity
  8
1
  6
CONTINUOUS
 62
     7
100
AcDbCircle
 10
-320.579798396769
 20
52.7187517665612
 30
0.0
 40
17.20980751783695
100
AcDbArc
 50
73.43183529782122
 51
106.568164702179
  0
ARC
  5
363
330
1F
100
AcDbEntity
  8
1
  6
CONTINUOUS
 62
     7
100
AcDbCircle
 10
-354.579798396769
 20
52.7187517665612
 30
0.0
 40
17.20980751783666
100
AcDbArc
 50
73.43183529782449
 51
106.568164702179
  0
ARC
  5
364
330
1F
100
AcDbEntity
  8
1
  6
CONTINUOUS
 62
     7
100
AcDbCircle
 10
-347.218582464602
 20
65.3581582125078
 30
0.0
 40
4.570401071892292
100
AcDbArc
 50
90.0
 51
122.4712267506724
  0
ARC
  5
365
330
1F
100
AcDbEntity
  8
1
  6
CONTINUOUS
 62
     7
100
AcDbCircle
 10
-361.941014328937
 20
65.3581582125078
 30
0.0
 40
4.570401071890302
100
AcDbArc
 50
90.0
 51
122.4712267506718
  0
ARC
  5
366
330
1F
100
AcDbEntity
  8
1
  6
CONTINUOUS
 62
     7
100
AcDbCircle
 10
-354.579798396769
 20
80.1383668022371
 30
0.0
 40
17.20980751783697
100
AcDbArc
 50
-106.568164702179
 51
-73.43183529782449
  0
ARC
  5
367
330
1F
100
AcDbEntity
  8
1
  6
CONTINUOUS
 62
     7
100
AcDbCircle
 10
-347.218582464602
 20
67.4989603562905
 30
0.0
 40
4.57040107189038
100
AcDbArc
 50
-122.4712267506724
 51
-57.52877324932823
  0
ARC
  5
368
330
1F
100
AcDbEntity
  8
1
  6
CONTINUOUS
 62
     7
100
AcDbCircle
 10
-361.941014328937
 20
67.4989603562904
 30
0.0
 40
4.570401071890266
100
AcDbArc
 50
-122.4712267506725
 51
-57.52877324932756
  0
ARC
  5
369
330
1F
100
AcDbEntity
  8
1
  6
CONTINUOUS
 62
     7
100
AcDbCircle
 10
-347.218582464602
 20
65.3581582125078
 30
0.0
 40
4.57040107189035
100
AcDbArc
 50
57.52877324932823
 51
90.0
  0
ARC
  5
36A
330
1F
100
AcDbEntity
  8
1
  6
CONTINUOUS
 62
     7
100
AcDbCircle
 10
-361.941014328937
 20
65.3581582125078
 30
0.0
 40
4.57040107189035
100
AcDbArc
 50
57.52877324932823
 51
90.0
  0
ARC
  5
36B
330
1F
100
AcDbEntity
  8
1
  6
CONTINUOUS
 62
     7
100
AcDbCircle
 10
-395.941014328937
 20
65.3581582125078
 30
0.0
 40
4.57040107189035
100
AcDbArc
 50
57.52877324932823
 51
90.0
  0
ARC
  5
36C
330
1F
100
AcDbEntity
  8
1
  6
CONTINUOUS
 62
     7
100
AcDbCircle
 10
-381.218582464602
 20
65.3581582125078
 30
0.0
 40
4.57040107189035
100
AcDbArc
 50
57.52877324932823
 51
90.0
  0
ARC
  5
36D
330
1F
100
AcDbEntity
  8
1
  6
CONTINUOUS
 62
     7
100
AcDbCircle
 10
-395.941014328937
 20
67.4989603562904
 30
0.0
 40
4.570401071890266
100
AcDbArc
 50
-122.4712267506725
 51
-57.52877324932756
  0
ARC
  5
36E
330
1F
100
AcDbEntity
  8
1
  6
CONTINUOUS
 62
     7
100
AcDbCircle
 10
-381.218582464602
 20
67.4989603562905
 30
0.0
 40
4.57040107189038
100
AcDbArc
 50
-122.4712267506724
 51
-57.52877324932823
  0
ARC
  5
36F
330
1F
100
AcDbEntity
  8
1
  6
CONTINUOUS
 62
     7
100
AcDbCircle
 10
-388.579798396769
 20
80.1383668022371
 30
0.0
 40
17.20980751783697
100
AcDbArc
 50
-106.568164702179
 51
-73.43183529782449
  0
ARC
  5
370
330
1F
100
AcDbEntity
  8
1
  6
CONTINUOUS
 62
     7
100
AcDbCircle
 10
-395.941014328937
 20
65.3581582125078
 30
0.0
 40
4.570401071890302
100
AcDbArc
 50
90.0
 51
122.4712267506718
  0
ARC
  5
371
330
1F
100
AcDbEntity
  8
1
  6
CONTINUOUS
 62
     7
100
AcDbCircle
 10
-381.218582464602
 20
65.3581582125078
 30
0.0
 40
4.570401071892292
100
AcDbArc
 50
90.0
 51
122.4712267506724
  0
ARC
  5
372
330
1F
100
AcDbEntity
  8
1
  6
CONTINUOUS
 62
     7
100
AcDbCircle
 10
-388.579798396769
 20
52.7187517665612
 30
0.0
 40
17.20980751783666
100
AcDbArc
 50
73.43183529782449
 51
106.568164702179
  0
ARC
  5
373
330
1F
100
AcDbEntity
  8
1
  6
CONTINUOUS
 62
     7
100
AcDbCircle
 10
-413.629798396769
 20
197.711538572177
 30
0.0
 40
3.25
100
AcDbArc
 50
90.0
 51
-90.0
  0
ARC
  5
374
330
1F
100
AcDbEntity
  8
1
  6
CONTINUOUS
 62
     7
100
AcDbCircle
 10
-412.579798396769
 20
197.711538572177
 30
0.0
 40
6.0
100
AcDbArc
 50
-90.0
 51
90.0
  0
ARC
  5
375
330
1F
100
AcDbEntity
  8
1
  6
CONTINUOUS
 62
     7
100
AcDbCircle
 10
-412.529798396769
 20
197.711538572177
 30
0.0
 40
3.25
100
AcDbArc
 50
-90.0
 51
90.0
  0
ARC
  5
376
330
1F
100
AcDbEntity
  8
1
  6
CONTINUOUS
 62
     7
100
AcDbCircle
 10
-57.5297983967688
 20
197.711538572177
 30
0.0
 40
3.25
100
AcDbArc
 50
-90.0
 51
90.0
  0
ARC
  5
377
330
1F
100
AcDbEntity
  8
1
  6
CONTINUOUS
 62
     7
100
AcDbCircle
 10
-58.5797983967689
 20
197.711538572177
 30
0.0
 40
6.0
100
AcDbArc
 50
90.0
 51
-90.0
  0
ARC
  5
378
330
1F
100
AcDbEntity
  8
1
  6
CONTINUOUS
 62
     7
100
AcDbCircle
 10
-58.6297983967689
 20
197.711538572177
 30
0.0
 40
3.25
100
AcDbArc
 50
90.0
 51
-90.0
  0
CIRCLE
  5
379
330
1F
100
AcDbEntity
  8
1
  6
CONTINUOUS
 62
     7
100
AcDbCircle
 10
-320.579798396769
 20
217.711538572177
 30
0.0
 40
8.5
  0
CIRCLE
  5
37A
330
1F
100
AcDbEntity
  8
1
  6
CONTINUOUS
 62
     7
100
AcDbCircle
 10
-320.579798396769
 20
217.711538572177
 30
0.0
 40
11.0
  0
CIRCLE
  5
37B
330
1F
100
AcDbEntity
  8
1
  6
CONTINUOUS
 62
     7
100
AcDbCircle
 10
-320.579798396769
 20
217.711538572177
 30
0.0
 40
7.058823529410972
  0
CIRCLE
  5
37C
330
1F
100
AcDbEntity
  8
1
  6
CONTINUOUS
 62
     7
100
AcDbCircle
 10
-286.579798396769
 20
217.711538572177
 30
0.0
 40
11.0
  0
CIRCLE
  5
37D
330
1F
100
AcDbEntity
  8
1
  6
CONTINUOUS
 62
     7
100
AcDbCircle
 10
-286.579798396769
 20
217.711538572177
 30
0.0
 40
8.5
  0
CIRCLE
  5
37E
330
1F
100
AcDbEntity
  8
1
  6
CONTINUOUS
 62
     7
100
AcDbCircle
 10
-286.579798396769
 20
217.711538572177
 30
0.0
 40
7.058823529410972
  0
CIRCLE
  5
37F
330
1F
100
AcDbEntity
  8
1
  6
CONTINUOUS
 62
     7
100
AcDbCircle
 10
-252.579798396769
 20
217.711538572177
 30
0.0
 40
8.5
  0
CIRCLE
  5
380
330
1F
100
AcDbEntity
  8
1
  6
CONTINUOUS
 62
     7
100
AcDbCircle
 10
-252.579798396769
 20
217.711538572177
 30
0.0
 40
11.0
  0
CIRCLE
  5
381
330
1F
100
AcDbEntity
  8
1
  6
CONTINUOUS
 62
     7
100
AcDbCircle
 10
-252.579798396769
 20
217.711538572177
 30
0.0
 40
7.058823529411001
  0
CIRCLE
  5
382
330
1F
100
AcDbEntity
  8
1
  6
CONTINUOUS
 62
     7
100
AcDbCircle
 10
-218.579798396769
 20
217.711538572177
 30
0.0
 40
11.0
  0
CIRCLE
  5
383
330
1F
100
AcDbEntity
  8
1
  6
CONTINUOUS
 62
     7
100
AcDbCircle
 10
-218.579798396769
 20
217.711538572177
 30
0.0
 40
8.5
  0
CIRCLE
  5
384
330
1F
100
AcDbEntity
  8
1
  6
CONTINUOUS
 62
     7
100
AcDbCircle
 10
-218.579798396769
 20
217.711538572177
 30
0.0
 40
7.058823529411001
  0
CIRCLE
  5
385
330
1F
100
AcDbEntity
  8
1
  6
CONTINUOUS
 62
     7
100
AcDbCircle
 10
-184.579798396769
 20
217.711538572177
 30
0.0
 40
8.5
  0
CIRCLE
  5
386
330
1F
100
AcDbEntity
  8
1
  6
CONTINUOUS
 62
     7
100
AcDbCircle
 10
-184.579798396769
 20
217.711538572177
 30
0.0
 40
11.0
  0
CIRCLE
  5
387
330
1F
100
AcDbEntity
  8
1
  6
CONTINUOUS
 62
     7
100
AcDbCircle
 10
-184.579798396769
 20
217.711538572177
 30
0.0
 40
7.058823529411001
  0
CIRCLE
  5
388
330
1F
100
AcDbEntity
  8
1
  6
CONTINUOUS
 62
     7
100
AcDbCircle
 10
-150.579798396769
 20
217.711538572177
 30
0.0
 40
11.0
  0
CIRCLE
  5
389
330
1F
100
AcDbEntity
  8
1
  6
CONTINUOUS
 62
     7
100
AcDbCircle
 10
-150.579798396769
 20
217.711538572177
 30
0.0
 40
8.5
  0
CIRCLE
  5
38A
330
1F
100
AcDbEntity
  8
1
  6
CONTINUOUS
 62
     7
100
AcDbCircle
 10
-150.579798396769
 20
217.711538572177
 30
0.0
 40
7.058823529411001
  0
CIRCLE
  5
38B
330
1F
100
AcDbEntity
  8
1
  6
CONTINUOUS
 62
     7
100
AcDbCircle
 10
-116.579798396769
 20
217.711538572177
 30
0.0
 40
8.5
  0
CIRCLE
  5
38C
330
1F
100
AcDbEntity
  8
1
  6
CONTINUOUS
 62
     7
100
AcDbCircle
 10
-116.579798396769
 20
217.711538572177
 30
0.0
 40
11.0
  0
CIRCLE
  5
38D
330
1F
100
AcDbEntity
  8
1
  6
CONTINUOUS
 62
     7
100
AcDbCircle
 10
-116.579798396769
 20
217.711538572177
 30
0.0
 40
7.058823529410987
  0
CIRCLE
  5
38E
330
1F
100
AcDbEntity
  8
1
  6
CONTINUOUS
 62
     7
100
AcDbCircle
 10
-82.57979839676941
 20
217.711538572177
 30
0.0
 40
11.0
  0
CIRCLE
  5
38F
330
1F
100
AcDbEntity
  8
1
  6
CONTINUOUS
 62
     7
100
AcDbCircle
 10
-82.57979839676941
 20
217.711538572177
 30
0.0
 40
8.5
  0
CIRCLE
  5
390
330
1F
100
AcDbEntity
  8
1
  6
CONTINUOUS
 62
     7
100
AcDbCircle
 10
-82.57979839676941
 20
217.711538572177
 30
0.0
 40
7.058823529411811
  0
CIRCLE
  5
391
330
1F
100
AcDbEntity
  8
1
  6
CONTINUOUS
 62
     7
100
AcDbCircle
 10
-388.579798396769
 20
217.711538572177
 30
0.0
 40
7.058823529410972
  0
CIRCLE
  5
392
330
1F
100
AcDbEntity
  8
1
  6
CONTINUOUS
 62
     7
100
AcDbCircle
 10
-388.579798396769
 20
217.711538572177
 30
0.0
 40
8.5
  0
CIRCLE
  5
393
330
1F
100
AcDbEntity
  8
1
  6
CONTINUOUS
 62
     7
100
AcDbCircle
 10
-388.579798396769
 20
217.711538572177
 30
0.0
 40
11.0
  0
CIRCLE
  5
394
330
1F
100
AcDbEntity
  8
1
  6
CONTINUOUS
 62
     7
100
AcDbCircle
 10
-354.579798396769
 20
217.711538572177
 30
0.0
 40
11.0
  0
CIRCLE
  5
395
330
1F
100
AcDbEntity
  8
1
  6
CONTINUOUS
 62
     7
100
AcDbCircle
 10
-354.579798396769
 20
217.711538572177
 30
0.0
 40
8.5
  0
CIRCLE
  5
396
330
1F
100
AcDbEntity
  8
1
  6
CONTINUOUS
 62
     7
100
AcDbCircle
 10
-354.579798396769
 20
217.711538572177
 30
0.0
 40
7.058823529410972
  0
CIRCLE
  5
397
330
1F
100
AcDbEntity
  8
1
  6
CONTINUOUS
 62
     7
100
AcDbCircle
 10
-388.579798396769
 20
177.711538572177
 30
0.0
 40
11.0
  0
CIRCLE
  5
398
330
1F
100
AcDbEntity
  8
1
  6
CONTINUOUS
 62
     7
100
AcDbCircle
 10
-388.579798396769
 20
177.711538572177
 30
0.0
 40
8.5
  0
CIRCLE
  5
399
330
1F
100
AcDbEntity
  8
1
  6
CONTINUOUS
 62
     7
100
AcDbCircle
 10
-388.579798396769
 20
177.711538572177
 30
0.0
 40
7.058823529410972
  0
CIRCLE
  5
39A
330
1F
100
AcDbEntity
  8
1
  6
CONTINUOUS
 62
     7
100
AcDbCircle
 10
-354.579798396769
 20
177.711538572177
 30
0.0
 40
7.058823529410972
  0
CIRCLE
  5
39B
330
1F
100
AcDbEntity
  8
1
  6
CONTINUOUS
 62
     7
100
AcDbCircle
 10
-320.579798396769
 20
177.711538572177
 30
0.0
 40
7.058823529410972
  0
CIRCLE
  5
39C
330
1F
100
AcDbEntity
  8
1
  6
CONTINUOUS
 62
     7
100
AcDbCircle
 10
-286.579798396769
 20
177.711538572177
 30
0.0
 40
7.058823529410972
  0
CIRCLE
  5
39D
330
1F
100
AcDbEntity
  8
1
  6
CONTINUOUS
 62
     7
100
AcDbCircle
 10
-252.579798396769
 20
177.711538572177
 30
0.0
 40
7.058823529411001
  0
CIRCLE
  5
39E
330
1F
100
AcDbEntity
  8
1
  6
CONTINUOUS
 62
     7
100
AcDbCircle
 10
-218.579798396769
 20
177.711538572177
 30
0.0
 40
7.058823529411001
  0
CIRCLE
  5
39F
330
1F
100
AcDbEntity
  8
1
  6
CONTINUOUS
 62
     7
100
AcDbCircle
 10
-184.579798396769
 20
177.711538572177
 30
0.0
 40
7.058823529411001
  0
CIRCLE
  5
3A0
330
1F
100
AcDbEntity
  8
1
  6
CONTINUOUS
 62
     7
100
AcDbCircle
 10
-150.579798396769
 20
177.711538572177
 30
0.0
 40
7.058823529411001
  0
CIRCLE
  5
3A1
330
1F
100
AcDbEntity
  8
1
  6
CONTINUOUS
 62
     7
100
AcDbCircle
 10
-116.579798396769
 20
177.711538572177
 30
0.0
 40
7.058823529410987
  0
CIRCLE
  5
3A2
330
1F
100
AcDbEntity
  8
1
  6
CONTINUOUS
 62
     7
100
AcDbCircle
 10
-82.57979839676941
 20
177.711538572177
 30
0.0
 40
7.058823529411811
  0
CIRCLE
  5
3A3
330
1F
100
AcDbEntity
  8
1
  6
CONTINUOUS
 62
     7
100
AcDbCircle
 10
-82.57979839676941
 20
177.711538572177
 30
0.0
 40
8.5
  0
CIRCLE
  5
3A4
330
1F
100
AcDbEntity
  8
1
  6
CONTINUOUS
 62
     7
100
AcDbCircle
 10
-82.57979839676941
 20
177.711538572177
 30
0.0
 40
11.0
  0
CIRCLE
  5
3A5
330
1F
100
AcDbEntity
  8
1
  6
CONTINUOUS
 62
     7
100
AcDbCircle
 10
-116.579798396769
 20
177.711538572177
 30
0.0
 40
11.0
  0
CIRCLE
  5
3A6
330
1F
100
AcDbEntity
  8
1
  6
CONTINUOUS
 62
     7
100
AcDbCircle
 10
-116.579798396769
 20
177.711538572177
 30
0.0
 40
8.5
  0
CIRCLE
  5
3A7
330
1F
100
AcDbEntity
  8
1
  6
CONTINUOUS
 62
     7
100
AcDbCircle
 10
-150.579798396769
 20
177.711538572177
 30
0.0
 40
8.5
  0
CIRCLE
  5
3A8
330
1F
100
AcDbEntity
  8
1
  6
CONTINUOUS
 62
     7
100
AcDbCircle
 10
-150.579798396769
 20
177.711538572177
 30
0.0
 40
11.0
  0
CIRCLE
  5
3A9
330
1F
100
AcDbEntity
  8
1
  6
CONTINUOUS
 62
     7
100
AcDbCircle
 10
-184.579798396769
 20
177.711538572177
 30
0.0
 40
11.0
  0
CIRCLE
  5
3AA
330
1F
100
AcDbEntity
  8
1
  6
CONTINUOUS
 62
     7
100
AcDbCircle
 10
-184.579798396769
 20
177.711538572177
 30
0.0
 40
8.5
  0
CIRCLE
  5
3AB
330
1F
100
AcDbEntity
  8
1
  6
CONTINUOUS
 62
     7
100
AcDbCircle
 10
-218.579798396769
 20
177.711538572177
 30
0.0
 40
8.5
  0
CIRCLE
  5
3AC
330
1F
100
AcDbEntity
  8
1
  6
CONTINUOUS
 62
     7
100
AcDbCircle
 10
-218.579798396769
 20
177.711538572177
 30
0.0
 40
11.0
  0
CIRCLE
  5
3AD
330
1F
100
AcDbEntity
  8
1
  6
CONTINUOUS
 62
     7
100
AcDbCircle
 10
-252.579798396769
 20
177.711538572177
 30
0.0
 40
11.0
  0
CIRCLE
  5
3AE
330
1F
100
AcDbEntity
  8
1
  6
CONTINUOUS
 62
     7
100
AcDbCircle
 10
-252.579798396769
 20
177.711538572177
 30
0.0
 40
8.5
  0
CIRCLE
  5
3AF
330
1F
100
AcDbEntity
  8
1
  6
CONTINUOUS
 62
     7
100
AcDbCircle
 10
-286.579798396769
 20
177.711538572177
 30
0.0
 40
8.5
  0
CIRCLE
  5
3B0
330
1F
100
AcDbEntity
  8
1
  6
CONTINUOUS
 62
     7
100
AcDbCircle
 10
-286.579798396769
 20
177.711538572177
 30
0.0
 40
11.0
  0
CIRCLE
  5
3B1
330
1F
100
AcDbEntity
  8
1
  6
CONTINUOUS
 62
     7
100
AcDbCircle
 10
-320.579798396769
 20
177.711538572177
 30
0.0
 40
11.0
  0
CIRCLE
  5
3B2
330
1F
100
AcDbEntity
  8
1
  6
CONTINUOUS
 62
     7
100
AcDbCircle
 10
-320.579798396769
 20
177.711538572177
 30
0.0
 40
8.5
  0
CIRCLE
  5
3B3
330
1F
100
AcDbEntity
  8
1
  6
CONTINUOUS
 62
     7
100
AcDbCircle
 10
-354.579798396769
 20
177.711538572177
 30
0.0
 40
8.5
  0
CIRCLE
  5
3B4
330
1F
100
AcDbEntity
  8
1
  6
CONTINUOUS
 62
     7
100
AcDbCircle
 10
-354.579798396769
 20
177.711538572177
 30
0.0
 40
11.0
  0
TEXT
  5
3B6
330
1F
100
AcDbEntity
  8
1
 62
     7
100
AcDbText
 10
-249.125710421408
 20
258.97416167193
 30
0.0
 40
5.0
  1
TC200C
 41
0.9
  7
CONVERTER_1
100
AcDbText
  0
ENDSEC
  0
SECTION
  2
OBJECTS
  0
DICTIONARY
  5
C
330
0
100
AcDbDictionary
  3
ACAD_GROUP
350
D
  3
ACAD_LAYOUT
350
1A
  3
ACAD_MLINESTYLE
350
17
  3
ACAD_PLOTSETTINGS
350
19
  3
ACDBHEADERROUNDTRIPXREC
350
3B7
  0
DICTIONARY
  5
D
102
{ACAD_REACTORS
330
C
102
}
330
C
100
AcDbDictionary
  0
DICTIONARY
  5
1A
102
{ACAD_REACTORS
330
C
102
}
330
C
100
AcDbDictionary
  0
DICTIONARY
  5
17
102
{ACAD_REACTORS
330
C
102
}
330
C
100
AcDbDictionary
  3
STANDARD
350
18
  0
DICTIONARY
  5
19
102
{ACAD_REACTORS
330
C
102
}
330
C
100
AcDbDictionary
  0
DICTIONARY
  5
3B7
102
{ACAD_REACTORS
330
C
102
}
330
C
100
AcDbDictionary
  3
CEPSNTYPE
350
3C0
  3
DIMSTYLEDATA
350
3D6
  3
FINGERPRINTGUID
350
3C1
  3
HYPERLINKBASE
350
3BA
  3
INSUNITS
350
3BF
  3
LAYOUTDICT
350
3BC
  3
LWETCUNION
350
3BE
  3
PLOTSETDICT
350
3BD
  3
PSVPSCALE
350
3C3
  3
PUCSBASE
350
3C6
  3
PUCSORGBACK
350
3CC
  3
PUCSORGBOTTOM
350
3C8
  3
PUCSORGFRONT
350
3CB
  3
PUCSORGLEFT
350
3C9
  3
PUCSORGRIGHT
350
3CA
  3
PUCSORGTOP
350
3C7
  3
PUCSORTHOREF
350
3C4
  3
PUCSORTHOVIEW
350
3C5
  3
STYLESHEET
350
3BB
  3
TSTACKALIGN
350
3B8
  3
TSTACKSIZE
350
3B9
  3
UCSBASE
350
3CF
  3
UCSORGBACK
350
3D5
  3
UCSORGBOTTOM
350
3D1
  3
UCSORGFRONT
350
3D4
  3
UCSORGLEFT
350
3D2
  3
UCSORGRIGHT
350
3D3
  3
UCSORGTOP
350
3D0
  3
UCSORTHOREF
350
3CD
  3
UCSORTHOVIEW
350
3CE
  3
VERSIONGUID
350
3C2
  0
MLINESTYLE
  5
18
102
{ACAD_REACTORS
330
17
102
}
330
17
100
AcDbMlineStyle
  2
Standard
 70
     0
  3

 62
   256
 51
90.0
 52
90.0
 71
     2
 49
0.5
 62
   256
  6
BYLAYER
 49
-0.5
 62
   256
  6
BYLAYER
  0
XRECORD
  5
3C0
102
{ACAD_REACTORS
330
3B7
102
}
330
3B7
100
AcDbXrecord
 90
        0
  0
XRECORD
  5
3D6
102
{ACAD_REACTORS
330
3B7
102
}
330
3B7
100
AcDbXrecord
1000
DSTYLE
1002
{
1070
   171
 70
     2
1070
   143
 40
25.4
1070
   274
 70
     2
1070
    41
 40
0.18
1070
   141
 40
0.09
1070
   271
 70
     4
1070
    43
 40
0.38
1070
    44
 40
0.18
1070
   278
 70
    46
1070
    42
 40
0.0625
1070
   147
 40
0.09
1070
    77
 70
     0
1070
   272
 70
     4
1070
    73
 70
     1
1070
   172
 70
     0
1070
    74
 70
     1
1070
   283
 70
     1
1070
   340
340
11
1070
   140
 40
0.18
1070
   284
 70
     0
1070
    78
 70
     0
1002
}
  0
XRECORD
  5
3C1
102
{ACAD_REACTORS
330
3B7
102
}
330
3B7
100
AcDbXrecord
  1
{1E2FC04D-07CD-446A-B134-73D00722B0EE}
  0
XRECORD
  5
3BA
102
{ACAD_REACTORS
330
3B7
102
}
330
3B7
100
AcDbXrecord
  1

  0
XRECORD
  5
3BF
102
{ACAD_REACTORS
330
3B7
102
}
330
3B7
100
AcDbXrecord
 90
        1
  0
XRECORD
  5
3BC
102
{ACAD_REACTORS
330
3B7
102
}
330
3B7
100
AcDbXrecord
340
1A
  0
XRECORD
  5
3BE
102
{ACAD_REACTORS
330
3B7
102
}
330
3B7
100
AcDbXrecord
 90
    10781
  0
XRECORD
  5
3BD
102
{ACAD_REACTORS
330
3B7
102
}
330
3B7
100
AcDbXrecord
340
19
  0
XRECORD
  5
3C3
102
{ACAD_REACTORS
330
3B7
102
}
330
3B7
100
AcDbXrecord
 40
0.0
  0
XRECORD
  5
3C6
102
{ACAD_REACTORS
330
3B7
102
}
330
3B7
100
AcDbXrecord
340
0
  0
XRECORD
  5
3CC
102
{ACAD_REACTORS
330
3B7
102
}
330
3B7
100
AcDbXrecord
 10
0.0
 20
0.0
 30
0.0
  0
XRECORD
  5
3C8
102
{ACAD_REACTORS
330
3B7
102
}
330
3B7
100
AcDbXrecord
 10
0.0
 20
0.0
 30
0.0
  0
XRECORD
  5
3CB
102
{ACAD_REACTORS
330
3B7
102
}
330
3B7
100
AcDbXrecord
 10
0.0
 20
0.0
 30
0.0
  0
XRECORD
  5
3C9
102
{ACAD_REACTORS
330
3B7
102
}
330
3B7
100
AcDbXrecord
 10
0.0
 20
0.0
 30
0.0
  0
XRECORD
  5
3CA
102
{ACAD_REACTORS
330
3B7
102
}
330
3B7
100
AcDbXrecord
 10
0.0
 20
0.0
 30
0.0
  0
XRECORD
  5
3C7
102
{ACAD_REACTORS
330
3B7
102
}
330
3B7
100
AcDbXrecord
 10
0.0
 20
0.0
 30
0.0
  0
XRECORD
  5
3C4
102
{ACAD_REACTORS
330
3B7
102
}
330
3B7
100
AcDbXrecord
340
0
  0
XRECORD
  5
3C5
102
{ACAD_REACTORS
330
3B7
102
}
330
3B7
100
AcDbXrecord
 70
     0
  0
XRECORD
  5
3BB
102
{ACAD_REACTORS
330
3B7
102
}
330
3B7
100
AcDbXrecord
  1

  0
XRECORD
  5
3B8
102
{ACAD_REACTORS
330
3B7
102
}
330
3B7
100
AcDbXrecord
 90
        1
  0
XRECORD
  5
3B9
102
{ACAD_REACTORS
330
3B7
102
}
330
3B7
100
AcDbXrecord
 90
       70
  0
XRECORD
  5
3CF
102
{ACAD_REACTORS
330
3B7
102
}
330
3B7
100
AcDbXrecord
340
0
  0
XRECORD
  5
3D5
102
{ACAD_REACTORS
330
3B7
102
}
330
3B7
100
AcDbXrecord
 10
0.0
 20
0.0
 30
0.0
  0
XRECORD
  5
3D1
102
{ACAD_REACTORS
330
3B7
102
}
330
3B7
100
AcDbXrecord
 10
0.0
 20
0.0
 30
0.0
  0
XRECORD
  5
3D4
102
{ACAD_REACTORS
330
3B7
102
}
330
3B7
100
AcDbXrecord
 10
0.0
 20
0.0
 30
0.0
  0
XRECORD
  5
3D2
102
{ACAD_REACTORS
330
3B7
102
}
330
3B7
100
AcDbXrecord
 10
0.0
 20
0.0
 30
0.0
  0
XRECORD
  5
3D3
102
{ACAD_REACTORS
330
3B7
102
}
330
3B7
100
AcDbXrecord
 10
0.0
 20
0.0
 30
0.0
  0
XRECORD
  5
3D0
102
{ACAD_REACTORS
330
3B7
102
}
330
3B7
100
AcDbXrecord
 10
0.0
 20
0.0
 30
0.0
  0
XRECORD
  5
3CD
102
{ACAD_REACTORS
330
3B7
102
}
330
3B7
100
AcDbXrecord
340
0
  0
XRECORD
  5
3CE
102
{ACAD_REACTORS
330
3B7
102
}
330
3B7
100
AcDbXrecord
 70
     0
  0
XRECORD
  5
3C2
102
{ACAD_REACTORS
330
3B7
102
}
330
3B7
100
AcDbXrecord
  1
{FAEB1C32-E019-11D5-929B-00C0DF256EC4}
  0
ENDSEC
  0
EOF
